<svg width="46" height="39" viewBox="0 0 46 39" fill="none" xmlns="http://www.w3.org/2000/svg">
<path d="M45.014 0.357957C38.482 -0.683374 33.6303 0.547295 30.459 4.04996C27.2877 7.55263 25.702 12.712 25.702 19.528V38.84H45.014V19.528H35.074C34.5533 16.12 35.0267 13.351 36.494 11.221C38.0087 9.09096 40.47 8.16796 43.878 8.45195L45.014 0.357957ZM19.312 0.357957C12.78 -0.683374 7.92833 0.547295 4.757 4.04996C1.58567 7.55263 0 12.712 0 19.528V38.84H19.312V19.528H9.372C8.85133 16.12 9.32467 13.351 10.792 11.221C12.3067 9.09096 14.768 8.16796 18.176 8.45195L19.312 0.357957Z" fill="#005344" fill-opacity="0.2"/>
</svg>
