<svg width="811" height="478" viewBox="0 0 811 478" fill="none" xmlns="http://www.w3.org/2000/svg">
<path d="M1.867 463.106V464.366V465.298V471.384V475.331V475.633V478.127C2.38866 478.1 2.91032 478.072 3.43198 478.045C9.77429 477.771 16.144 477.963 22.4589 478.401C19.2191 476.592 16.0342 474.673 12.8768 472.727C12.6022 472.562 12.6572 472.124 13.069 472.124C21.2508 472.179 28.911 474.591 36.5712 476.839C40.4974 477.99 44.451 479.004 48.542 479.662C52.276 480.238 55.9551 480.183 59.7165 480.265C65.949 480.402 72.1815 480.676 78.4414 480.567C79.9515 480.539 81.4341 480.512 82.9442 480.43C81.6537 482.622 82.093 484.788 86.7056 483.527C92.087 482.074 96.9467 484.322 100.543 478.1C102.053 479.881 108.341 482.129 105.98 477.935C108.615 479.114 112.047 480.238 114.875 479.114C118.005 477.935 118.28 480.923 121.849 482.266C128.356 484.651 131.074 481.087 126.27 477.99C128.274 478.73 130.196 479.689 131.953 480.923C132.063 480.786 132.173 480.649 132.282 480.512C132.612 480.073 132.859 479.58 133.079 479.059C133.188 478.812 133.271 478.566 133.353 478.319C133.436 478.045 133.545 477.771 133.628 477.497C133.683 477.332 133.738 477.168 133.765 476.976C134.616 477.195 135.44 477.524 136.236 478.072C139.476 480.32 148.481 479.772 142.825 476.647C144.967 477.195 153.506 479.032 153.67 475.413C153.78 473.632 152.517 473.303 151.117 473.166C151.145 472.864 151.09 472.535 150.952 472.206C153.808 472.261 156.389 472.672 159.573 472.782C161.413 472.891 166.767 470.123 162.594 469.109C163.143 468.807 174.647 462.941 167.865 462.311C165.477 462.119 162.511 463.654 160.342 462.42C160.068 462.283 159.903 462.174 159.738 462.064C159.683 461.954 159.656 461.872 159.573 461.762C160.232 461.982 161.605 462.091 162.896 461.927C163.005 461.543 163.088 461.159 163.198 460.776C164.543 461.104 165.806 461.159 166.437 460.063C169.677 460.227 173.466 458.363 169.21 456.554C170.775 456.362 176.514 453.073 171.901 452.223C170.171 451.867 168.332 451.757 166.575 452.059C166.3 451.565 165.833 451.017 165.257 450.524C165.779 449.811 166.245 449.043 166.108 447.837C165.724 444.603 160.891 445.398 158.118 445.096C158.118 444.959 158.091 444.822 158.036 444.685C159.985 444.74 162.566 445.37 163.774 444.493C167.563 441.779 158.009 439.258 156.444 439.203C162.017 436.544 154.796 433.858 150.87 435.886C152.49 434.707 157.761 434.378 156.938 431.528C156.608 430.267 155.428 429.801 153.972 429.691C154.082 429.554 154.247 429.417 154.275 429.198C154.412 428.293 153.588 427.471 152.517 426.813C153.863 426.511 154.659 425.004 153.725 423.88C154.165 423.249 152.957 422.564 151.254 422.125C149.47 421.084 147.548 420.344 145.406 420.563C146.12 420.481 147.026 420.344 145.269 420.563C144.637 420.645 144.802 420.645 145.132 420.59C142.606 420.974 143.237 422.153 144.885 423.359C144.885 423.606 144.94 423.852 145.077 424.154C143.786 423.304 142.661 422.29 141.7 421.111C147.218 418.781 143.979 417.328 140.107 417.109C139.037 416.506 137.581 416.013 136.071 415.766C136.071 415.547 135.989 415.273 135.852 414.998C136.318 414.532 136.648 414.094 136.813 413.765C138.789 411.517 135.659 411.298 133.49 411.49C132.777 411.27 132.035 411.079 131.486 411.024C133.6 410.969 141.315 412.12 140.958 408.584C140.656 405.35 132.227 405.569 129.756 405.267C136.675 404.281 136.154 400.58 128.988 400.443C132.337 392.384 118.28 398.963 116.578 399.018C123.359 393.316 114.491 393.453 110.839 397.51C110.51 396.852 109.933 396.413 109.219 396.167C107.435 396.468 107.023 395.673 107.984 393.864C110.153 393.097 115.452 394.138 117.044 392.877C122.179 388.683 107.133 389.04 104.909 389.807C107.517 387.861 117.731 387.532 116.193 384.599C113.338 379.144 100.434 385.257 98.4018 388.492C99.198 384.928 103.975 384.243 104.717 381.282C105.156 379.473 101.806 375.471 99.555 376.403C104.085 368.618 94.1462 373.278 91.5928 377.664C89.8081 375.115 87.3646 373.114 84.7013 371.003C82.6971 369.386 80.583 367.522 78.6061 365.301C78.5238 365.219 78.4414 365.11 78.359 365.027C77.5354 364.095 76.7666 363.054 75.9978 361.985C75.8056 361.711 75.6134 361.436 75.4213 361.162C75.2291 360.888 75.0918 360.559 74.8996 360.285C74.625 356.42 73.8288 352.391 72.3737 348.06C72.4011 348.032 72.4011 348.032 72.4286 348.005C72.3462 347.813 72.2638 347.594 72.1815 347.402C74.2956 343.701 75.9978 339.315 76.849 336.026C78.1943 331.01 78.2218 325.61 77.8648 319.908C78.5238 318.236 79.2925 316.619 80.2535 315.056C83.9875 308.971 89.2316 303.735 94.9149 298.993C100.214 294.553 104.826 289.18 106.446 282.903C108.094 276.571 107.956 269.773 107.298 263.221C107.27 258.89 107.188 254.45 107.627 250.42C109.11 245.047 111.114 239.291 115.946 236.55C116.852 236.029 117.978 235.728 118.994 235.481C121.602 235.892 124.183 236.358 126.654 236.523C129.894 236.742 132.941 236.413 135.659 234.905C135.687 234.905 135.714 234.878 135.742 234.878C144.994 233.069 150.348 223.557 154.137 215.032C154.192 214.895 154.275 214.73 154.329 214.593C154.357 214.539 154.384 214.456 154.412 214.401C155.263 212.483 156.032 210.646 156.746 208.947C156.746 208.974 156.718 208.974 156.718 209.001C156.746 208.974 156.746 208.919 156.773 208.892C157.652 206.699 158.393 204.396 158.969 201.984C159.381 200.504 159.738 198.996 160.068 197.489C160.095 197.379 160.068 197.269 160.068 197.16C165.504 199.819 167.316 194.747 168.057 190.554C169.65 196.173 171.517 201.737 174.976 206.946C176.624 209.413 179.561 208.453 180.33 206.452C181.758 202.697 182.279 198.311 181.758 194.336C181.621 193.295 179.506 189.923 181.346 191.102C182.691 191.952 184.009 192.774 185.492 193.487C186.563 194.007 187.551 194.199 188.539 193.678C188.979 193.459 188.896 192.938 188.622 192.637C187.029 190.882 185.3 189.238 183.515 187.593C186.151 188.717 189.006 189.841 191.56 190.033C191.56 190.334 191.532 190.608 191.532 190.91C191.642 193.815 191.642 197.982 194.47 200.367C197.215 202.697 200.208 200.833 202.679 198.009C202.24 200.97 202.46 203.848 203.86 205.739C207.896 211.249 213.277 202.203 215.94 195.899C215.968 200.23 216.599 205.438 220.059 206.644C222.502 207.494 225.22 205.054 225.962 203.684C227.527 200.778 228.103 197.927 227.609 194.885C230.821 197.818 235.983 202.286 239.113 201.491C239.497 201.381 239.69 201.217 239.745 200.888C240.184 198.009 237.685 194.83 234.885 191.842C236.724 193.075 238.591 194.281 240.568 195.46C243.671 197.324 248.503 199.901 252.402 200.751C252.841 200.86 253.335 200.614 253.445 200.285C254.598 196.94 250.837 192.472 248.036 189.183C249.546 187.538 250.397 185.071 250.562 182.686C250.59 182.303 250.59 181.919 250.535 181.508C250.507 181.563 250.48 181.617 250.48 181.672C250.315 178.876 248.86 175.751 247.048 173.394C246.444 172.599 245.84 171.832 245.153 171.091C246.499 172.023 247.899 172.928 249.299 173.805C253.39 176.409 262.972 181.371 260.309 173.449C259.046 169.721 257.097 166.103 254.379 162.786C254.049 162.402 253.665 162.046 253.308 161.662C258.634 164.567 264.482 167.089 263.961 163.992C263.329 160.264 260.282 156.673 256.41 153.411C259.321 154.453 262.533 155.494 265.141 156.07C265.224 156.097 265.279 156.097 265.333 156.097C265.581 156.152 265.8 156.18 266.047 156.234C266.212 156.262 266.404 156.289 266.542 156.317C266.844 156.371 267.146 156.399 267.42 156.426C267.475 156.426 267.557 156.454 267.612 156.454C267.942 156.481 268.271 156.481 268.546 156.454C268.628 156.454 268.711 156.426 268.793 156.426C268.985 156.399 269.177 156.371 269.315 156.344C269.397 156.317 269.452 156.289 269.534 156.262C269.671 156.207 269.781 156.152 269.891 156.097C269.946 156.07 270.001 156.015 270.028 155.96C270.111 155.878 270.166 155.768 270.221 155.686C270.248 155.631 270.276 155.577 270.276 155.522C270.303 155.385 270.303 155.248 270.276 155.083C270.276 155.028 270.276 154.973 270.276 154.891C270.221 154.645 270.138 154.398 270.001 154.096C268.738 151.492 261.764 148.203 258.936 146.942C258.415 146.723 257.865 146.476 257.316 146.229C260.858 145.955 264.427 145.379 267.448 144.968C270.413 144.585 274.476 143.899 276.645 142.255C280.544 139.294 275.025 137.403 269.891 136.389C271.703 135.237 273.241 134.004 274.229 132.743C275.19 131.509 277.359 128.933 275.135 127.672C272.966 126.411 268.93 129.837 267.667 130.769C265.855 132.112 263.878 133.784 261.737 135.319C261.682 135.319 261.627 135.319 261.599 135.319C263.137 134.141 264.592 132.88 265.718 131.317C265.883 131.071 266.047 130.824 266.24 130.577C266.349 130.495 266.487 130.413 266.596 130.303C266.734 130.166 266.734 130.002 266.679 129.865C267.667 128.165 268.326 126.082 267.008 124.437C266.734 124.081 266.322 123.861 265.855 123.724C267.42 122.984 268.958 122.244 270.55 121.559C271.593 121.093 273.46 120.408 273.543 119.284C274.037 113.089 259.76 113.5 251.908 114.569C251.908 114.542 251.88 114.542 251.88 114.514C255.889 112.541 261.105 109.799 259.568 106.702C257.838 103.221 253.006 104.427 249.272 105.002C252.457 102.645 259.156 97.7384 254.845 96.3404C248.97 94.3942 244.385 96.2856 239.69 98.1221C243.643 94.1475 248.421 89.1586 246.334 84.6631C245.181 82.1687 240.156 81.9768 237.603 82.525C236.148 82.8266 234.803 83.2651 233.512 83.7311C233.43 83.7585 233.347 83.786 233.265 83.8134C233.265 83.8408 233.238 83.8408 233.238 83.8682C232.277 84.252 231.343 84.6357 230.465 85.1017C230.684 84.6631 230.849 84.1971 230.849 83.786C230.876 82.6895 230.355 81.922 229.531 81.4012C231.288 80.7159 232.579 79.7839 232.688 78.523C232.853 76.4123 229.421 74.6031 226.483 73.5889C228.46 72.0813 230.684 70.4366 230.931 68.4904C230.959 68.2711 230.739 67.997 230.465 67.9147C227.417 67.065 223.216 67.8599 220.169 68.1888C219.427 68.2711 218.741 68.3807 218.027 68.4904C218.796 67.7229 219.043 66.9005 218.411 66.0508C218.109 65.667 217.643 65.3381 217.039 65.0639C218.494 64.4609 219.921 63.8304 221.157 63.2274C224.177 61.7197 228.296 59.2527 226.703 56.0182C225.577 53.7156 220.718 53.4415 218.247 53.3318C215.529 53.2222 213.36 53.8527 211.328 54.7298C213.579 52.2354 215.309 49.4668 213.332 48.2059C210.779 46.5886 207.539 47.6029 204.601 49.3846C205.754 47.082 206.413 44.6972 205.892 42.4221C205.782 41.9835 204.903 40.9967 204.189 41.4353C202.707 42.3124 200.318 43.7927 198.204 45.4922C196.419 44.9165 194.607 44.8069 192.795 44.5876C198.424 42.5043 206.935 37.8718 204.134 34.8017C202.432 32.9377 195.788 33.5134 193.646 33.486C188.567 33.4585 184.064 33.9794 180.028 35.8433C181.154 33.8423 182.279 31.5672 180.824 29.758C180.193 28.9631 179.122 29.1275 178.079 29.6484C179.259 27.894 180.248 26.0026 179.616 24.1661C179.506 23.8097 178.985 23.097 178.353 23.2615C177.09 23.5904 176.102 24.0016 175.278 24.495C175.635 19.1498 173.796 12.7903 169.018 10.6522C168.716 10.5152 168.195 10.4878 167.893 10.6522C165.916 11.5842 164.57 13.4208 163.692 15.5863C162.319 12.9822 160.562 10.4055 158.063 8.48672C151.556 3.49784 153.314 11.3649 153.012 15.0106C150.431 12.4614 147.96 8.37708 143.677 8.87048C142.139 9.03495 142.414 11.6116 142.441 12.2147C142.496 13.8868 144.006 17.8614 141.37 13.6675C139.201 10.2411 136.977 5.60852 131.761 4.37501C129.756 3.90901 128.137 5.22476 126.901 6.84204C127.45 3.03185 127.478 -1.40881 124.018 0.427759C117.044 4.15572 113.503 10.2959 111.8 16.6279C111.636 15.8878 111.416 15.1751 111.169 14.4624C111.169 14.4624 111.169 14.435 111.196 14.435C111.059 14.0238 110.894 13.6401 110.702 13.2563C109.576 11.0634 107.902 8.07555 104.854 6.95168C100.296 5.25217 96.9192 6.15675 94.8326 8.26743C93.7618 6.97909 92.5812 5.85522 91.3182 5.14253C83.8502 0.866342 85.1955 9.25424 85.3054 13.2015C82.0107 10.9538 74.8172 6.34863 73.4993 9.80247C72.5658 12.2969 73.6092 15.1477 75.6134 17.5599C71.0283 15.2574 65.3724 13.8594 60.5676 13.7771C59.0301 13.3934 58.1241 13.6675 57.6299 14.0512C55.4608 11.639 52.9624 9.41871 50.9032 9.66542C47.4712 10.0492 47.5261 16.4635 47.9379 20.63C47.0319 19.3417 45.9062 18.2178 44.0118 17.4229C43.8745 17.368 43.5999 17.3406 43.4626 17.4229C39.2344 20.0544 43.4626 26.496 45.412 29.4839C45.714 29.9773 46.0435 30.4433 46.373 30.9367C45.8787 30.5529 45.3845 30.1966 44.8903 29.8128C42.7762 28.1956 40.3052 27.0169 37.6145 26.1397C34.3747 25.0981 30.8604 26.4138 31.3821 29.155C29.5151 29.8402 27.7304 31.2108 26.7969 32.3073C26.0556 33.2118 25.4241 34.1164 24.875 35.021C24.7926 35.1581 24.7103 35.2677 24.6279 35.4048C24.573 35.5144 24.4906 35.5966 24.4357 35.7063C24.4357 35.7337 24.4357 35.7337 24.4632 35.7611C23.9964 36.5835 23.5846 37.4058 23.2551 38.2556C23.0904 37.7896 22.8707 37.351 22.5687 37.0494C21.7725 36.1997 20.8115 35.8982 19.7682 35.953C20.5919 34.4454 20.8939 33.02 20.0153 31.9783C18.5602 30.2514 14.5791 30.7996 11.5864 31.6768C11.9708 29.4291 12.4375 26.9072 11.1745 25.2899C11.0373 25.0706 10.6529 24.961 10.4058 25.0706C7.44054 26.1397 4.80478 29.0727 2.71813 31.0189C2.41612 31.3205 2.1141 31.5946 1.83954 31.8961V39.9277V65.6944V70.5462V76.0011V81.8946V89.7342V91.05V96.8064V118.078V118.708V126.274V138.883V140.857V142.803V146.695V148.559V150.999V155.467C3.15742 155.412 4.42039 155.22 5.68336 154.919C5.93047 154.864 6.06775 154.672 6.01283 154.48C5.68336 153.548 5.10679 152.561 4.44785 151.657C9.60955 152.644 15.5949 151.602 21.0037 150.176C16.3362 152.835 11.8609 156.18 14.332 158.29C16.3637 159.99 20.8665 159.716 23.2551 159.14C24.9574 158.729 26.4675 158.181 27.8952 157.523C28.3345 158.455 28.8836 159.359 29.5974 160.209C29.6798 160.319 29.7896 160.401 29.8994 160.483C29.872 160.538 29.8445 160.593 29.8171 160.648C29.2405 162.238 28.8287 163.224 30.5584 164.485C31.135 164.896 31.7664 165.116 32.343 164.705C32.9745 164.266 33.5785 163.827 34.21 163.389C34.2649 163.498 34.3747 163.608 34.4297 163.745C34.4022 163.992 34.3473 164.239 34.3473 164.485C34.21 166.952 33.0019 172.435 36.379 174.353C37.9989 175.285 40.113 174.792 42.1997 173.86C43.5725 175.614 44.9178 177.396 45.9886 179.287C46.6475 180.439 47.1966 181.617 47.7183 182.796C47.7732 182.906 47.8281 183.015 47.883 183.152C49.4206 186.853 50.3815 190.608 52.0563 194.446C54.5823 200.202 57.3553 206.288 56.4218 211.743C55.351 218.02 50.3815 222.269 44.9727 225.942C44.2863 226.38 43.5999 226.846 42.8861 227.285C41.1838 228.381 39.4266 229.478 37.7518 230.684C37.34 230.958 37.1478 231.342 37.1203 231.753C37.0929 231.89 37.1203 232.027 37.1478 232.164C34.3198 234.467 32.041 237.345 30.8604 240.662C29.57 244.335 29.3778 247.898 29.8171 251.434C29.7896 251.352 29.7347 251.297 29.7072 251.215C29.7347 251.462 29.8171 251.708 29.8445 251.955C29.8994 252.366 30.0093 252.778 30.0916 253.189C31.1624 259.301 33.6883 265.195 37.2851 270.513C40.5523 280.079 44.5334 289.591 46.977 299.295C47.3065 300.556 47.581 301.844 47.8556 303.132C47.4986 303.543 47.1143 303.955 46.6475 304.338C42.2546 307.875 35.6377 309.355 29.5425 311.383C23.8866 313.275 18.8347 315.659 14.6614 318.812C14.4143 319.004 14.1672 319.195 13.8927 319.415C13.7554 319.524 13.6181 319.634 13.4808 319.744C13.3435 319.853 13.2337 319.936 13.0964 320.045C12.7944 320.292 12.5199 320.511 12.2179 320.785C12.0531 320.922 11.8884 321.087 11.7237 321.224C11.4766 321.443 11.2294 321.69 10.9823 321.909C10.8176 322.074 10.6529 322.238 10.4881 322.403C10.4332 322.457 10.3783 322.512 10.3234 322.54C7.55036 321.635 4.72241 320.868 1.867 320.21V320.84V324.513V350.362V350.609V354.118V359.518V365.795V372.374V386.847V392.768V414.012V423.606V451.757V455.129C1.56498 455.321 1.31788 455.513 1.15315 455.65C0.356926 456.417 0.823676 457.048 1.867 457.404V458.336V461.132C1.53753 461.269 1.23551 461.461 0.906044 461.57C0.604029 462.091 0.274559 462.585 0 463.106C0.549117 463.297 1.1806 463.243 1.867 463.106ZM85.1406 477.963C84.7013 477.743 84.2895 477.497 83.8777 477.277C84.5915 477.332 85.3603 477.359 86.2663 477.277C85.8819 477.442 85.4976 477.688 85.1406 477.963ZM131.404 192.884C131.212 197.05 129.811 199.682 128.933 203.163C127.615 205.767 126.05 208.015 124.265 209.879C120.971 213.305 117.209 215.635 113.64 218.431C113.695 216.869 113.64 215.224 113.612 213.634C113.612 213.195 113.585 212.757 113.585 212.346C113.914 207.603 114.079 202.834 114.326 198.174C114.656 191.76 116.33 187.017 118.554 182.193C119.9 179.26 121.108 176.217 122.536 173.367C122.7 173.01 122.892 172.654 123.057 172.298C123.414 171.64 123.798 170.982 124.183 170.351C124.54 169.776 124.869 169.173 125.254 168.624C125.336 168.515 125.281 168.378 125.226 168.268C125.226 168.268 125.226 168.268 125.199 168.241C125.171 168.186 125.116 168.131 125.061 168.104C125.034 168.104 125.034 168.076 125.007 168.076C124.924 168.049 124.869 168.049 124.787 168.104C124.018 168.789 123.332 169.556 122.7 170.379C122.755 170.324 122.783 170.296 122.838 170.269C121.492 171.969 120.367 173.915 119.323 175.916C119.268 176.025 119.213 176.108 119.158 176.217C118.994 176.546 118.802 176.903 118.637 177.232C118.198 178.109 117.731 178.986 117.264 179.863C116.578 181.151 115.672 182.248 114.903 183.427C115.013 181.946 115.095 180.439 115.205 178.986C115.699 172.023 116.303 164.896 115.781 157.934C117.484 158.838 118.994 159.25 119.323 157.989C119.68 156.536 119.049 155.522 118.252 154.124C117.868 153.438 117.456 152.781 117.017 152.095C119.9 156.371 124.101 161.717 129.894 163.992C130.113 164.074 130.388 164.019 130.47 163.855C131.212 162.347 131.596 160.319 131.596 158.674C131.596 156.152 132.831 153.493 132.282 150.971C132.969 154.179 133.161 157.468 134.644 160.565C136.126 163.663 138.295 162.457 140.299 160.099C140.025 161.141 139.86 162.183 139.833 163.252C139.833 163.279 139.833 163.334 139.833 163.361C138.872 164.458 138.24 165.664 137.444 166.952C136.456 168.597 135.083 169.584 133.902 170.927C133.353 171.557 132.886 172.243 132.475 172.983C132.173 169.639 131.569 166.267 132.063 163.252C132.09 163.06 131.871 162.923 131.788 163.115C130.196 166.98 130.772 172.243 131.184 177.177C131.129 177.588 131.074 178.026 131.047 178.465C130.8 183.07 131.623 188.087 131.404 192.884ZM66.5256 209.276C63.9996 198.75 47.8281 186.908 53.8959 175.559C54.1979 175.998 54.6097 176.354 55.2137 176.574C57.6299 177.423 60.3205 173.613 61.1717 172.517C62.7641 170.516 64.1369 168.624 65.4273 166.678C64.8782 169.693 65.0979 172.517 68.0356 172.544C69.1339 172.544 70.3419 171.804 71.4951 170.762C71.9069 174.381 72.4286 178.136 73.4719 182.138C73.9936 184.084 74.4054 186.058 74.7898 188.004C74.9545 188.854 75.1192 189.731 75.284 190.608C75.5311 191.897 75.7782 193.185 76.0253 194.473C76.0253 194.912 76.0527 195.323 76.0527 195.762C76.0527 198.832 75.6135 201.765 74.625 204.232C72.9502 208.398 70.287 211.578 67.2943 214.429C67.212 212.675 66.9099 210.948 66.5256 209.276ZM90.4396 160.346C90.1651 161.196 89.918 162.046 89.5885 162.868C88.1333 166.294 85.6623 168.186 82.8893 170.242C82.5872 170.488 82.2578 170.735 81.9283 170.982V170.954C81.7636 171.064 81.6263 171.201 81.489 171.338C81.4066 171.393 81.3243 171.448 81.2419 171.53C81.3517 169.255 81.5988 167.007 82.0656 164.705C82.0656 164.677 82.0656 164.622 82.093 164.595C82.6421 164.567 83.1913 164.43 83.7129 164.184C86.2663 162.95 85.0583 159.77 82.9167 156.536C82.9167 156.152 82.8893 155.768 82.8618 155.385C82.8618 155.193 82.8343 154.973 82.8343 154.782C84.6739 156.125 86.5958 157.413 88.8746 158.318C89.4238 158.537 89.9454 158.263 90.0003 157.824C90.1651 156.317 89.3688 154.288 88.4903 152.479C91.3457 152.698 92.8557 148.806 93.652 145.544C94.256 147.326 94.86 149.107 95.2169 150.917C93.954 152.808 92.6361 154.727 91.6751 156.865C91.2084 157.934 90.824 159.14 90.4396 160.346ZM81.187 153.521C81.2144 153.74 81.2694 153.932 81.2694 154.151C80.9124 153.685 80.5555 153.219 80.1986 152.781C80.528 153.027 80.8575 153.274 81.187 153.521ZM93.7069 258.835C93.4872 259.301 93.295 259.795 93.0479 260.261C92.6361 261.028 92.1968 261.714 91.73 262.344C90.6593 263.824 89.3688 264.921 87.6117 265.359C85.1406 265.99 82.5323 266.319 80.226 267.772C76.0802 270.348 71.1931 273.857 68.3651 279.421C68.1455 279.86 67.9807 280.326 67.7611 280.765C67.7611 280.765 67.7611 280.737 67.7336 280.737C67.6238 280.956 67.5414 281.203 67.4316 281.45C64.9057 276.269 62.1875 271.116 59.9087 265.88C58.5084 262.7 57.8221 259.685 57.4651 256.725C59.0301 252.229 61.1442 248.118 63.9722 244.554C66.9649 240.826 70.0399 237.537 72.154 234.055C73.2522 232.274 74.4603 230.492 75.2565 228.436C79.8966 225.147 83.2736 219.911 84.3444 212.949C85.5799 204.835 84.0149 196.31 82.6422 188.443C82.45 187.429 82.2852 186.414 82.1479 185.4C82.2852 183.673 82.4774 182.001 82.9442 180.521C84.2895 176.19 87.09 173.504 90.3298 171.119C93.295 168.926 96.3426 167.254 98.4293 163.937C99.7197 161.881 100.736 159.606 101.944 157.468C102.081 157.249 102.191 157.002 102.328 156.783C102.63 156.262 102.959 155.796 103.289 155.33C103.673 154.782 104.058 154.233 104.497 153.74C104.607 153.63 104.387 153.384 104.277 153.493C101.093 156.18 99.1706 159.935 96.5623 163.142C95.0797 164.979 93.2676 166.185 91.3457 167.254C91.7026 166.404 91.9222 165.472 92.0046 164.43C92.1968 161.799 92.3615 159.277 93.295 157.084C93.9814 155.522 94.7502 154.014 95.4915 152.506C95.7386 153.658 97.0839 153.987 98.3195 154.206C100.296 154.562 102.905 150.752 103.399 149.683C104.03 148.23 104.387 146.832 104.634 145.379C105.705 148.587 107.49 151.712 110.263 154.124C110.373 154.233 112.569 156.097 114.766 157.441C114.216 160.593 113.503 163.718 113.036 166.98C112.816 168.487 112.706 170.022 112.569 171.585C112.459 173.23 112.349 174.874 112.212 176.546C111.196 183.92 110.29 191.321 109.549 198.75C109.082 203.272 108.423 207.686 107.792 212.181C107.764 212.483 107.709 212.784 107.682 213.058C107.298 214.511 106.858 215.964 106.391 217.362C105.431 220.268 104.415 223.146 103.152 225.695C102.548 226.901 101.806 227.97 101.147 229.149C93.5421 234.439 93.6245 249.159 93.7069 258.835ZM145.955 167.254C142.139 170.269 139.009 174.929 137.005 179.753C135.467 183.454 134.506 187.621 133.408 191.705C133.326 188.69 133.051 185.674 132.886 183.015C132.722 180.521 132.529 177.698 133.216 175.614C133.875 173.668 135.028 172.435 136.291 171.119C138.13 169.2 139.009 167.089 139.915 164.513C140.052 165.39 140.464 166.24 141.535 166.87C142.908 167.665 144.418 167.665 145.955 167.254ZM144.198 181.398C144.116 182.248 144.665 183.317 145.571 184.03C145.379 184.468 145.214 184.907 145.022 185.345C143.347 189.375 140.821 192.856 138.021 194.967C137.115 195.652 136.263 196.365 135.412 197.105C136.648 192.609 137.636 188.004 138.762 183.399C140.464 176.354 143.265 171.009 147.932 166.897C148.069 166.788 148.069 166.651 148.042 166.486C150.431 165.335 152.764 163.389 154.659 161.717C153.039 164.211 151.172 166.815 150.952 169.31C150.65 169.666 150.348 170.022 150.101 170.351C147.328 173.723 144.61 177.286 144.198 181.398ZM147.273 430.568C146.257 430.842 145.351 431.089 144.637 431.281C144.363 431.308 144.088 431.363 143.786 431.445C144.637 430.952 144.967 430.102 145.571 429.444C146.093 429.828 146.669 430.212 147.273 430.568ZM49.3107 174.216C49.3107 174.189 49.3107 174.189 49.3107 174.189V174.216C49.0911 172.791 48.8989 171.393 48.6243 169.995C50.3266 168.926 51.7268 167.665 52.9624 166.322C52.5505 168.186 51.919 169.913 50.9306 171.475C50.3815 172.352 49.8049 173.257 49.3107 174.216ZM43.9294 172.955C44.6707 172.544 45.412 172.106 46.0435 171.694C46.1533 173.147 46.2357 174.573 46.318 176.08C45.5493 175.011 44.7531 173.97 43.9294 172.955ZM153.972 209.413C153.533 210.454 153.066 211.496 152.627 212.51C152.105 213.36 151.584 214.155 151.007 214.922C150.211 215.991 149.415 217.06 148.591 218.102C148.783 217.362 148.948 216.622 149.085 215.909C150.129 210.811 151.172 204.753 150.925 199.106C150.925 198.777 150.568 198.667 150.513 198.969C149.525 203.601 149.36 208.782 148.426 213.497C147.932 215.991 147.356 218.513 146.504 220.624C144.088 223.42 141.535 225.859 138.872 227.367C136.099 228.957 133.051 229.724 129.756 228.93C127.066 228.299 124.265 227.203 121.492 226.874C120.888 226.791 120.284 226.764 119.653 226.737C119.296 226.709 118.939 226.737 118.582 226.737C118.307 226.737 118.033 226.737 117.758 226.737C117.429 226.764 117.099 226.791 116.77 226.819C116.468 226.846 116.166 226.874 115.864 226.929C115.617 226.956 115.397 227.011 115.15 227.066C115.452 226.627 115.754 226.134 116.083 225.722C117.648 224.955 119.049 223.365 120.339 222.132C120.559 221.912 120.751 221.72 120.971 221.501C122.838 220.432 124.787 219.555 126.489 218.075C128.356 216.457 129.921 214.374 130.964 211.331C131.651 209.276 132.529 206.863 133.106 204.424C133.161 204.287 133.216 204.122 133.271 203.985C135.248 203.19 137.087 200.202 138.405 198.722C139.339 197.653 140.272 196.584 141.123 195.46C141.233 195.597 141.37 195.679 141.535 195.734C147.301 196.858 151.776 191.705 156.032 187.072C156.306 186.771 155.977 186.168 155.702 186.414C151.474 189.896 147.548 192.226 142.825 193.021C143.375 192.089 143.924 191.102 144.39 189.978C145.159 188.196 145.928 186.36 146.752 184.605C147.163 184.742 147.603 184.825 148.069 184.77C152.6 184.386 154.961 182.961 157.734 181.343C156.773 183.509 156.114 185.674 156.334 188.251C156.553 190.663 156.444 194.556 159.244 196.447C159.052 197.05 158.887 197.653 158.695 198.256C156.855 201.765 155.51 205.712 153.972 209.413Z" fill="#005344" fill-opacity="0.2"/>
<path d="M810.05 406.857C809.611 406.994 808.265 407.515 810.05 406.857V406.857Z" fill="#005344" fill-opacity="0.2"/>
<path d="M691.962 458.171C691.083 458.994 693.554 456.636 691.962 458.171V458.171Z" fill="#005344" fill-opacity="0.2"/>
<path d="M286.309 73.3422C286.007 73.4244 285.788 73.5341 285.623 73.6437C285.403 73.8082 285.321 73.9727 285.321 73.9727C285.321 73.9727 285.211 74.0549 285.184 74.1919C285.211 74.329 285.294 74.4386 285.294 74.4386C285.294 74.4386 285.348 74.6031 285.568 74.795C285.596 74.8224 285.65 74.8498 285.678 74.9046C285.65 74.9321 285.623 74.9595 285.596 74.9869C285.376 75.2336 285.294 75.4803 285.294 75.4803C285.294 75.4803 285.184 75.6173 285.156 75.8366C285.184 76.0559 285.266 76.193 285.266 76.193C285.266 76.193 285.321 76.4397 285.541 76.7138C285.76 76.9879 286.117 77.2894 286.666 77.4265C286.309 77.6184 286.09 77.8651 285.952 78.1118C285.788 78.4133 285.733 78.66 285.733 78.66C285.733 78.66 285.65 78.7971 285.65 79.0164C285.705 79.2082 285.815 79.3453 285.815 79.3453C285.815 79.3453 285.925 79.5646 286.145 79.8113C286.392 80.058 286.804 80.3321 287.408 80.3595C287.161 80.4143 286.996 80.4692 286.913 80.4692H286.886C286.145 80.6885 285.788 81.1545 285.596 81.5382C285.458 81.8397 285.458 82.0864 285.458 82.0864C285.458 82.0864 285.403 82.2509 285.431 82.4428C285.513 82.6347 285.65 82.7443 285.65 82.7443C285.65 82.7443 285.788 82.9636 286.062 83.1555C286.392 83.4022 286.941 83.6489 287.71 83.4844C287.792 83.457 288.094 83.3748 288.533 83.2651C288.753 83.0458 289.165 82.6621 289.384 82.4702C289.412 82.4702 289.412 82.4428 289.439 82.4428L289.467 82.4154C289.494 82.4154 289.494 82.388 289.494 82.388C289.522 82.388 289.522 82.3606 289.522 82.388C289.33 82.6621 289.137 82.9088 288.945 83.1555C289.137 83.1007 289.357 83.0184 289.604 82.9636C289.879 82.6895 290.538 82.2783 290.51 82.3057C290.373 82.4702 290.263 82.6347 290.153 82.7991C290.236 82.7717 290.345 82.7443 290.428 82.7169C290.373 82.7443 290.318 82.7717 290.263 82.7991C290.62 82.8265 291.334 83.0458 291.306 83.0458C290.922 83.0733 290.565 83.1007 290.181 83.1007C289.988 83.1007 289.796 83.1281 289.632 83.1281C289.577 83.1281 289.549 83.1281 289.494 83.1281C288.918 83.3748 288.506 83.5667 288.369 83.6215C288.369 83.6215 288.341 83.6215 288.341 83.6489C287.655 84.0052 287.38 84.5535 287.298 84.9646C287.215 85.2936 287.243 85.5403 287.243 85.5403C287.243 85.5403 287.215 85.7048 287.27 85.8966C287.38 86.0611 287.545 86.1433 287.545 86.1433C287.545 86.1433 287.71 86.3352 288.012 86.4723C288.396 86.6642 288.973 86.7738 289.686 86.4723C289.741 86.4449 289.879 86.39 290.071 86.2804C289.796 86.6367 289.714 87.0205 289.714 87.2946C289.686 87.6236 289.769 87.8703 289.769 87.8703C289.769 87.8703 289.769 88.0347 289.879 88.2266C290.016 88.3637 290.181 88.4459 290.181 88.4459C290.181 88.4459 290.373 88.583 290.702 88.6926C291.114 88.8022 291.691 88.8297 292.322 88.4185C292.405 88.3637 292.652 88.1992 292.981 87.9251C293.091 87.6784 293.283 87.2946 293.42 87.0205C293.42 86.9931 293.448 86.9657 293.448 86.9383V86.9109C293.475 86.8834 293.475 86.8286 293.503 86.8012C293.503 86.8012 293.503 86.7738 293.53 86.7738C293.53 86.7464 293.558 86.7464 293.558 86.719C293.558 86.6916 293.585 86.6916 293.585 86.6916C293.503 86.9931 293.42 87.2946 293.338 87.6236C293.503 87.4865 293.668 87.3494 293.86 87.2124C293.997 86.856 294.464 86.2256 294.464 86.2804C294.409 86.4723 294.354 86.6642 294.299 86.8834C295.04 86.3078 295.946 85.5951 296.907 84.8276C296.935 84.855 296.962 84.855 296.99 84.8824C297.209 84.7728 297.402 84.6357 297.594 84.5261C297.649 84.4712 297.731 84.4438 297.786 84.389C297.923 84.3068 298.033 84.2245 298.17 84.1149C298.253 84.0601 298.335 84.0052 298.39 83.9504C298.5 83.8682 298.61 83.7859 298.719 83.6763C298.774 83.6215 298.829 83.5941 298.884 83.5392C298.912 83.5118 298.939 83.5118 298.939 83.4844C298.967 83.457 298.967 83.457 298.994 83.4296C299.186 83.2651 299.351 83.1281 299.543 82.9636C299.598 82.9088 299.653 82.8814 299.68 82.8265C299.845 82.6621 300.037 82.4976 300.202 82.3331L300.23 82.3057C300.312 82.2235 300.422 82.1687 300.504 82.0864C300.724 82.3606 300.998 82.6073 301.3 82.7991C301.575 82.991 301.849 83.1555 302.124 83.2925C302.097 83.6215 302.289 83.9504 302.701 83.9504C302.948 83.9504 303.167 83.923 303.414 83.8682C303.469 83.8956 303.524 83.923 303.579 83.923C303.607 83.923 303.662 83.9504 303.689 83.9504C303.469 84.1697 303.25 84.389 303.03 84.6357C302.426 85.3484 301.959 86.1707 301.63 87.0479C301.438 87.5687 301.328 88.117 301.685 88.583C302.042 89.0489 302.673 88.8845 303.25 88.6104C303.222 88.6378 303.195 88.6652 303.167 88.72C302.838 89.1312 302.344 89.7068 302.563 90.2825C302.646 90.5292 302.865 90.721 303.14 90.7485C303.634 90.8033 304.156 90.6662 304.677 90.4469C304.348 90.8307 304.128 91.2419 303.826 91.653C303.607 91.9546 303.442 92.2561 303.661 92.6124C303.716 92.6947 303.799 92.7769 303.909 92.7495C304.266 92.6947 304.54 92.448 304.842 92.2835C305.172 92.0916 305.638 91.982 305.968 91.7901C306.105 91.7079 306.27 91.6256 306.407 91.5434C306.023 91.9546 305.693 92.3931 305.364 92.8866C304.87 93.6267 304.485 94.5861 305.089 95.381C305.666 96.1211 307.286 94.7231 307.752 94.4216C307.807 94.3942 307.835 94.3668 307.89 94.3394C307.725 94.6135 307.56 94.8876 307.423 95.1617C306.984 96.0115 305.583 98.0673 306.874 98.8622C307.78 99.4105 308.851 98.5059 309.592 98.0399C310.031 97.7658 310.498 97.4917 310.937 97.1901C310.91 97.2176 310.882 97.245 310.882 97.2724C310.443 97.9028 309.949 98.4785 309.647 99.1912C309.482 99.6024 309.208 100.041 309.29 100.48C309.482 101.439 310.718 100.562 311.239 100.178C310.992 100.534 310.827 100.891 310.745 101.274C310.525 102.234 311.459 102.755 312.31 102.426C312.777 102.261 313.161 101.823 313.546 101.521C313.601 101.466 313.655 101.439 313.71 101.384C313.628 101.466 313.573 101.549 313.491 101.658C313.051 102.234 312.283 103.385 312.969 104.07C313.463 104.536 314.314 103.577 314.589 103.275C315.083 102.755 315.522 102.179 316.017 101.631C315.797 101.96 315.55 102.316 315.358 102.672C315.056 103.221 314.342 104.317 314.754 104.975C315.275 105.88 316.374 104.92 316.978 104.399C316.785 104.92 316.758 105.468 317.115 105.907C317.499 106.373 318.048 106.373 318.597 106.154C318.927 106.017 319.229 105.825 319.558 105.66C319.888 105.496 320.245 105.386 320.547 105.194C320.794 105.03 321.041 104.865 321.233 104.673C321.014 105.057 320.821 105.468 320.629 105.852C320.327 106.565 319.641 107.881 320.162 108.621C320.41 109.004 320.931 108.922 321.316 108.785C322.029 108.511 322.579 107.661 322.99 107.031C323.375 106.428 323.732 105.797 324.061 105.167C323.759 105.907 323.512 106.675 323.32 107.469C323.238 107.881 322.606 111.225 323.951 110.896C324.748 110.704 325.214 109.964 325.626 109.306C326.203 108.374 326.697 107.387 327.109 106.373C327.191 106.181 327.274 105.962 327.356 105.77C327.301 106.044 327.246 106.318 327.191 106.592C326.972 107.689 326.779 108.785 326.67 109.882C326.615 110.375 326.505 111.033 326.724 111.499C326.944 111.965 327.438 111.992 327.768 111.581C328.399 110.786 328.454 109.717 328.674 108.758C328.893 107.935 329.086 107.113 329.278 106.291C329.278 106.866 329.305 107.442 329.333 108.045C329.443 109.47 329.47 111.472 330.678 112.486C331.227 112.952 332.051 112.869 332.545 112.294C333.122 111.609 333.396 110.786 333.533 109.909C333.561 109.799 333.561 109.69 333.588 109.58C333.616 109.717 333.643 109.854 333.698 109.991C333.835 110.485 334 111.115 334.302 111.526C334.467 111.746 334.851 112.102 335.153 111.828C335.62 111.444 335.675 110.896 335.675 110.348C335.675 109.279 335.675 108.182 335.51 107.113C336.169 108.648 336.746 110.211 337.652 111.609C337.871 111.965 338.201 112.541 338.668 112.623C339.244 112.732 339.382 111.938 339.409 111.499C339.464 110.704 339.354 109.882 339.217 109.087C339.162 108.676 339.08 108.264 338.97 107.853C338.97 107.798 338.942 107.771 338.942 107.716C338.86 107.415 338.805 107.141 338.723 106.839C338.805 106.921 338.887 107.003 338.97 107.086C339.327 107.442 339.711 107.798 340.15 108.1C340.452 108.319 340.919 108.703 341.331 108.676C342.676 108.621 341.166 105.523 340.919 105.03C340.397 104.043 339.848 103.084 339.217 102.179C339.162 102.097 339.107 102.042 339.052 101.96C339.684 102.398 340.343 102.782 341.056 103.111C341.935 103.522 342.814 103.933 343.775 104.098C344.324 104.207 345.065 104.509 345.559 104.153C345.642 104.098 345.532 103.906 345.449 103.879C340.15 101.192 335.565 97.2724 331.968 92.585C330.047 90.118 328.509 87.4865 327.383 84.5809C327.328 84.4438 327.274 84.3342 327.246 84.1971C329.25 83.6215 331.419 83.0184 332.353 82.7717C332.655 82.6895 332.984 82.6073 333.286 82.525C333.286 82.525 333.286 82.525 333.314 82.525C333.369 82.4976 333.424 82.4976 333.479 82.4702C333.588 82.4428 333.698 82.4154 333.781 82.3606C333.835 82.3331 333.89 82.3331 333.945 82.3057C334.055 82.2783 334.165 82.2235 334.275 82.1687C334.302 82.1413 334.357 82.1413 334.385 82.1138C334.522 82.059 334.687 81.9768 334.824 81.8946C334.851 81.8946 334.851 81.8671 334.879 81.8671C334.989 81.8123 335.126 81.7301 335.236 81.6479C335.263 81.6204 335.318 81.593 335.346 81.5656C335.346 81.5656 335.373 81.5656 335.373 81.5382C338.009 81.9494 339.848 81.2641 340.343 81.0448C340.397 81.0996 340.452 81.127 340.48 81.1819C340.562 81.3189 340.645 81.4286 340.645 81.456C340.727 81.5382 340.754 81.1819 340.754 81.1819C340.754 81.0996 340.754 81.0174 340.754 80.9352C340.754 80.9626 340.754 80.99 340.754 80.99C340.754 80.9077 340.727 80.8529 340.727 80.7707C340.727 80.7159 340.727 80.6336 340.727 80.5788C340.727 80.5514 340.727 80.524 340.699 80.4692C340.672 80.3595 340.645 80.2773 340.645 80.1676C340.617 80.0854 340.617 80.0032 340.59 79.9209C340.562 79.8113 340.507 79.7291 340.48 79.6468C340.452 79.592 340.425 79.5098 340.397 79.4549C340.343 79.3727 340.288 79.2905 340.26 79.2082C340.233 79.1534 340.178 79.0986 340.15 79.0438C340.095 78.9615 340.041 78.9067 339.958 78.8245C339.903 78.7697 339.876 78.7148 339.821 78.6874C339.766 78.6326 339.684 78.5504 339.601 78.4955C339.546 78.4407 339.519 78.4133 339.464 78.3585C339.382 78.3037 339.327 78.2488 339.244 78.194C339.189 78.1666 339.134 78.1118 339.107 78.0844C339.025 78.0295 338.942 78.0021 338.887 77.9473C338.832 77.9199 338.778 77.8925 338.75 77.8651C338.668 77.8103 338.585 77.7828 338.503 77.7554C338.448 77.728 338.393 77.7006 338.366 77.6732C338.283 77.6458 338.201 77.6184 338.146 77.591C338.119 77.591 338.091 77.5636 338.064 77.5636C338.064 77.5636 338.064 77.5636 338.036 77.5636H338.009C337.981 77.5636 337.954 77.5361 337.899 77.5361C337.844 77.5087 337.762 77.4813 337.707 77.4813C337.679 77.4813 337.679 77.4813 337.652 77.4539C337.624 77.4539 337.597 77.4539 337.569 77.4265C337.515 77.3991 337.46 77.3991 337.405 77.3717C337.377 77.3717 337.35 77.3717 337.35 77.3443H337.322C337.24 77.3168 337.158 77.3168 337.103 77.2894C337.075 77.2894 337.075 77.2894 337.048 77.2894C336.993 77.2894 336.965 77.262 336.938 77.262H336.911C336.883 77.262 336.883 77.262 336.883 77.262C336.856 77.262 336.828 77.262 336.801 77.262C336.773 77.262 336.773 77.262 336.773 77.262C336.636 77.0153 336.499 76.7686 336.307 76.6041C336.169 76.4671 336.032 76.33 335.867 76.2204C335.812 76.193 335.785 76.1656 335.73 76.1107C335.62 76.0285 335.51 75.9463 335.4 75.8915C335.346 75.864 335.291 75.8366 335.236 75.7818C335.126 75.727 335.044 75.6722 334.934 75.6173C334.879 75.5899 334.824 75.5625 334.769 75.5351C334.659 75.4803 334.577 75.4529 334.467 75.4255C334.44 75.4255 334.412 75.398 334.385 75.398C334.385 75.398 334.385 75.398 334.412 75.398C333.918 75.2062 333.479 75.0965 333.122 75.0691C332.792 75.0143 330.266 74.8498 327.685 74.6854C327.493 74.6854 327.274 74.6579 327.081 74.6579C326.56 74.6305 326.065 74.6031 325.599 74.5483C325.626 74.3564 325.654 74.1371 325.709 73.9178C325.846 73.6163 327.548 69.1482 329.113 64.6802C329.305 64.1868 329.47 63.7208 329.635 63.2274C330.815 59.8009 331.831 56.6212 331.914 55.6618C331.996 54.6202 331.996 53.6059 331.721 52.5917C331.666 52.3998 331.612 52.2354 331.557 52.0435C331.447 51.0293 331.31 49.9876 331.2 48.9734C331.117 48.2333 331.035 47.5206 330.925 46.8079C330.925 46.8079 330.925 46.8079 330.925 46.8353C330.925 46.8079 330.925 46.8079 330.925 46.7805C330.925 46.7257 330.898 46.6709 330.898 46.616C330.788 45.9033 330.678 45.1906 330.541 44.5054C330.404 43.8201 330.239 43.1622 330.019 42.5043C329.854 42.0657 329.745 41.6271 329.47 41.2708C329.415 41.1886 329.278 41.1063 329.195 41.216C329.058 41.4353 329.031 41.7916 329.031 42.0383C329.003 42.5865 328.866 43.1348 328.839 43.683C328.756 44.8069 328.701 45.9033 328.701 47.0272C328.701 47.4658 328.701 47.9318 328.674 48.3704C328.619 48.2333 328.537 48.0688 328.482 47.9318C328.482 47.877 328.454 47.7947 328.454 47.7399C328.234 46.7257 327.987 45.7115 327.713 44.7246C327.438 43.7378 327.136 42.7784 326.834 41.819C326.587 41.0241 326.313 40.1469 325.763 39.5165C325.352 38.9956 325.159 39.9276 325.077 40.1743C324.775 41.1337 324.555 42.0931 324.555 43.08C324.555 43.5185 324.583 43.9845 324.61 44.4505C324.446 43.7104 324.281 42.9977 324.034 42.285C323.924 41.9013 322.99 38.6119 322.249 39.1875C321.92 39.4342 321.782 40.421 321.727 40.8048C321.563 41.8464 321.59 42.8881 321.645 43.9297C321.673 44.4779 321.727 45.0262 321.782 45.5744C321.508 44.5328 321.206 43.4911 320.849 42.4495C320.712 42.0383 320.629 41.4079 320.245 41.1337C319.888 40.887 319.723 41.7094 319.696 41.8739C319.558 42.6688 319.284 43.4911 319.311 44.3135C319.311 45.0536 319.449 45.7937 319.613 46.5338C319.476 46.1774 319.311 45.8211 319.119 45.4922C318.79 44.8617 318.048 42.6688 317.197 44.0119C316.73 44.7246 316.648 45.547 316.676 46.3693C316.648 46.3419 316.621 46.3145 316.593 46.2871C316.538 46.2597 316.483 46.2323 316.428 46.2597C316.017 46.5064 316.017 47.3287 315.989 47.7399C315.962 48.3155 315.989 48.946 316.044 49.5216C315.879 49.0557 315.632 48.48 315.385 48.6993C314.863 49.1927 315.111 50.5907 315.193 51.1937C315.193 51.2212 315.193 51.2212 315.193 51.2486C315.165 51.1937 315.138 51.1389 315.083 51.0841C314.671 50.4536 314.122 50.7552 314.067 51.4404C314.04 52.0983 313.93 52.7014 313.985 53.3592C314.012 53.8801 314.067 54.3735 314.15 54.8943C313.573 53.6608 312.969 52.5917 312.612 52.7836C312.31 52.9481 312.338 53.5237 312.338 53.8252C312.338 54.3735 312.338 54.9491 312.365 55.5248C312.365 55.5522 312.365 55.607 312.365 55.6344C311.926 55.4425 311.596 55.4151 311.486 55.6618C311.267 56.1004 311.514 56.7309 311.788 57.1968C311.184 57.142 310.251 57.142 309.949 57.608C309.812 57.7999 309.812 57.9918 309.894 58.1562C309.592 58.2659 309.345 58.4578 309.18 58.7593C308.96 59.1156 309.208 59.5268 309.537 59.8558C309.372 59.9106 309.18 59.9654 309.015 60.0476C308.604 60.2395 307.972 60.5136 307.78 60.9522C307.615 61.336 307.752 61.6101 308 61.802C307.752 61.939 307.56 62.1309 307.45 62.3228C307.286 62.7065 307.423 63.0081 307.698 63.2274C307.478 63.3644 307.176 63.5563 307.148 63.8304C307.148 63.9127 307.148 63.9949 307.203 64.0771C306.846 64.3238 306.627 64.6802 307.176 64.9543C307.203 64.9817 307.258 64.9817 307.286 65.0091C307.066 65.1462 306.874 65.338 306.737 65.5025C306.489 65.8315 306.023 66.2426 306.242 66.6812C306.27 66.736 306.297 66.7634 306.325 66.7909C306.435 66.9279 306.599 67.0101 306.791 67.065C306.682 67.1472 306.599 67.2294 306.517 67.3117C306.187 67.668 305.611 68.3259 305.693 68.8741C305.748 69.2579 305.968 69.532 306.297 69.7239C305.748 70.2447 305.391 71.0122 305.364 71.7249C305.336 72.0539 305.446 72.3554 305.638 72.6021C304.924 72.7117 304.183 72.8488 303.469 73.0133C303.25 73.0955 303.03 73.2051 302.81 73.3148C302.261 73.0133 301.74 72.6569 301.218 72.328C300.257 71.7249 299.351 71.067 298.417 70.464C298.17 70.2995 297.896 70.135 297.621 69.9706C297.539 69.9706 297.511 69.9706 297.456 69.998C297.264 69.8609 297.1 69.7513 296.907 69.6416C296.688 69.5046 296.468 69.3949 296.248 69.3127C296.139 69.3127 296.029 69.3127 295.974 69.3401C295.782 69.3675 295.699 69.4498 295.699 69.4498C295.068 69.0934 294.436 68.7371 293.86 68.4355C293.915 68.5178 293.97 68.7645 293.942 68.7371C293.722 68.5452 293.503 68.3259 293.283 68.1066C292.926 67.9147 292.624 67.7228 292.322 67.5584C292.542 67.8051 292.871 68.3807 292.844 68.3533C292.569 68.1066 292.295 67.8599 292.048 67.6132L291.965 67.531C291.828 67.3939 291.718 67.2843 291.581 67.1472C291.004 66.8457 290.62 66.6264 290.51 66.5441C290.51 66.5441 290.483 66.5441 290.483 66.5167C289.769 66.1604 289.247 66.1604 288.918 66.2426C288.643 66.2974 288.506 66.4071 288.506 66.4071C288.506 66.4071 288.369 66.4345 288.286 66.5441C288.259 66.6812 288.286 66.8183 288.286 66.8183C288.286 66.8183 288.286 66.9827 288.396 67.2568C288.533 67.5584 288.835 67.997 289.522 68.3807C289.604 68.4355 289.879 68.5726 290.29 68.7645C290.51 68.7919 290.895 68.8467 291.169 68.8741C291.334 68.9015 291.471 68.9289 291.526 68.9289C291.553 68.9289 291.553 68.9289 291.553 68.9289C291.279 68.9289 290.977 68.9289 290.702 68.9564C290.895 69.0386 291.114 69.1482 291.334 69.2579C291.691 69.2853 292.432 69.5046 292.405 69.5046C292.212 69.5046 292.02 69.5046 291.855 69.5046C292.405 69.7787 293.036 70.0802 293.695 70.4092C293.256 70.2173 292.816 69.998 292.405 69.8335C292.46 69.9432 292.514 70.2721 292.487 70.2447C292.24 70.0254 292.02 69.8061 291.801 69.5594C291.416 69.3949 291.087 69.2305 290.757 69.0934C290.977 69.3675 291.334 70.0802 291.306 70.0528C291.004 69.7787 290.73 69.5046 290.455 69.2305L290.043 68.8193C290.016 68.7919 289.988 68.7645 289.934 68.7097C289.33 68.4355 288.918 68.2437 288.753 68.1888H288.725C287.957 67.9147 287.353 68.0518 286.968 68.2711C286.666 68.4355 286.502 68.6274 286.502 68.6274C286.502 68.6274 286.364 68.7097 286.254 68.9015C286.2 69.1208 286.254 69.2853 286.254 69.2853C286.254 69.2853 286.227 69.532 286.337 69.8609C286.392 70.0802 286.529 70.2995 286.721 70.5462C286.392 70.601 286.145 70.7381 285.952 70.8752C285.678 71.067 285.541 71.2863 285.541 71.2863C285.541 71.2863 285.403 71.396 285.321 71.5879C285.294 71.8071 285.348 71.9442 285.348 71.9442C285.348 71.9442 285.376 72.1909 285.513 72.5198C285.513 72.7117 285.788 73.0681 286.309 73.3422ZM291.279 84.9372C291.224 85.0743 291.142 85.2388 291.087 85.4032C290.977 85.4855 290.867 85.5403 290.785 85.5951C290.895 85.4306 291.004 85.2936 291.114 85.1565L291.142 85.1291C291.142 85.1291 291.142 85.1017 291.169 85.1017C291.197 85.0469 291.251 84.9646 291.279 84.9372ZM288.863 73.397C288.89 73.397 288.89 73.397 288.863 73.397C288.863 73.4244 288.808 73.4244 288.78 73.4518L288.725 73.4244C288.725 73.4244 288.753 73.4244 288.78 73.4244H288.808C288.835 73.397 288.863 73.397 288.863 73.397ZM289.192 76.8234C289.082 76.9057 288.945 77.0153 288.835 77.0976C288.78 77.0976 288.753 77.0701 288.698 77.0701C288.698 77.0701 288.698 77.0701 288.671 77.0701C288.973 76.9057 289.22 76.8234 289.192 76.8234ZM291.883 85.0195C292.075 84.8002 292.295 84.6357 292.267 84.6631C292.212 84.7728 292.157 84.8824 292.103 84.9921C292.02 84.9921 291.965 85.0195 291.883 85.0195ZM293.009 84.6631C293.173 84.6905 293.311 84.6905 293.283 84.6905C293.091 84.7454 292.871 84.8002 292.679 84.8276C292.789 84.8002 292.899 84.7454 293.009 84.6631ZM289.384 71.2863C289.357 71.2589 289.33 71.2589 289.302 71.2315C289.439 71.2315 289.549 71.2041 289.604 71.2041C289.632 71.2041 289.632 71.2041 289.632 71.2041C289.549 71.2315 289.467 71.2589 289.384 71.2863ZM290.126 71.7249C290.153 71.7797 290.181 71.8346 290.208 71.862H290.181C290.126 71.8071 290.043 71.7523 289.988 71.7249C290.016 71.7249 290.071 71.7249 290.126 71.7249ZM290.318 77.5361C290.181 77.5087 290.043 77.4539 289.879 77.4265C289.961 77.4265 290.071 77.4265 290.153 77.4265C290.263 77.4813 290.318 77.5361 290.318 77.5361ZM289.439 77.262C289.549 77.2072 289.686 77.1798 289.796 77.125C289.851 77.1524 289.879 77.1798 289.934 77.2072C289.879 77.262 289.824 77.2894 289.769 77.3443C289.659 77.3443 289.549 77.3168 289.439 77.262ZM290.949 79.8661C290.84 79.8661 290.702 79.8387 290.592 79.8113C290.702 79.7839 290.785 79.7839 290.895 79.7565C290.949 79.8113 290.977 79.8661 290.949 79.8661ZM290.071 79.7291C290.373 79.5646 290.675 79.4275 290.647 79.4549C290.538 79.5646 290.428 79.6742 290.318 79.7839C290.236 79.7565 290.153 79.7291 290.071 79.7291ZM288.423 80.1676C288.478 80.1676 288.506 80.1402 288.561 80.1402C288.753 80.0032 289.055 79.7565 289.302 79.592C289.357 79.5646 289.384 79.5372 289.439 79.5098C289.467 79.4824 289.494 79.4824 289.494 79.4549C289.522 79.4549 289.522 79.4275 289.549 79.4275C289.577 79.4001 289.577 79.4001 289.604 79.4001C289.604 79.4001 289.632 79.4001 289.632 79.3727C289.659 79.3727 289.659 79.3453 289.659 79.3727C289.494 79.5372 289.33 79.7291 289.192 79.8935C289.11 79.9209 289.055 79.9209 288.973 79.9483C289 79.9483 289.055 79.9758 289.11 80.0032C289.082 80.0306 289.055 80.058 289.028 80.0854C289.082 80.0854 289.165 80.058 289.247 80.058C289.577 80.195 289.988 80.4143 289.934 80.4143C289.549 80.3869 289.192 80.3047 288.808 80.2499C288.698 80.195 288.561 80.1951 288.423 80.1676ZM291.636 82.2783C291.773 82.2235 291.938 82.1961 292.103 82.1413C292.185 82.1961 292.267 82.2509 292.24 82.2509C292.02 82.2783 291.828 82.2783 291.636 82.2783Z" fill="#005344" fill-opacity="0.2"/>
<path d="M163.747 416.835C163.72 416.725 163.72 416.643 163.692 416.533C163.637 416.177 163.61 415.821 163.582 415.464C163.582 415.355 163.555 415.273 163.555 415.163C163.527 414.779 163.5 414.368 163.5 413.984C163.5 413.929 163.5 413.875 163.5 413.847C163.5 412.614 163.665 411.435 164.104 410.448C164.433 409.653 164.9 409.078 165.449 408.612C165.422 408.474 165.422 408.337 165.532 408.228C167.454 406.035 170.446 405.651 173.11 404.719C177.228 403.266 180.44 400.416 182.499 396.605C185.382 391.26 185.19 384.215 185.382 378.185C185.108 378.349 184.861 378.514 184.586 378.678C184.257 378.843 183.927 378.98 183.598 379.117C183.323 379.226 183.076 379.336 182.801 379.418C182.472 379.528 182.143 379.61 181.786 379.692C181.593 379.747 181.374 379.83 181.182 379.857L181.209 379.83C181.017 379.857 180.825 379.939 180.632 379.967C180.55 379.994 180.44 379.857 180.523 379.775C182.637 378.13 181.95 374.649 181.511 372.401C181.017 369.961 180.028 367.796 179.919 365.274C179.864 363.931 180.028 362.752 180.687 361.656C180.66 361.683 180.632 361.711 180.605 361.738C179.974 362.259 179.726 363.109 179.177 363.712C179.067 363.849 178.875 363.629 178.848 363.52C178.463 360.943 179.919 358.12 181.236 356.009C182.307 354.282 183.762 352.528 185.575 351.568C185.41 351.514 185.245 351.322 185.327 351.185C186.59 348.69 189.775 346.799 192.191 345.538C193.756 344.715 195.459 344.222 197.161 343.756C197.655 343.619 198.122 343.482 198.616 343.345C198.946 343.098 199.248 342.824 199.604 342.605C202.872 340.357 206.414 338.849 210.12 337.917C210.093 337.917 210.065 337.917 210.01 337.917C210.148 337.89 210.312 337.863 210.45 337.835C211.383 337.616 212.317 337.397 213.277 337.26C213.415 337.232 213.525 337.205 213.662 337.177C214.733 337.013 215.803 336.903 216.874 336.821C217.176 336.794 217.478 336.794 217.78 336.766C218.659 336.711 219.51 336.684 220.389 336.684C220.636 336.684 220.883 336.684 221.13 336.684C222.201 336.684 223.271 336.739 224.342 336.821C224.617 336.848 224.891 336.876 225.166 336.903C226.017 336.985 226.868 337.068 227.747 337.177C228.049 337.205 228.351 337.26 228.625 337.287C229.696 337.424 230.739 337.616 231.81 337.808C232.002 337.835 232.222 337.89 232.414 337.945C233.293 338.109 234.199 338.329 235.077 338.52C235.379 338.603 235.681 338.658 235.956 338.74C236.999 339.014 238.043 339.261 239.031 339.562C247.817 342.139 256.658 345.072 265.691 346.251C269.178 345.702 272.637 345.181 276.151 345.017C283.647 344.661 290.236 347.128 297.457 348.635C301.466 349.485 304.678 348.964 308.055 347.073C312.201 342.166 315.743 336.629 319.147 331.202C322.387 325.993 326.149 321.032 329.608 315.961C331.722 312.863 333.424 309.821 335.593 307.025C333.617 306.175 331.42 305.599 329.663 304.503C326.505 302.557 323.293 300.199 320.877 297.376C318.543 294.635 317.418 291.016 316.841 287.508C316.759 286.987 316.704 286.466 316.649 285.945C316.649 285.781 316.621 285.616 316.621 285.479C316.594 285.123 316.594 284.767 316.566 284.41C316.566 284.218 316.566 284.054 316.566 283.862C316.566 283.533 316.594 283.204 316.594 282.875C316.594 282.683 316.621 282.519 316.649 282.327C316.676 281.998 316.704 281.669 316.759 281.34C316.786 281.176 316.814 281.011 316.841 280.819C316.896 280.463 316.951 280.134 317.006 279.778C317.033 279.641 317.061 279.476 317.088 279.339C317.17 278.955 317.253 278.544 317.335 278.16C317.363 278.051 317.39 277.969 317.39 277.859C317.5 277.338 317.637 276.845 317.774 276.324C317.912 275.803 318.049 275.282 318.214 274.761C318.379 274.241 318.873 272.13 319.504 272.103C320.3 272.048 321.179 273.363 321.618 273.884C324.172 276.68 326.094 280.353 327.631 283.807C329.416 287.837 331.145 292.195 333.644 295.841C334.907 297.65 336.335 299.404 337.79 301.076C338.202 301.542 338.613 301.981 339.025 302.42C339.355 302.118 339.657 301.817 339.986 301.542C340.398 301.214 340.81 300.912 341.249 300.638C341.387 300.556 341.524 300.473 341.634 300.391C341.551 300.144 341.441 299.898 341.277 299.733C340.81 299.322 340.618 298.938 340.453 298.335C340.069 296.855 339.272 295.676 338.861 294.224C338.449 292.743 337.323 291.757 337.021 290.276C336.692 288.632 335.346 287.508 334.852 285.891C334.495 284.712 333.287 283.999 332.848 282.848C332.738 282.546 332.601 282.163 332.491 281.779C331.997 280.984 331.448 280.271 330.898 279.421C330.651 279.038 330.487 278.489 330.322 278.051C329.883 276.817 329.196 276.187 328.4 275.282C328.125 274.953 327.933 274.542 327.741 274.186C327.247 273.199 326.313 272.815 325.545 272.103C324.94 271.5 324.391 270.759 323.952 269.992C323.897 269.937 323.815 269.91 323.76 269.855C322.854 269.252 322.25 267.963 321.206 267.634C319.861 267.196 318.653 266.264 317.61 265.25C316.978 264.976 316.374 264.537 315.798 264.098C315.605 263.989 315.413 263.907 315.221 263.797C314.837 263.742 314.452 263.66 314.123 263.386C313.986 263.249 313.821 263.139 313.684 263.029C313.574 262.975 313.491 262.92 313.382 262.892C312.942 262.7 312.503 262.481 312.064 262.262C311.734 262.207 311.35 262.207 311.048 262.043C310.444 261.768 309.977 261.33 309.455 260.974C309.181 260.836 308.934 260.727 308.659 260.59C308.385 260.535 308.11 260.48 307.863 260.398C307.561 260.288 307.039 259.932 306.847 259.685C306.737 259.576 306.655 259.493 306.545 259.411C306.243 259.247 305.941 259.055 305.639 258.863C305.419 258.781 305.2 258.698 304.98 258.644C304.321 258.452 303.415 257.794 302.838 257.081C302.317 256.889 301.823 256.615 301.521 256.259C300.972 255.573 300.56 254.861 299.654 254.559C299.352 254.45 298.885 254.121 298.748 253.819C298.555 253.435 298.418 253.079 298.281 252.668C298.116 252.174 297.292 251.846 296.99 251.407C296.716 250.996 296.441 250.557 296.359 250.064C296.249 249.296 295.755 248.858 295.48 248.227C295.233 247.624 295.206 246.994 295.096 246.418C295.041 246.254 295.014 246.062 294.959 245.897C294.904 245.733 294.849 245.568 294.739 245.404C294.217 244.554 294.245 243.512 294.437 242.553C294.41 242.251 294.41 241.95 294.41 241.676C294.245 241.32 293.998 240.963 294.108 240.47C294.162 240.223 294.217 239.894 294.3 239.565C294.327 239.401 294.382 239.209 294.41 239.017C294.437 238.907 294.464 238.798 294.492 238.661C294.547 238.496 294.574 238.332 294.629 238.195C294.657 238.085 294.712 237.975 294.739 237.866C294.766 237.783 294.794 237.701 294.821 237.619C294.821 237.646 294.821 237.674 294.821 237.701C294.876 237.564 294.931 237.4 295.014 237.29C295.261 236.523 295.618 235.782 296.057 235.07C296.112 236.139 296.112 237.126 296.112 238.112C296.359 238.907 296.579 239.702 296.606 240.497C296.633 240.963 296.194 241.128 296.716 241.621C296.963 241.84 297.43 242.169 297.457 242.553C297.485 242.937 297.375 243.649 297.622 243.951C298.006 244.444 298.72 244.773 298.94 245.376C299.269 246.254 298.857 246.774 300.065 247.46C300.45 247.679 300.999 247.871 301.246 248.255C301.74 249.077 301.795 249.653 302.756 250.119C303.333 250.393 304.019 250.448 304.486 250.941C305.062 251.571 305.09 252.339 306.078 252.586C306.627 252.723 307.067 252.942 307.479 253.298C307.781 253.545 307.945 253.956 308.165 254.313C308.769 255.354 309.812 255.107 310.746 255.436C311.103 255.573 311.46 255.985 311.679 256.259C311.844 256.505 312.036 256.67 312.256 256.862C312.942 257.136 313.629 257.355 314.507 257.492C315.111 257.575 315.633 257.766 316.017 258.287C316.676 259.192 318.186 259.027 319.12 259.576C319.312 259.685 319.559 260.096 319.641 260.233C320.081 260.809 320.685 260.59 321.289 260.754C321.948 260.919 322.36 261.193 322.771 261.741C323.513 262.728 324.803 262.7 325.792 263.303C325.984 263.413 326.149 263.605 326.258 263.797C326.862 264.729 327.741 265.085 328.729 265.332C329.361 265.496 329.69 266.483 330.267 266.977C330.843 267.251 331.42 267.497 331.942 267.854C332.134 267.991 332.299 268.292 332.354 268.512C332.601 269.334 333.26 269.581 333.864 270.047C334.577 270.622 334.77 271.828 335.566 272.185C336.142 272.432 336.499 272.925 336.692 273.501C337.213 274.899 338.064 274.899 338.586 275.968C338.916 276.653 339.08 277.859 339.657 278.298C340.096 278.626 340.453 278.928 340.81 279.367C341.496 280.216 341.332 281.258 342.347 281.971C342.814 282.3 343.034 283.095 343.006 283.725C343.226 284.301 343.391 284.876 343.94 285.205C344.352 285.452 344.434 285.808 344.516 286.247C344.571 286.548 344.517 286.905 344.544 287.234C344.681 288.659 345.34 288.083 345.752 288.824C346.274 289.783 345.944 290.989 346.795 291.811C347.427 292.414 347.537 292.853 347.537 293.73C347.537 294.881 348.498 295.183 348.69 296.142C348.8 296.663 348.992 298.006 349.129 298.335C349.294 298.335 349.431 298.308 349.596 298.308C349.953 298.308 350.31 298.308 350.667 298.335C351.49 298.39 352.314 298.472 353.138 298.637C353.083 298.472 353.028 298.335 352.945 298.226C352.561 297.787 352.424 297.431 352.341 296.855C352.177 295.457 351.573 294.251 351.353 292.853C351.133 291.428 350.227 290.386 350.118 288.961C350.008 287.398 348.909 286.192 348.635 284.63C348.443 283.506 347.399 282.711 347.125 281.56C347.07 281.258 346.96 280.902 346.905 280.518C346.521 279.723 346.109 278.983 345.697 278.16C345.505 277.777 345.423 277.228 345.313 276.817C345.038 275.611 344.489 274.981 343.858 274.021C343.638 273.692 343.501 273.281 343.363 272.925C343.006 271.938 342.21 271.5 341.579 270.732C341.085 270.129 340.673 269.361 340.343 268.566C340.288 268.512 340.233 268.484 340.179 268.429C339.41 267.772 338.998 266.483 338.064 266.045C336.856 265.496 335.868 264.482 335.017 263.413C334.44 263.084 333.946 262.618 333.479 262.125C333.315 262.015 333.15 261.878 332.985 261.768C332.628 261.659 332.271 261.577 332.024 261.275C331.887 261.138 331.777 261.001 331.64 260.891C331.557 260.836 331.475 260.782 331.393 260.727C331.008 260.48 330.624 260.233 330.239 259.987C329.937 259.877 329.581 259.85 329.306 259.685C328.784 259.356 328.4 258.918 327.933 258.506C327.714 258.369 327.466 258.205 327.247 258.04C327 257.958 326.753 257.876 326.533 257.766C326.258 257.629 325.847 257.218 325.654 256.999C325.572 256.889 325.49 256.807 325.407 256.725C325.133 256.533 324.886 256.314 324.638 256.122C324.446 256.012 324.254 255.93 324.062 255.82C323.458 255.573 322.717 254.861 322.25 254.121C321.783 253.874 321.344 253.572 321.124 253.189C320.685 252.476 320.41 251.791 319.587 251.38C319.312 251.242 318.928 250.859 318.845 250.585C318.708 250.201 318.626 249.844 318.543 249.461C318.461 248.995 317.72 248.584 317.5 248.145C317.28 247.734 317.088 247.295 317.061 246.829C317.061 246.117 316.649 245.651 316.484 245.02C316.319 244.444 316.374 243.841 316.347 243.293C316.319 243.129 316.319 242.937 316.292 242.772C316.264 242.608 316.21 242.443 316.155 242.306C315.77 241.457 315.935 240.497 316.21 239.62C316.237 239.346 316.237 239.072 316.264 238.798C316.155 238.441 315.962 238.085 316.127 237.646C316.182 237.454 316.264 237.235 316.347 237.016C316.347 236.989 316.374 236.988 316.374 236.961C316.457 236.742 316.512 236.523 316.594 236.303C316.621 236.248 316.649 236.194 316.676 236.111C316.759 235.919 316.841 235.755 316.923 235.563C316.951 235.481 317.006 235.426 317.033 235.371C317.088 235.289 317.116 235.179 317.17 235.097C317.17 235.125 317.143 235.152 317.143 235.179C317.225 235.042 317.308 234.905 317.39 234.796C317.72 234.11 318.131 233.452 318.626 232.849C318.543 233.836 318.433 234.768 318.324 235.673C318.433 236.44 318.571 237.208 318.516 237.948C318.488 238.386 318.049 238.496 318.488 239.017C318.681 239.264 319.092 239.593 319.065 239.949C319.037 240.333 318.873 240.963 319.037 241.265C319.339 241.758 319.943 242.142 320.081 242.745C320.3 243.595 319.834 244.033 320.877 244.801C321.206 245.047 321.701 245.294 321.865 245.678C322.25 246.5 322.222 247.021 323.046 247.569C323.54 247.898 324.172 248.008 324.556 248.529C325.023 249.187 324.968 249.899 325.847 250.256C326.341 250.448 326.725 250.694 327.055 251.078C327.302 251.352 327.412 251.763 327.576 252.092C328.016 253.106 329.004 253.024 329.828 253.435C330.157 253.6 330.432 254.011 330.596 254.313C330.734 254.559 330.898 254.751 331.063 254.943C331.667 255.272 332.271 255.573 333.095 255.793C333.644 255.957 334.083 256.177 334.385 256.725C334.88 257.629 336.307 257.657 337.103 258.287C337.268 258.424 337.46 258.835 337.515 258.945C337.845 259.521 338.421 259.411 338.97 259.63C339.547 259.877 339.904 260.151 340.233 260.727C340.81 261.741 342.018 261.851 342.842 262.509C343.006 262.646 343.144 262.837 343.226 263.029C343.693 263.961 344.434 264.4 345.34 264.756C345.917 264.976 346.081 265.935 346.576 266.483C347.07 266.785 347.564 267.114 348.003 267.497C348.168 267.634 348.278 267.936 348.305 268.155C348.415 268.95 349.019 269.252 349.513 269.745C350.118 270.348 350.145 271.5 350.859 271.938C351.353 272.24 351.628 272.733 351.765 273.281C352.067 274.624 352.863 274.734 353.22 275.803C353.44 276.461 353.467 277.612 353.934 278.078C354.318 278.435 354.62 278.764 354.895 279.202C355.444 280.052 355.142 281.011 356.021 281.806C356.405 282.163 356.515 282.93 356.432 283.506C356.57 284.054 356.652 284.602 357.146 284.986C357.503 285.26 357.558 285.589 357.558 286C357.558 286.302 357.476 286.631 357.476 286.932C357.448 288.275 358.107 287.809 358.409 288.549C358.629 289.07 358.574 289.618 358.601 290.167C358.739 289.07 358.903 287.974 359.205 286.905C359.919 284.246 361.594 281.751 362.994 279.421C363.296 278.928 363.626 278.407 363.983 277.886C364.065 277.777 364.12 277.694 364.202 277.585C364.477 277.174 364.779 276.763 365.081 276.379C365.301 276.105 365.548 275.858 365.795 275.611C365.987 275.419 366.152 275.2 366.344 275.008C366.673 274.707 367.003 274.46 367.36 274.186C367.497 274.104 367.607 273.967 367.744 273.884C367.772 273.857 367.799 273.829 367.827 273.802C367.881 273.775 367.936 273.829 367.964 273.857C368.623 275.008 367.854 276.982 367.552 278.188C366.975 280.463 367.552 283.04 367.936 285.287C368.705 289.893 370.133 294.799 368.431 299.35C367.579 301.625 366.316 303.379 364.614 304.613C367.003 308.423 368.87 312.507 371.011 316.454C372.055 318.4 373.098 320.374 374.608 322.019C376.063 323.581 377.683 324.979 379.331 326.295C380.923 327.556 382.543 328.817 384.163 330.023C384.822 330.708 385.453 331.394 386.14 332.051C387.32 333.312 388.446 334.628 389.544 335.916C389.709 336.108 389.901 336.328 390.093 336.574L390.121 336.602C391.054 337.753 392.043 339.206 392.152 340.549V340.576C392.152 340.576 392.152 340.576 392.152 340.604C392.125 340.741 392.098 340.85 392.07 340.988C392.07 341.289 392.043 341.591 392.015 341.892C391.988 341.974 392.015 342.057 391.988 342.139C391.548 344.058 390.78 345.976 389.599 347.566C388.83 348.58 387.952 349.375 386.963 350.033C386.963 350.033 386.936 350.061 386.908 350.061C386.716 350.17 386.551 350.307 386.359 350.417C386.112 350.691 385.645 350.993 385.206 350.965C384.767 351.157 384.3 351.322 383.833 351.431C383.806 351.431 383.778 351.459 383.751 351.459C382.653 351.76 381.472 351.897 380.292 351.842C380.264 351.842 380.264 351.842 380.237 351.842C380.237 351.842 380.237 351.842 380.209 351.842C379.797 351.815 379.358 351.815 378.946 351.76C377.628 351.596 376.338 351.322 375.047 351.075C374.361 350.828 373.675 350.609 372.961 350.39C369.254 349.293 365.74 348.389 361.896 348.005C360.249 347.84 358.684 347.484 357.201 346.936C355.691 345.949 354.181 344.935 352.643 343.975C351.655 343.345 349.431 341.125 348.113 341.344C347.784 341.399 347.509 341.563 347.262 341.755C347.235 341.755 347.207 341.728 347.207 341.728C344.736 344.249 342.759 347.594 341.249 350.143C338.614 354.666 335.511 358.887 333.507 363.739C329.114 374.238 324.144 384.435 318.379 394.248C318.131 394.659 317.884 395.043 317.637 395.427C317.61 395.893 317.555 396.386 317.527 396.852C317.527 396.879 317.5 396.907 317.5 396.934C316.951 402.526 315.88 408.091 314.37 413.409C313.848 415.273 313.244 417.136 312.778 419.028C312.283 420.974 312.036 423.003 311.432 424.921C309.977 429.499 308.769 434.104 307.671 438.764C305.666 447.399 303.964 456.116 304.266 464.942C304.376 467.985 304.266 476.866 304.266 480.786C304.266 483.088 307.588 489.667 307.396 492.381C307.533 492.436 307.671 492.463 307.781 492.545C308.769 493.697 309.318 495.122 309.648 496.602C309.757 497.096 310.169 498.11 309.346 498.274C309.263 498.302 309.181 498.302 309.098 498.302C309.044 498.329 308.961 498.329 308.879 498.329C308.851 498.329 308.824 498.329 308.796 498.329C308.714 498.329 308.632 498.357 308.522 498.329C308.412 498.329 308.357 498.329 308.302 498.411C308.247 498.521 308.165 498.631 308.083 498.74C306.078 498.658 304.074 498.22 302.536 496.959C301.713 496.438 300.697 495.67 300.834 494.793C300.944 494.135 301.109 493.45 301.521 492.929C301.548 492.874 301.576 492.82 301.576 492.765C301.521 492.737 301.493 492.71 301.438 492.682C301.136 486.816 298.281 483.171 298.473 481.608C298.226 479.278 298.967 456.609 298.857 452.333C298.802 450.387 299.187 448.139 298.665 446.247C298.363 445.124 296.798 444.219 297.402 442.876C299.132 439.038 299.187 434.954 299.461 430.815C299.599 428.485 299.818 426.182 299.901 423.852C299.956 421.632 299.763 419.439 299.901 417.219C300.038 414.944 300.011 412.668 300.12 410.448C298.555 411.106 296.936 411.682 295.261 412.093C292.268 412.833 289.413 412.997 286.694 412.696C286.475 412.723 286.283 412.778 286.063 412.806C285.102 414.724 284.086 416.616 283.043 418.535C278.87 426.292 275.492 433.83 274.339 442.657C273.351 450.25 272.857 457.13 273.9 464.668C274.888 471.959 275.3 477.771 275.822 485.089C275.822 485.364 275.877 485.693 275.959 486.076C275.987 486.186 276.042 486.35 276.069 486.46C276.151 486.734 276.206 486.981 276.316 487.282C276.371 487.419 276.426 487.584 276.481 487.748C276.591 488.077 276.728 488.434 276.865 488.79C276.893 488.845 276.92 488.9 276.92 488.955C277.14 489.503 277.359 490.078 277.579 490.627C277.607 490.681 277.607 490.709 277.634 490.764C278.018 491.805 278.375 492.792 278.54 493.669C278.568 493.834 278.622 494.026 278.65 494.19C278.65 494.19 278.65 494.163 278.622 494.163C278.705 494.656 278.732 495.122 278.622 495.478C278.622 495.506 278.622 495.533 278.622 495.561C279.913 496.739 280.737 498.274 281.341 499.919C281.56 500.495 282.219 501.619 281.286 501.948C281.176 501.975 281.093 502.002 280.984 502.03C280.929 502.057 280.819 502.057 280.764 502.085C280.709 502.085 280.682 502.112 280.627 502.112C280.517 502.139 280.435 502.167 280.325 502.167C280.215 502.167 280.105 502.194 280.078 502.304C280.023 502.468 279.94 502.605 279.858 502.742C277.442 502.989 274.971 502.797 272.912 501.564C271.841 501.07 270.523 500.33 270.55 499.289C270.578 498.521 270.66 497.726 270.99 497.041C270.77 495.917 270.935 494.793 271.429 493.806C271.456 493.285 271.484 492.737 271.621 492.244C271.511 490.38 269.15 488.214 269.397 486.104C270.001 481.17 267.201 454.718 264.208 447.07C262.89 443.671 263.632 440.409 264.126 436.928C264.867 431.774 266.35 426.731 267.201 421.605C267.585 419.247 267.887 416.89 268.189 414.505C268.134 414.478 268.079 414.45 268.107 414.395C268.272 413.518 268.381 412.641 268.491 411.764C265.306 410.777 262.259 409.406 259.348 407.68C252.457 403.568 246.829 398.113 238.976 395.646C237.631 395.235 236.285 394.906 234.968 394.632C234.913 394.741 234.858 394.878 234.803 394.988C234.666 395.317 234.528 395.646 234.364 395.947C234.364 395.947 234.364 395.947 234.336 395.947C233.265 398.14 232.085 400.251 230.877 402.362C226.786 409.626 220.498 415.081 213.689 419.768C211.685 421.139 208.775 422.92 210.202 425.716C211.136 427.553 212.591 429.143 213.607 430.952C215.556 434.488 216.819 438.38 217.78 442.3C218.851 446.686 219.51 451.182 220.004 455.677C220.032 455.924 220.032 456.17 220.059 456.39C219.565 460.31 218.906 464.284 220.498 467.793C220.526 467.875 220.526 467.985 220.553 468.067C221.404 468.917 222.091 469.931 222.667 471.027C222.942 471.548 223.766 472.562 222.887 473.056C222.777 473.111 222.695 473.138 222.612 473.193C222.558 473.22 222.475 473.248 222.42 473.275C222.365 473.303 222.31 473.303 222.256 473.33C222.173 473.357 222.091 473.412 221.981 473.412C221.871 473.44 221.789 473.467 221.761 473.604C221.734 473.769 221.679 473.906 221.624 474.07C219.373 474.673 216.984 474.865 214.842 473.933C213.744 473.604 212.371 473.056 212.262 472.014C212.179 471.247 212.124 470.397 212.399 469.657C212.399 469.629 212.399 469.575 212.399 469.547C212.289 469.547 212.179 469.602 212.069 469.602C212.536 468.615 212.756 467.546 212.673 466.505C212.975 465.353 212.975 464.202 211.932 463.462C211.191 462.941 210.724 462.283 210.889 461.351C211.054 460.118 212.509 458.802 213.113 457.815C214.266 455.869 213.14 453.347 212.619 451.346C211.712 447.728 210.642 444.246 209.379 440.738C208.775 439.093 208.281 437.421 207.594 435.804C206.963 434.296 206.166 432.843 205.617 431.281C204.986 429.417 203.888 427.772 202.213 426.648C200.895 425.744 199.302 425.168 197.93 424.346C196.172 423.304 195.651 421.303 196.914 419.604C197.82 418.397 198.314 417.109 199.385 416.013C200.181 415.218 200.263 414.45 200.071 413.655C199.769 413.765 199.44 413.847 199.138 413.929C198.753 414.039 198.341 414.176 197.957 414.286C197.875 414.313 197.792 414.341 197.737 414.341C197.765 414.341 197.765 414.313 197.792 414.313C194.525 415.218 191.203 415.876 187.908 416.479C182.252 417.493 175.718 416.479 174.208 423.688C173.082 429.033 174.071 434.927 174.482 440.327C175.361 451.593 177.859 462.365 180.66 473.275C181.236 474.426 181.786 475.55 182.225 476.756C182.472 477.387 182.609 478.154 182.664 478.922C182.445 479.635 182.143 480.32 181.813 481.005C182.499 481.8 183.076 482.677 183.57 483.609C183.9 484.212 184.888 485.418 183.845 485.994C183.735 486.049 183.625 486.076 183.515 486.131C183.323 486.268 183.076 486.378 182.719 486.433C182.582 486.46 182.472 486.487 182.445 486.652C182.39 486.844 182.335 487.008 182.252 487.2C179.479 487.913 176.569 488.132 173.933 487.036C172.588 486.652 170.941 486.021 170.776 484.788C170.693 484.048 170.639 483.28 170.803 482.54C170.693 482.568 170.584 482.622 170.474 482.65C170.419 482.677 170.364 482.595 170.337 482.568C169.815 481.718 170.089 480.347 170.337 479.196C170.062 479.799 169.897 480.457 169.815 481.06C169.787 481.252 169.54 481.142 169.485 481.033C168.552 479.251 169.101 477.359 169.815 475.633C169.897 475.331 170.007 475.029 170.117 474.646C170.913 472.179 171.517 470.178 171.297 467.519C170.556 459.432 169.101 451.346 168.167 443.26C167.261 435.31 165.889 427.334 164.214 419.494C164.131 419.138 164.049 418.754 163.994 418.343C163.967 418.26 163.967 418.151 163.939 418.069C163.857 417.52 163.802 417.191 163.747 416.835Z" fill="#005344" fill-opacity="0.2"/>
</svg>
