<svg width="307" height="464" viewBox="0 0 307 464" fill="none" xmlns="http://www.w3.org/2000/svg">
<path d="M306.956 444.187C306.681 443.721 306.38 443.228 306.078 442.735C305.776 442.625 305.446 442.46 305.144 442.296V439.61V438.732C306.132 438.376 306.572 437.773 305.83 437.06C305.693 436.923 305.446 436.731 305.144 436.54V433.305V406.36V397.177V376.837V371.163V357.32V351.016V345.013V339.832V336.488V336.241V311.489V307.98V307.377C302.426 307.98 299.708 308.747 297.072 309.597C297.017 309.542 296.962 309.515 296.935 309.46C296.77 309.296 296.605 309.159 296.44 308.994C296.193 308.775 295.974 308.556 295.727 308.336C295.562 308.199 295.397 308.062 295.232 307.925C294.958 307.678 294.683 307.459 294.409 307.24C294.299 307.13 294.162 307.048 294.052 306.966C293.915 306.856 293.805 306.746 293.667 306.664C293.42 306.472 293.173 306.28 292.926 306.088C288.945 303.073 284.085 300.798 278.677 298.989C272.856 297.043 266.514 295.617 262.313 292.246C261.874 291.889 261.517 291.478 261.16 291.094C261.407 289.861 261.681 288.627 262.011 287.421C264.345 278.129 268.161 269.056 271.291 259.9C274.723 254.802 277.166 249.182 278.182 243.316C278.265 242.933 278.347 242.521 278.402 242.138C278.429 241.891 278.512 241.672 278.539 241.425C278.512 241.48 278.484 241.562 278.457 241.617C278.869 238.245 278.677 234.819 277.441 231.31C276.343 228.13 274.146 225.389 271.428 223.169C271.456 223.032 271.456 222.895 271.456 222.758C271.401 222.347 271.236 221.99 270.852 221.743C269.232 220.592 267.584 219.523 265.937 218.482C265.251 218.043 264.592 217.604 263.933 217.193C258.771 213.657 254.021 209.628 252.978 203.597C252.099 198.362 254.735 192.55 257.151 187.041C258.771 183.367 259.677 179.749 261.132 176.24C261.187 176.131 261.242 176.021 261.27 175.912C261.736 174.788 262.285 173.664 262.917 172.54C263.96 170.758 265.223 169.031 266.541 167.359C268.518 168.236 270.55 168.702 272.087 167.825C275.299 165.989 274.174 160.753 274.036 158.396C274.009 158.149 273.982 157.93 273.954 157.683C274.009 157.573 274.091 157.464 274.174 157.354C274.778 157.765 275.354 158.176 275.958 158.587C276.535 158.971 277.139 158.752 277.688 158.368C279.336 157.162 278.924 156.23 278.402 154.695C278.375 154.64 278.347 154.585 278.347 154.531C278.457 154.448 278.567 154.366 278.622 154.256C279.281 153.462 279.802 152.584 280.242 151.707C281.614 152.31 283.069 152.859 284.689 153.242C286.996 153.79 291.279 154.065 293.228 152.447C295.617 150.446 291.334 147.239 286.858 144.69C292.02 146.06 297.758 147.047 302.7 146.088C302.069 146.965 301.52 147.897 301.218 148.774C301.163 148.939 301.3 149.131 301.52 149.185C302.7 149.487 303.936 149.624 305.171 149.706V145.43V143.1V141.318V137.59V135.726V133.835V121.774V114.537V113.934V93.595V88.0853V86.8243V79.3136V73.6668V68.4587V63.7987V39.1558V31.4532C304.897 31.1791 304.622 30.905 304.348 30.6309C302.344 28.7669 299.845 25.9435 297.017 24.9293C296.77 24.8471 296.386 24.9293 296.276 25.0938C295.068 26.6288 295.507 29.041 295.864 31.2065C292.981 30.3842 289.192 29.8633 287.792 31.508C286.968 32.4948 287.243 33.838 288.039 35.2908C287.051 35.236 286.117 35.5101 285.376 36.3325C285.074 36.634 284.882 37.0451 284.717 37.4837C284.387 36.6888 284.003 35.8939 283.564 35.0989C283.564 35.0715 283.564 35.0715 283.564 35.0441C283.509 34.9619 283.454 34.8522 283.399 34.77C283.317 34.6329 283.234 34.5233 283.179 34.3862C282.658 33.5091 282.081 32.6593 281.34 31.8096C280.461 30.7679 278.731 29.4522 276.947 28.7943C277.441 26.1902 274.091 24.9019 270.961 25.9161C268.381 26.7659 266.019 27.8897 263.988 29.4248C263.521 29.7811 263.054 30.1375 262.587 30.4938C262.889 30.0278 263.219 29.5892 263.493 29.1232C265.36 26.2724 269.396 20.1049 265.36 17.583C265.223 17.5008 264.976 17.5282 264.839 17.583C263.054 18.3231 261.956 19.4196 261.077 20.6531C261.489 16.6784 261.517 10.5383 258.249 10.1819C256.273 9.96264 253.884 12.0733 251.825 14.3759C251.358 13.9921 250.479 13.7454 248.997 13.7728C244.384 13.8551 238.975 15.1982 234.582 17.3911C236.477 15.0612 237.493 12.3474 236.587 9.96264C235.351 6.64586 228.432 11.0591 225.302 13.2246C225.385 9.44182 226.703 1.43768 219.537 5.52199C218.329 6.20727 217.175 7.27632 216.16 8.50983C214.155 6.5088 210.943 5.63163 206.577 7.24891C203.667 8.31795 202.047 11.1962 200.976 13.2794C200.784 13.6358 200.647 14.0195 200.51 14.4033C200.51 14.4033 200.51 14.4307 200.537 14.4307C200.29 15.116 200.098 15.8013 199.933 16.514C198.313 10.456 194.936 4.59 188.237 1.02651C184.942 -0.727823 184.97 3.52095 185.491 7.16667C184.311 5.63163 182.773 4.37071 180.851 4.80929C175.827 5.98798 173.713 10.4012 171.654 13.6906C169.128 17.6927 170.555 13.9099 170.638 12.2926C170.665 11.717 170.912 9.27735 169.457 9.11288C165.339 8.64689 163.005 12.5393 160.534 14.9789C160.259 11.4703 161.934 3.95953 155.702 8.72912C153.313 10.5657 151.611 13.0327 150.293 15.5272C149.469 13.4439 148.179 11.6896 146.284 10.8124C146.01 10.6753 145.516 10.6753 145.214 10.8124C140.656 12.8683 138.871 18.9536 139.228 24.0521C138.432 23.5861 137.498 23.175 136.29 22.8734C135.686 22.7364 135.192 23.3942 135.082 23.7232C134.506 25.4775 135.439 27.2867 136.565 28.9588C135.549 28.4928 134.561 28.3009 133.929 29.0684C132.529 30.7953 133.627 32.9608 134.698 34.8796C130.827 33.0979 126.516 32.6045 121.656 32.6319C119.597 32.6319 113.227 32.1111 111.608 33.8928C108.917 36.8259 117.071 41.2391 122.453 43.2401C120.723 43.432 118.993 43.5417 117.291 44.0899C115.287 42.4452 112.98 41.0472 111.58 40.1975C110.894 39.7863 110.043 40.7183 109.96 41.1569C109.439 43.3224 110.098 45.5975 111.196 47.8178C108.368 46.1183 105.293 45.1589 102.849 46.694C100.955 47.9001 102.602 50.559 104.771 52.9438C102.822 52.1214 100.763 51.491 98.1542 51.6006C95.793 51.6829 91.153 51.9844 90.0548 54.1773C88.5172 57.2474 92.4434 59.6322 95.3537 61.0576C96.5343 61.6606 97.9071 62.2363 99.3074 62.8119C98.7308 63.086 98.2641 63.3875 97.9895 63.7713C97.3855 64.5662 97.6326 65.3612 98.3465 66.1013C97.6601 65.9916 97.0011 65.882 96.3147 65.7997C93.4044 65.4982 89.3684 64.7307 86.4581 65.553C86.211 65.6353 85.9913 65.9094 86.0188 66.1013C86.2384 67.9653 88.38 69.5277 90.2744 70.9805C87.4739 71.9673 84.1792 73.6942 84.3439 75.7227C84.4538 76.9288 85.6893 77.8334 87.3641 78.4912C86.5679 79.0121 86.0737 79.7248 86.1011 80.7664C86.1011 81.1776 86.2659 81.5887 86.4581 82.0273C85.6069 81.5887 84.7283 81.205 83.7948 80.8486C83.7948 80.8212 83.7674 80.8212 83.7674 80.7938C83.685 80.7664 83.6026 80.7664 83.5477 80.739C82.3396 80.273 81.0492 79.8892 79.649 79.5877C77.2054 79.0669 72.4006 79.2588 71.3024 81.6436C69.2981 85.9198 73.8832 90.7168 77.6721 94.5269C73.1968 92.7726 68.7765 90.9909 63.1755 92.8274C59.0571 94.1706 65.4543 98.858 68.5019 101.133C64.9052 100.585 60.2926 99.4336 58.6453 102.75C57.1626 105.738 62.1596 108.342 66.0034 110.234C66.0034 110.261 66.0034 110.261 65.976 110.289C58.4531 109.274 44.8075 108.891 45.2743 114.811C45.3566 115.88 47.1412 116.566 48.1571 116.977C49.6672 117.635 51.1498 118.347 52.6324 119.06C52.1931 119.197 51.8088 119.417 51.5342 119.745C50.2712 121.308 50.9027 123.282 51.8362 124.926C51.7813 125.063 51.7538 125.228 51.8911 125.365C52.0009 125.447 52.1382 125.529 52.248 125.612C52.4128 125.858 52.5775 126.105 52.7423 126.324C53.8405 127.804 55.1858 129.038 56.6684 130.162C56.6135 130.162 56.5586 130.162 56.5311 130.162C54.472 128.682 52.5775 127.092 50.8478 125.803C49.6672 124.899 45.7959 121.637 43.7093 122.843C41.5677 124.076 43.6269 126.516 44.5604 127.695C45.4939 128.901 46.9765 130.08 48.7062 131.176C43.7916 132.163 38.4927 133.972 42.2267 136.795C44.2859 138.358 48.1846 139.016 51.0125 139.399C53.8954 139.783 57.2999 140.331 60.7044 140.606C60.1553 140.852 59.6336 141.072 59.1394 141.291C56.4488 142.497 49.777 145.649 48.569 148.144C48.4317 148.445 48.3493 148.692 48.2944 148.911C48.2944 148.966 48.2944 149.021 48.2944 149.103C48.2669 149.24 48.2669 149.405 48.2944 149.514C48.3218 149.569 48.3219 149.624 48.3493 149.679C48.4042 149.788 48.4591 149.871 48.5415 149.953C48.5964 150.008 48.6239 150.035 48.6788 150.063C48.7886 150.117 48.8984 150.172 49.0083 150.227C49.0632 150.254 49.1455 150.282 49.2004 150.309C49.3652 150.337 49.5299 150.364 49.7221 150.391C49.8045 150.391 49.8594 150.419 49.9418 150.419C50.2163 150.446 50.5183 150.419 50.8203 150.419C50.8752 150.419 50.9576 150.391 51.0125 150.391C51.2871 150.364 51.5616 150.337 51.8637 150.282C52.0284 150.254 52.1931 150.227 52.3579 150.2C52.5775 150.172 52.7972 150.117 53.0443 150.063C53.0992 150.063 53.1815 150.035 53.2364 150.035C55.7349 149.514 58.81 148.5 61.583 147.513C57.8765 150.638 54.9387 154.065 54.3621 157.628C53.8679 160.589 59.4689 158.149 64.5482 155.38C64.1913 155.737 63.8344 156.066 63.5324 156.449C60.9241 159.629 59.0571 163.083 57.8491 166.646C55.2682 174.239 64.4384 169.47 68.3646 167.003C69.71 166.153 71.0278 165.303 72.3183 164.399C71.6593 165.111 71.1102 165.852 70.5062 166.592C68.749 168.839 67.3762 171.827 67.2115 174.514C67.184 174.459 67.1566 174.404 67.1566 174.376C67.1291 174.76 67.1291 175.144 67.1291 175.5C67.2664 177.803 68.0901 180.133 69.5452 181.723C66.8546 184.875 63.2853 189.151 64.3835 192.358C64.4933 192.66 64.9601 192.907 65.3994 192.797C69.106 192.002 73.746 189.535 76.7112 187.753C78.6057 186.602 80.3903 185.451 82.1475 184.272C79.4568 187.15 77.0681 190.165 77.48 192.934C77.5349 193.263 77.6996 193.4 78.084 193.51C81.0767 194.25 86.0462 190.001 89.0938 187.178C88.5996 190.083 89.1762 192.824 90.6588 195.593C91.3727 196.909 93.9535 199.239 96.2873 198.444C99.6094 197.292 100.213 192.304 100.241 188.164C102.794 194.195 107.956 202.884 111.8 197.594C113.118 195.757 113.337 193.016 112.926 190.193C115.287 192.907 118.142 194.688 120.778 192.468C123.469 190.193 123.496 186.191 123.606 183.422C123.606 183.148 123.578 182.874 123.578 182.6C126.022 182.408 128.768 181.366 131.266 180.27C129.564 181.832 127.889 183.422 126.379 185.094C126.104 185.396 126.049 185.889 126.461 186.081C127.422 186.575 128.356 186.383 129.399 185.889C130.799 185.204 132.09 184.436 133.353 183.614C135.11 182.49 133.106 185.697 132.968 186.712C132.474 190.522 132.968 194.716 134.341 198.307C135.082 200.225 137.883 201.13 139.448 198.773C142.77 193.784 144.555 188.466 146.065 183.093C146.779 187.123 148.508 191.975 153.725 189.425C153.697 189.535 153.697 189.617 153.725 189.727C154.027 191.18 154.411 192.605 154.796 194.03C155.345 196.36 156.059 198.553 156.91 200.637C156.91 200.664 156.937 200.691 156.937 200.746C156.937 200.719 156.91 200.719 156.91 200.691C157.596 202.309 158.337 204.091 159.134 205.9C159.161 205.954 159.189 206.009 159.216 206.092C159.271 206.229 159.353 206.393 159.408 206.53C163.032 214.699 168.167 223.799 177.007 225.526C177.035 225.526 177.062 225.526 177.09 225.554C179.698 226.979 182.581 227.308 185.711 227.089C188.1 226.924 190.543 226.486 193.042 226.074C194.03 226.321 195.101 226.595 195.979 227.116C200.592 229.748 202.514 235.23 203.942 240.383C204.354 244.248 204.271 248.47 204.244 252.636C203.612 258.886 203.475 265.382 205.067 271.44C206.632 277.444 211.053 282.597 216.105 286.846C221.513 291.369 226.538 296.412 230.135 302.223C231.041 303.704 231.782 305.266 232.413 306.883C232.084 312.366 232.111 317.519 233.374 322.316C234.198 325.468 235.818 329.662 237.85 333.198C237.767 333.39 237.685 333.582 237.603 333.774C237.63 333.801 237.63 333.801 237.657 333.829C236.285 337.968 235.488 341.806 235.241 345.506C235.077 345.78 234.912 346.082 234.747 346.356C234.582 346.63 234.39 346.877 234.198 347.151C233.484 348.192 232.715 349.152 231.947 350.056C231.864 350.139 231.809 350.248 231.727 350.331C229.833 352.469 227.828 354.25 225.906 355.785C223.38 357.814 221.019 359.733 219.317 362.172C216.873 357.978 207.374 353.51 211.712 360.966C209.543 360.062 206.358 363.899 206.77 365.626C207.483 368.449 212.041 369.107 212.81 372.506C210.861 369.409 198.505 363.57 195.787 368.778C194.305 371.574 204.079 371.903 206.577 373.767C204.436 373.055 190.022 372.698 194.964 376.7C196.474 377.906 201.553 376.92 203.64 377.66C204.546 379.387 204.161 380.154 202.459 379.88C201.773 380.127 201.196 380.538 200.894 381.168C197.407 377.276 188.896 377.166 195.403 382.621C193.756 382.566 180.33 376.262 183.542 383.964C176.678 384.074 176.211 387.637 182.828 388.569C180.467 388.844 172.395 388.652 172.12 391.722C171.763 395.093 179.149 393.997 181.181 394.052C180.659 394.134 179.973 394.298 179.286 394.518C177.227 394.326 174.234 394.518 176.129 396.683C176.266 397.012 176.596 397.423 177.035 397.862C176.898 398.136 176.815 398.383 176.815 398.602C175.388 398.849 173.987 399.315 172.971 399.89C169.265 400.082 166.162 401.48 171.434 403.728C170.528 404.852 169.457 405.811 168.194 406.634C168.331 406.36 168.359 406.113 168.359 405.866C169.924 404.687 170.528 403.591 168.112 403.207C168.441 403.235 168.579 403.262 167.974 403.18C166.3 402.96 167.151 403.098 167.837 403.18C165.805 402.96 163.938 403.701 162.236 404.687C160.616 405.099 159.463 405.756 159.875 406.36C158.996 407.429 159.738 408.854 161.028 409.156C160.012 409.813 159.216 410.581 159.353 411.431C159.381 411.623 159.518 411.76 159.655 411.897C158.255 412.006 157.157 412.472 156.827 413.651C156.059 416.392 161.111 416.694 162.648 417.817C158.887 415.871 151.968 418.448 157.294 420.997C155.812 421.052 146.669 423.464 150.265 426.068C151.419 426.891 153.89 426.288 155.757 426.233C155.702 426.37 155.674 426.48 155.674 426.617C153.011 426.918 148.398 426.151 148.014 429.248C147.877 430.399 148.344 431.139 148.838 431.825C148.289 432.318 147.822 432.812 147.575 433.305C145.9 433.031 144.143 433.113 142.468 433.469C138.075 434.292 143.539 437.417 145.049 437.609C140.958 439.335 144.582 441.117 147.685 440.98C148.289 442.022 149.497 441.994 150.787 441.665C150.897 442.022 150.979 442.406 151.089 442.762C152.325 442.926 153.643 442.817 154.274 442.597C154.192 442.707 154.192 442.789 154.137 442.899C153.972 443.009 153.807 443.091 153.56 443.228C151.474 444.407 148.646 442.954 146.367 443.118C139.887 443.721 150.897 449.341 151.391 449.615C147.41 450.602 152.517 453.233 154.274 453.151C157.349 453.069 159.82 452.685 162.538 452.603C162.428 452.932 162.373 453.261 162.401 453.535C161.056 453.644 159.848 453.973 159.957 455.673C160.122 459.127 168.304 457.372 170.336 456.851C164.927 459.839 173.548 460.36 176.651 458.222C177.419 457.674 178.216 457.372 179.012 457.153C179.039 457.317 179.122 457.482 179.149 457.646C179.231 457.92 179.314 458.167 179.396 458.441C179.478 458.688 179.561 458.935 179.643 459.154C179.863 459.647 180.11 460.113 180.412 460.525C180.522 460.662 180.632 460.771 180.741 460.908C182.416 459.73 184.256 458.825 186.178 458.112C181.593 461.073 184.173 464.499 190.406 462.197C193.81 460.936 194.085 458.085 197.078 459.181C199.796 460.25 203.091 459.181 205.589 458.058C203.31 462.06 209.323 459.921 210.778 458.222C214.238 464.17 218.878 462.005 224.039 463.403C228.432 464.581 228.872 462.526 227.636 460.415C229.064 460.497 230.519 460.525 231.947 460.552C237.932 460.634 243.89 460.387 249.848 460.25C253.445 460.168 256.986 460.25 260.528 459.675C264.427 459.044 268.216 458.058 271.977 456.961C279.308 454.823 286.639 452.52 294.464 452.466C294.848 452.466 294.903 452.877 294.628 453.041C291.608 454.905 288.588 456.742 285.458 458.469C291.498 458.03 297.594 457.866 303.661 458.112C304.156 458.14 304.677 458.167 305.171 458.195V455.81V455.536V451.753V445.942V445.064V443.858C305.803 444.242 306.434 444.297 306.956 444.187ZM224.424 457.646C225.302 457.729 226.016 457.701 226.703 457.646C226.291 457.866 225.906 458.085 225.495 458.304C225.138 458.085 224.781 457.838 224.424 457.646ZM181.538 171.8C181.51 171.361 181.455 170.95 181.4 170.566C181.785 165.852 182.334 160.808 180.824 157.107C180.741 156.943 180.522 157.052 180.577 157.244C181.071 160.123 180.467 163.357 180.192 166.564C179.808 165.852 179.369 165.194 178.82 164.591C177.694 163.302 176.376 162.37 175.442 160.78C174.701 159.547 174.07 158.396 173.164 157.354C173.164 157.327 173.164 157.272 173.164 157.244C173.136 156.23 172.971 155.216 172.724 154.229C174.619 156.504 176.705 157.628 178.133 154.695C179.561 151.735 179.753 148.582 180.412 145.512C179.89 147.924 181.071 150.474 181.071 152.886C181.071 154.448 181.428 156.395 182.142 157.82C182.224 157.984 182.471 158.039 182.691 157.957C188.237 155.792 192.273 150.666 195.019 146.581C194.607 147.212 194.222 147.87 193.838 148.527C193.069 149.871 192.493 150.83 192.822 152.228C193.124 153.434 194.579 153.05 196.199 152.173C195.677 158.834 196.254 165.66 196.748 172.321C196.858 173.719 196.94 175.144 197.05 176.569C196.309 175.446 195.458 174.376 194.771 173.143C194.332 172.321 193.893 171.471 193.454 170.621C193.289 170.292 193.124 169.963 192.959 169.634C192.904 169.525 192.85 169.442 192.795 169.36C191.806 167.441 190.735 165.577 189.445 163.933C189.472 163.96 189.527 164.015 189.582 164.042C188.978 163.275 188.319 162.535 187.578 161.877C187.523 161.822 187.441 161.822 187.386 161.849C187.358 161.849 187.358 161.877 187.331 161.877C187.276 161.904 187.221 161.959 187.194 162.014C187.194 162.014 187.194 162.014 187.166 162.041C187.111 162.151 187.056 162.261 187.139 162.37C187.496 162.891 187.825 163.467 188.155 164.015C188.511 164.618 188.896 165.221 189.225 165.879C189.39 166.208 189.555 166.564 189.72 166.893C191.092 169.634 192.245 172.54 193.536 175.336C195.65 179.968 197.242 184.491 197.572 190.631C197.819 195.1 197.984 199.677 198.286 204.2C198.286 204.611 198.258 205.022 198.258 205.434C198.231 206.941 198.149 208.531 198.231 210.011C194.826 207.325 191.202 205.105 188.072 201.815C186.37 200.034 184.887 197.896 183.597 195.401C182.746 192.057 181.4 189.535 181.236 185.56C180.989 180.983 181.812 176.186 181.538 171.8ZM242.517 206.174C239.662 203.46 237.108 200.417 235.516 196.443C234.582 194.085 234.171 191.289 234.171 188.356C234.171 187.945 234.171 187.534 234.198 187.123C234.445 185.889 234.665 184.656 234.912 183.422C235.077 182.6 235.241 181.75 235.406 180.928C235.79 179.036 236.175 177.172 236.669 175.308C237.658 171.498 238.179 167.907 238.564 164.426C239.689 165.413 240.842 166.126 241.886 166.126C244.686 166.098 244.906 163.412 244.384 160.534C245.592 162.398 246.91 164.207 248.448 166.126C249.271 167.167 251.825 170.813 254.158 169.991C254.735 169.799 255.119 169.442 255.421 169.031C261.215 179.886 245.757 191.235 243.341 201.295C242.902 202.857 242.654 204.502 242.517 206.174ZM219.207 151.104C218.274 149.076 217.038 147.239 215.83 145.403C216.159 143.703 216.764 141.976 217.34 140.277C218.109 143.402 219.564 147.13 222.282 146.91C221.431 148.637 220.662 150.583 220.827 152.009C220.882 152.42 221.376 152.694 221.898 152.475C224.067 151.598 225.906 150.364 227.691 149.076C227.664 149.268 227.664 149.459 227.664 149.651C227.636 150.008 227.609 150.391 227.609 150.748C225.577 153.845 224.396 156.888 226.867 158.067C227.362 158.313 227.883 158.423 228.405 158.478C228.405 158.505 228.405 158.533 228.432 158.587C228.872 160.78 229.119 162.946 229.229 165.111C229.146 165.057 229.091 165.002 229.009 164.947C228.872 164.837 228.734 164.7 228.597 164.591V164.618C228.295 164.371 227.993 164.125 227.691 163.905C225.055 161.959 222.667 160.123 221.294 156.861C220.964 156.093 220.717 155.271 220.47 154.448C220.031 153.297 219.701 152.146 219.207 151.104ZM230.217 147.212C229.86 147.623 229.531 148.089 229.174 148.527C229.201 148.336 229.229 148.116 229.256 147.924C229.585 147.678 229.887 147.458 230.217 147.212ZM210.119 220.263C209.46 219.139 208.774 218.098 208.197 216.974C206.989 214.507 206.001 211.766 205.095 208.997C204.656 207.654 204.244 206.283 203.859 204.885C203.832 204.611 203.777 204.31 203.749 204.036C203.145 199.732 202.514 195.511 202.075 191.18C201.361 184.08 200.482 177.008 199.521 169.936C199.384 168.346 199.302 166.756 199.164 165.194C199.055 163.713 198.917 162.233 198.725 160.808C198.286 157.655 197.599 154.668 197.078 151.68C199.192 150.364 201.278 148.582 201.388 148.5C204.024 146.198 205.754 143.21 206.77 140.14C207.017 141.51 207.346 142.881 207.95 144.251C208.417 145.293 210.915 148.911 212.81 148.582C214.018 148.363 215.281 148.061 215.528 146.965C216.242 148.418 216.983 149.843 217.642 151.351C218.548 153.434 218.685 155.874 218.878 158.396C218.96 159.382 219.18 160.287 219.509 161.109C217.67 160.095 215.912 158.916 214.512 157.162C212.014 154.092 210.174 150.501 207.154 147.924C207.044 147.815 206.825 148.061 206.934 148.171C207.374 148.637 207.731 149.185 208.088 149.706C208.417 150.172 208.719 150.611 209.021 151.104C209.158 151.323 209.268 151.543 209.378 151.762C210.531 153.818 211.52 156.011 212.728 157.957C214.704 161.137 217.642 162.727 220.47 164.837C223.545 167.112 226.236 169.689 227.526 173.828C227.966 175.254 228.185 176.871 228.295 178.516C228.158 179.475 227.993 180.462 227.801 181.421C226.483 188.959 225 197.101 226.153 204.885C227.142 211.546 230.409 216.563 234.83 219.715C235.598 221.689 236.779 223.388 237.795 225.088C239.826 228.432 242.764 231.584 245.62 235.148C248.338 238.547 250.37 242.494 251.852 246.798C251.495 249.621 250.836 252.499 249.518 255.542C247.349 260.558 244.741 265.492 242.325 270.426C242.215 270.207 242.133 269.988 242.05 269.768C242.05 269.768 242.05 269.796 242.023 269.796C241.831 269.385 241.666 268.919 241.446 268.507C238.756 263.19 234.061 259.818 230.107 257.351C227.883 255.98 225.412 255.624 223.051 255.048C221.376 254.637 220.168 253.568 219.125 252.17C218.685 251.567 218.246 250.909 217.862 250.169C217.642 249.731 217.45 249.265 217.23 248.799C217.368 239.424 217.45 225.334 210.119 220.263ZM171.544 160.698C172.56 160.123 172.944 159.3 173.081 158.45C173.96 160.945 174.784 162.946 176.541 164.782C177.749 166.016 178.847 167.195 179.478 169.086C180.137 171.087 179.973 173.773 179.808 176.186C179.643 178.735 179.369 181.613 179.286 184.491C178.243 180.599 177.309 176.597 175.854 173.061C173.932 168.428 170.94 163.988 167.288 161.082C168.771 161.466 170.226 161.438 171.544 160.698ZM163.362 164.042C163.115 163.741 162.813 163.384 162.538 163.056C162.346 160.671 160.534 158.176 158.996 155.792C160.781 157.381 163.032 159.245 165.311 160.342C165.284 160.479 165.284 160.616 165.421 160.726C169.896 164.673 172.587 169.771 174.207 176.515C175.278 180.928 176.239 185.341 177.419 189.645C176.596 188.932 175.772 188.247 174.921 187.589C172.23 185.56 169.841 182.216 168.222 178.379C168.029 177.94 167.865 177.529 167.7 177.118C168.578 176.432 169.1 175.418 169.018 174.596C168.579 170.676 165.998 167.25 163.362 164.042ZM167.673 411.897C168.249 412.527 168.551 413.322 169.375 413.815C169.1 413.733 168.826 413.678 168.551 413.651C167.865 413.459 166.986 413.24 166.025 412.966C166.602 412.637 167.151 412.28 167.673 411.897ZM258.194 165.111C257.261 163.631 256.657 161.959 256.245 160.177C257.426 161.466 258.744 162.672 260.391 163.686C260.144 165.029 259.952 166.372 259.759 167.716L259.732 167.688V167.716C259.293 166.811 258.744 165.961 258.194 165.111ZM262.615 169.497C262.697 168.072 262.78 166.674 262.889 165.303C263.493 165.687 264.207 166.126 264.921 166.509C264.125 167.496 263.356 168.483 262.615 169.497ZM155.125 190.741C154.933 190.165 154.768 189.59 154.603 189.014C157.294 187.205 157.184 183.477 157.377 181.175C157.596 178.707 156.965 176.652 156.059 174.568C158.694 176.131 160.973 177.501 165.311 177.858C165.751 177.885 166.19 177.83 166.574 177.693C167.371 179.365 168.112 181.092 168.826 182.819C169.265 183.888 169.787 184.82 170.308 185.725C165.778 184.957 162.044 182.737 157.981 179.42C157.706 179.173 157.404 179.777 157.651 180.051C161.742 184.491 166.025 189.425 171.516 188.356C171.681 188.329 171.818 188.219 171.928 188.11C172.752 189.206 173.63 190.22 174.536 191.235C175.799 192.66 177.584 195.511 179.451 196.278C179.506 196.415 179.561 196.552 179.616 196.689C180.165 199.047 180.989 201.349 181.675 203.296C182.663 206.201 184.173 208.175 185.958 209.737C187.578 211.163 189.445 211.985 191.257 212.999C191.449 213.191 191.669 213.383 191.861 213.602C193.097 214.781 194.414 216.289 195.925 217.029C196.227 217.412 196.501 217.878 196.803 218.317C196.583 218.262 196.336 218.235 196.117 218.18C195.815 218.125 195.54 218.098 195.238 218.07C194.936 218.043 194.607 217.988 194.305 217.988C194.03 217.988 193.783 217.988 193.508 217.988C193.152 217.988 192.822 217.961 192.465 217.988C191.889 218.016 191.285 218.043 190.708 218.125C188.045 218.454 185.381 219.496 182.801 220.099C179.643 220.839 176.733 220.126 174.097 218.591C171.544 217.111 169.1 214.808 166.794 212.122C165.97 210.094 165.449 207.681 164.954 205.297C164.048 200.774 163.884 195.812 162.95 191.399C162.895 191.125 162.566 191.207 162.566 191.536C162.319 196.936 163.307 202.747 164.323 207.599C164.46 208.284 164.625 208.97 164.79 209.682C163.993 208.696 163.225 207.654 162.483 206.64C161.934 205.927 161.44 205.132 160.946 204.337C160.506 203.378 160.067 202.391 159.655 201.377C158.145 197.868 156.855 194.058 155.125 190.741Z" fill="#005344" fill-opacity="0.2"/>
<path d="M122.838 386.952C123.249 387.117 124.622 387.61 122.838 386.952V386.952Z" fill="#005344" fill-opacity="0.2"/>
<path d="M240.898 438.266C241.777 439.089 239.333 436.759 240.898 438.266V438.266Z" fill="#005344" fill-opacity="0.2"/>
<path d="M142.658 360.774C138.979 359.897 132.362 354.223 132.225 350.906C132.088 347.535 132.829 342.162 133.735 337.118C133.817 336.707 133.872 336.323 133.955 335.939C133.955 335.912 133.955 335.912 133.955 335.885C134.01 335.501 134.092 335.145 134.147 334.788C134.147 334.761 134.147 334.706 134.174 334.679C134.229 334.35 134.312 333.993 134.366 333.664C134.366 333.61 134.394 333.555 134.394 333.5C134.449 333.171 134.531 332.842 134.586 332.54C134.586 332.513 134.614 332.458 134.614 332.431C134.668 332.102 134.751 331.773 134.806 331.444C134.806 331.417 134.806 331.417 134.806 331.389C134.888 330.923 134.998 330.512 135.08 330.073C135.382 329.909 135.684 329.69 135.931 329.416C135.931 329.416 135.931 329.416 135.931 329.443C135.931 330.073 135.877 330.676 135.822 331.307C135.794 331.526 135.794 331.746 135.767 331.965C135.767 331.937 135.767 331.937 135.767 331.91C135.712 332.376 135.684 332.842 135.657 333.308C135.657 333.5 135.959 333.335 135.986 333.226V333.198C136.014 333.198 136.014 333.171 136.014 333.171C136.343 332.678 136.535 332.129 136.7 331.581C136.673 331.91 136.673 332.212 136.618 332.54C136.288 333.472 135.849 334.35 135.52 335.282C135.41 335.556 135.822 335.419 135.931 335.336C136.563 334.761 137.057 334.13 137.496 333.445C137.469 334.13 137.359 334.816 137.222 335.501C137.167 335.912 137.085 336.323 137.03 336.734C137.167 336.762 137.414 336.652 137.496 336.543C137.798 336.049 138.046 335.528 138.238 335.008C138.128 335.885 137.936 336.762 137.689 337.612C137.716 337.941 137.689 338.242 137.661 338.571C137.826 338.544 138.018 338.461 138.073 338.352C138.485 337.721 138.814 337.036 139.034 336.323C139.061 336.433 139.089 336.543 139.116 336.652C139.226 336.981 139.446 337.721 139.363 338.16C139.693 337.42 139.913 336.625 140.022 335.802C140.022 335.227 140.05 334.624 140.077 334.048C140.187 334.542 140.269 335.035 140.352 335.528C140.379 335.665 140.681 335.501 140.681 335.391C140.599 333.966 140.517 332.54 140.242 331.115C140.379 331.444 140.489 331.773 140.599 332.074C140.654 332.266 141.011 332.02 140.983 331.883C140.654 330.594 140.297 329.279 139.858 327.99C139.803 327.277 139.72 326.565 139.611 325.852V325.825C139.556 325.523 139.501 325.222 139.418 324.92C139.391 324.838 139.391 324.756 139.363 324.673C139.281 324.29 139.171 323.906 139.034 323.55C138.348 321.576 137.222 319.739 135.959 318.04C135.877 317.903 135.767 317.766 135.684 317.656C135.355 316.861 135.053 316.039 134.723 315.216C132.362 311.817 128.546 309.515 124.373 308.967C116.246 308.638 113.445 310.036 107.377 310.2C100.486 310.392 93.622 309.57 86.7031 310.008C82.5847 310.255 78.4938 310.666 74.4029 311.105C71.2729 311.461 66.9623 309.981 63.7225 309.734C57.5999 306.911 47.3039 292.191 46.1233 289.806C45.3545 288.271 45.1074 286.352 43.9268 285.064C43.817 284.022 43.5973 283.035 43.2404 282.076C43.3502 282.021 43.46 281.994 43.5699 281.966C45.1623 281.583 46.8097 281.774 48.4021 281.5C48.7591 281.446 49.0885 281.363 49.4454 281.254C49.5003 281.226 49.5827 281.199 49.6376 281.199C49.9122 281.117 50.1868 281.034 50.4613 280.925H50.4888C51.8066 280.404 52.9872 279.582 53.9482 278.513V278.54C54.0306 278.458 54.0855 278.375 54.1678 278.266C54.2777 278.156 54.3875 278.019 54.4699 277.909C54.662 277.663 54.8268 277.416 54.9915 277.142C55.2386 276.731 55.4583 276.32 55.6505 275.881C55.6505 275.854 55.6779 275.854 55.6779 275.826C55.6779 275.826 55.6779 275.826 55.6779 275.854C56.1447 274.785 56.5016 273.661 56.8036 272.564C57.0233 271.714 57.0233 268.946 56.6389 268.672C56.5016 268.562 56.3643 268.507 56.1996 268.425C55.4857 268.453 54.7719 268.562 54.113 268.644C53.0971 268.781 52.1087 269.001 51.1477 269.275C51.2026 269.247 51.23 269.247 51.285 269.22C50.9829 269.302 50.681 269.412 50.379 269.494C49.9122 269.659 49.4729 269.823 49.0336 270.015C48.9512 270.042 48.8963 270.07 48.8139 270.097C48.7316 270.125 48.6767 270.179 48.5943 270.207C48.2374 270.371 47.853 270.563 47.5235 270.782C47.4961 270.81 47.4686 270.81 47.4137 270.837C47.3588 270.865 47.3039 270.892 47.249 270.947C47.1666 271.002 47.0842 271.057 47.0018 271.111C46.7822 271.248 46.59 271.358 46.3978 271.523C46.4802 271.468 46.5626 271.44 46.645 271.386L46.6175 271.413C46.3978 271.55 46.1782 271.714 45.986 271.852C45.7389 272.043 45.4918 272.263 45.2722 272.455C45.1349 272.564 44.9976 272.674 44.8878 272.784C44.8603 272.811 44.8603 272.838 44.8603 272.838C44.723 272.948 44.5857 273.058 44.4759 273.195C43.6522 274.072 43.0208 275.059 42.4716 276.128C42.1422 276.786 41.7029 277.882 41.2361 278.869L41.2087 278.841C41.0439 278.677 40.8518 278.513 40.687 278.375C41.2087 277.252 41.3459 275.936 41.593 274.757C41.9225 273.112 42.3344 271.495 42.8011 269.85C45.7663 259.324 53.0147 257.735 55.9799 256.666C59.1099 255.542 62.6243 255.103 65.4522 253.404C69.8726 250.745 73.3595 244.55 71.6573 239.698C71.6573 239.67 71.6298 239.616 71.6023 239.561C71.6023 239.533 71.5749 239.533 71.5749 239.506C71.5474 239.451 71.5199 239.424 71.4925 239.369C71.465 239.342 71.4651 239.314 71.4376 239.287C71.4102 239.232 71.3827 239.177 71.3278 239.095C71.3003 239.067 71.3003 239.04 71.2729 239.013C71.1631 238.821 71.0532 238.629 70.9159 238.41C70.8885 238.382 70.8885 238.355 70.861 238.327C70.8061 238.245 70.7786 238.19 70.7237 238.135C70.6963 238.108 70.6688 238.081 70.6688 238.053C70.6139 237.998 70.5865 237.944 70.559 237.889C70.5315 237.861 70.5041 237.834 70.5041 237.807C70.4492 237.752 70.3943 237.697 70.3668 237.669L70.3394 237.642C70.0648 237.395 69.9001 237.56 70.0373 238.574C70.4217 241.096 69.3784 245.043 68.1154 247.291C67.2094 248.881 65.5071 250.059 63.75 250.964C63.0636 251.32 62.3771 251.622 61.7182 251.896C61.6358 251.896 61.526 251.923 61.4437 251.978C60.4553 252.362 59.4394 252.691 58.3961 252.965C58.149 252.938 57.8744 252.938 57.6547 252.992C57.5175 253.047 57.4076 253.13 57.2978 253.13C57.2703 253.13 57.2154 253.184 57.2154 253.212V253.239C55.925 253.541 54.6346 253.815 53.3716 254.144C52.9049 254.171 52.4656 254.363 51.9988 254.473C51.9714 254.473 51.9439 254.5 51.9165 254.555C50.7633 254.884 49.6376 255.295 48.5669 255.816C47.8805 255.871 47.0842 256.145 46.7822 256.803C46.7547 256.83 46.7548 256.83 46.7548 256.857V256.885C45.7389 257.57 44.7779 258.338 43.8994 259.187C43.4601 259.352 42.3344 259.982 42.6089 260.531C41.7029 261.517 40.9066 262.586 40.1379 263.683C39.5888 263.984 39.0946 264.423 39.0946 265.053C39.0946 265.108 39.122 265.108 39.1769 265.108C39.0671 265.3 38.9298 265.492 38.82 265.684C38.2434 266.616 37.6394 267.603 37.0903 268.617C36.6235 268.809 35.7175 269.604 36.2391 270.097C36.2666 270.125 36.2941 270.097 36.3215 270.097C35.5253 271.687 34.8389 273.332 34.3996 274.976C34.2898 275.113 34.18 275.278 34.0976 275.47C34.0701 275.525 34.0701 275.634 34.125 275.689C34.1525 275.689 34.1525 275.717 34.18 275.717C34.2074 275.717 34.2074 275.717 34.2349 275.717C34.2349 275.771 34.2074 275.799 34.2074 275.854C34.18 275.854 34.18 275.854 34.1525 275.854C34.0152 275.854 33.8779 275.826 33.7406 275.826C33.6308 275.826 33.521 275.799 33.4112 275.799C32.7248 275.771 32.0659 275.771 31.4069 275.826C31.3795 275.826 31.352 275.826 31.3246 275.854C30.9951 275.881 30.6656 275.936 30.3636 275.991C29.8694 274.099 27.9475 270.344 27.5356 269.138C27.316 268.535 27.0689 267.904 26.8218 267.219C26.5747 266.534 26.3001 265.848 26.1079 265.136C26.1079 265.136 26.1079 265.136 26.1079 265.108C26.1354 265.081 26.1628 265.026 26.1628 264.999C26.0805 264.752 26.0256 264.478 25.9432 264.204C25.8608 263.93 25.7785 263.656 25.6961 263.381V263.354C25.6961 263.272 25.6687 263.217 25.6687 263.135C25.6412 263.025 25.6412 262.915 25.6137 262.806C25.5863 262.696 25.5863 262.559 25.5863 262.449C25.5863 262.34 25.5588 262.23 25.5588 262.12C25.5588 262.011 25.5588 261.874 25.5588 261.764C25.5588 261.654 25.5588 261.545 25.5588 261.435C25.5588 261.326 25.5863 261.188 25.5863 261.079C25.5863 260.969 25.6137 260.887 25.6137 260.777C25.6412 260.64 25.6686 260.531 25.6961 260.421C25.7236 260.339 25.751 260.229 25.7785 260.147C25.8059 260.01 25.8608 259.9 25.9157 259.763C25.9432 259.681 25.9706 259.599 26.0256 259.516C26.0805 259.379 26.1628 259.242 26.2452 259.105C26.2727 259.05 26.3276 258.968 26.3551 258.913C26.4923 258.721 26.6296 258.53 26.7943 258.338C27.3983 257.625 28.277 256.967 29.1006 256.583C30.4185 255.98 31.7913 255.405 33.0817 254.747C35.3331 253.623 37.7492 252.033 39.2593 249.977C40.0281 248.936 40.4399 247.62 41.0165 246.496C41.1538 246.057 41.291 245.619 41.4009 245.18C41.8951 243.344 42.1971 241.48 42.4991 239.588C42.6089 238.958 42.6913 238.327 42.7187 237.697C42.7187 237.642 42.7187 237.56 42.7187 237.45C42.7187 237.423 42.7187 237.423 42.7187 237.395C42.7187 237.313 42.6913 237.203 42.6913 237.121V237.094C42.6638 237.012 42.6638 236.929 42.6364 236.847V236.82C42.6089 236.737 42.5815 236.683 42.5266 236.655C42.5266 236.655 42.5266 236.655 42.5266 236.628C42.4991 236.6 42.4716 236.573 42.4167 236.573C42.3893 236.573 42.3893 236.573 42.3618 236.573C41.4832 238.327 40.8792 240.219 40.0555 241.973C38.9573 244.303 37.5845 246.523 35.7175 248.333C34.6467 249.347 33.4387 250.114 32.1482 250.772C32.011 250.8 31.8737 250.827 31.7364 250.882C31.7089 250.882 31.7089 250.909 31.6815 250.909C31.654 250.937 31.5991 250.937 31.5717 250.964C31.5167 250.991 31.4344 251.019 31.3794 251.074C31.352 251.101 31.352 251.156 31.3794 251.156C30.1988 251.732 28.9633 252.225 27.7553 252.746C27.3709 252.801 26.9865 252.938 26.6845 253.212C26.6845 253.212 26.6571 253.212 26.6571 253.239C25.6137 253.733 24.5978 254.308 23.6643 254.993C23.28 255.268 22.9505 255.597 22.6485 255.898C22.1817 256.035 21.9072 256.419 21.6326 256.94C21.6052 256.967 21.6052 257.049 21.6601 257.049C21.715 257.049 21.7425 257.022 21.7974 256.995C20.7815 258.612 20.5069 260.531 20.6167 262.477C20.5069 262.724 20.452 262.97 20.5619 263.19C20.5619 263.217 20.5618 263.272 20.5893 263.299C20.5893 263.299 20.6167 263.299 20.6167 263.327C20.6442 263.327 20.6442 263.327 20.6717 263.327C20.8089 264.423 21.0286 265.547 21.3306 266.616C21.3855 266.835 21.4404 267.055 21.4953 267.274C21.3581 267.575 21.3306 267.877 21.4953 268.178C21.5503 268.288 21.6326 268.261 21.715 268.178C22.017 269.467 22.319 270.755 22.7034 272.016C22.676 272.18 22.6759 272.345 22.7309 272.482C22.7583 272.564 22.8132 272.564 22.8956 272.509C23.0329 272.893 23.1427 273.277 23.3074 273.661C23.3898 273.825 23.4996 274.072 23.6095 274.373C23.4722 274.236 23.3624 274.099 23.2251 273.99C21.5777 272.427 19.6283 271.714 17.4868 271.084C17.0475 270.947 16.6356 270.782 16.2513 270.591C16.1689 270.536 16.0591 270.508 15.9767 270.454C15.9218 270.426 15.8394 270.371 15.7845 270.344C15.5649 270.207 15.3178 270.097 15.1256 269.96C15.0707 269.933 15.0157 269.905 14.9608 269.85C14.851 269.768 14.7412 269.686 14.6314 269.631C14.4392 269.494 14.247 269.357 14.0548 269.22C13.8351 269.056 13.6155 268.864 13.4508 268.727C13.3958 268.699 13.3409 268.644 13.286 268.59C12.9016 268.288 12.6271 268.096 12.4898 268.151C12.4349 268.178 12.4074 268.206 12.3525 268.233V268.261C11.6661 268.836 12.5447 271.386 12.6545 271.934C12.682 272.071 12.7095 272.208 12.7369 272.345V272.318C12.8193 272.646 12.9017 273.003 13.0115 273.332C13.0664 273.524 13.1487 273.743 13.2037 273.935C13.2586 274.099 13.3135 274.291 13.3684 274.456V274.428C13.8077 275.607 14.3293 276.758 14.9608 277.827C15.8394 279.39 17.1573 281.226 18.8047 282.049C19.546 282.405 20.2598 282.46 20.9737 282.405H20.9462C20.9737 282.405 21.0011 282.405 21.0286 282.378C21.6326 282.295 22.2092 282.131 22.7858 281.939C22.7309 282.021 22.7034 282.103 22.6485 282.213C21.9072 284.104 22.0445 286.407 22.1817 288.381C22.2092 288.6 21.9896 289.176 21.6326 289.916C21.5503 290.08 21.4679 290.245 21.3855 290.409C21.3031 290.574 21.2208 290.765 21.111 290.957C21.0286 291.122 20.9462 291.286 20.8639 291.451C20.7815 291.588 20.6991 291.752 20.6167 291.889C20.5069 292.081 20.4245 292.273 20.3147 292.465C20.2324 292.602 20.1775 292.739 20.0951 292.849C20.0677 292.904 20.0127 292.986 19.9853 293.041C19.7107 293.534 19.4636 294.027 19.1616 294.521C19.0518 294.713 18.9419 294.905 18.8321 295.096C18.6674 295.425 18.4752 295.727 18.3105 296.056C17.6515 297.235 16.9926 298.413 16.416 299.482C16.3885 299.51 16.3886 299.537 16.3611 299.592C16.1964 299.893 16.0316 300.195 15.8943 300.496C15.8394 300.579 15.812 300.661 15.7571 300.743C15.6198 300.99 15.51 301.237 15.3727 301.456C15.3452 301.511 15.3178 301.593 15.2629 301.648C15.1256 301.922 14.9883 302.196 14.9059 302.415C14.9059 302.443 14.8785 302.443 14.8785 302.47C14.7961 302.635 14.7412 302.772 14.6863 302.909C14.6039 303.128 14.549 303.292 14.5215 303.43C14.5215 303.457 14.5215 303.457 14.5215 303.484C14.5215 303.512 14.5215 303.512 14.5215 303.539C14.4941 303.704 14.5216 303.868 14.549 304.06V304.087C14.6039 304.279 14.6588 304.471 14.7687 304.69C14.7687 304.69 14.7686 304.718 14.7961 304.718C14.9059 304.91 15.0158 305.129 15.153 305.321C15.153 305.321 15.153 305.348 15.1805 305.348C15.3178 305.54 15.4551 305.732 15.6198 305.924C15.8394 306.171 16.0591 306.39 16.2787 306.609C16.3062 306.637 16.3337 306.664 16.3611 306.691C16.4435 306.774 16.5258 306.829 16.6082 306.883C16.6631 306.938 16.7455 306.966 16.8004 307.02C16.8827 307.075 16.9377 307.13 17.02 307.157C17.1024 307.212 17.1848 307.24 17.2397 307.267C17.2946 307.295 17.3495 307.322 17.377 307.349C18.887 307.815 20.4246 307.514 21.7424 306.664C22.3465 306.28 22.8681 305.814 23.3898 305.321C23.9938 304.718 24.5979 304.115 25.2293 303.567C26.8767 302.169 28.9084 302.196 30.8853 301.675C32.1208 301.346 33.3014 300.88 34.4545 300.277C36.2117 304.005 38.2709 308.089 39.424 309.734C41.7578 313.051 45.9036 317.08 47.3313 320.891C48.7316 324.646 49.4454 328.621 50.9555 332.321C51.2301 333.006 51.5595 333.692 51.9439 334.35C52.5754 335.117 53.2618 335.83 53.9757 336.515C53.756 337.036 53.5638 337.584 53.3991 338.16C53.3442 338.324 53.3167 338.516 53.2618 338.763C53.2343 338.873 53.2069 338.982 53.1794 339.092C53.152 339.256 53.0971 339.393 53.0696 339.585C53.0422 339.722 53.0147 339.887 52.9598 340.024C52.9049 340.216 52.8774 340.408 52.8225 340.627C52.7951 340.764 52.7676 340.901 52.7402 341.038C52.6852 341.34 52.6029 341.641 52.5205 341.943C52.5205 341.943 52.5205 341.943 52.5205 341.97C52.191 343.423 51.8066 345.122 51.3948 346.904C50.3515 351.509 49.1709 356.443 48.5119 358.088C47.9079 359.568 47.551 361.213 46.8371 362.638C46.1507 363.981 45.7389 364.831 46.2606 366.366C46.6724 367.6 47.4412 368.641 48.3198 369.436C48.3747 369.464 48.4021 369.519 48.457 369.546C51.0104 371.684 52.2185 375.412 53.9482 378.455C54.6895 380.182 55.4034 381.936 56.227 383.608C57.0507 385.28 57.9568 386.815 59.0275 388.186C59.3296 388.35 59.8512 389.721 60.1532 389.83C61.2789 390.242 64.3265 393.065 65.0678 392.955L67.786 394.573C70.1197 392.489 69.0764 387.583 69.0764 387.583C68.2527 387.555 67.2917 387.555 66.523 387.583C66.523 387.363 66.523 387.171 66.4681 386.98C65.8915 387.062 65.2875 387.117 64.7109 387.171C64.5736 387.171 64.5462 387.007 64.6011 386.925C64.7109 386.788 64.8482 386.651 64.9855 386.514C64.6285 386.486 64.2442 386.404 63.8872 386.322C63.6401 386.267 63.393 386.24 63.1459 386.185C62.6243 386.075 62.1301 385.911 61.6633 385.746C61.3064 385.609 61.0043 385.39 60.7298 385.143C60.7023 385.17 60.6749 385.198 60.6749 385.225C60.62 385.143 60.5925 385.033 60.5376 384.951C60.2356 384.595 59.9885 384.156 59.7689 383.718C58.0391 380.264 56.3918 376.783 54.7169 373.301C54.2777 372.397 53.8384 371.492 53.3991 370.56C53.0147 369.765 52.4656 368.943 52.2185 368.093C52.0263 367.353 52.1361 366.558 51.7792 365.873C51.5321 365.379 51.4497 365.05 51.5046 364.502C51.6693 363.269 52.3832 362.09 53.0422 361.076C53.454 360.445 53.8933 359.842 54.3051 359.239C55.2386 357.485 56.1447 355.95 56.4192 355.484C56.6663 355.1 57.0507 354.552 57.5449 353.894C57.7097 353.675 57.8744 353.455 58.0391 353.209C58.1489 353.044 58.2588 352.88 58.3961 352.715C58.451 352.633 58.5059 352.578 58.5608 352.496C58.6432 352.359 58.753 352.222 58.8628 352.085C58.9177 352.003 58.9726 351.92 59.0275 351.838C59.1099 351.701 59.2197 351.591 59.3021 351.454C59.3845 351.345 59.4394 351.262 59.5217 351.153C59.6041 351.043 59.6865 350.906 59.7963 350.769C59.8787 350.659 59.961 350.55 60.016 350.44C60.1807 350.221 60.3454 349.974 60.4827 349.755C60.5651 349.645 60.62 349.536 60.7024 349.453C60.8122 349.316 60.8945 349.152 61.0044 349.015C61.0867 348.905 61.1691 348.768 61.224 348.658C61.3064 348.521 61.4162 348.384 61.4986 348.22C61.5809 348.11 61.6633 347.973 61.7182 347.863C61.8006 347.726 61.883 347.589 61.9928 347.425C62.0751 347.288 62.1575 347.178 62.2399 347.041C62.3222 346.904 62.4046 346.767 62.487 346.63C62.5693 346.493 62.6517 346.356 62.7341 346.219C62.8165 346.082 62.8988 345.917 62.9812 345.78C63.0636 345.643 63.1185 345.533 63.2008 345.396C63.2283 345.342 63.2558 345.287 63.2832 345.259C65.7542 352.962 68.8018 361.761 69.1313 363.762C69.4333 365.489 68.3076 368.504 69.3784 370.039C70.0648 370.999 71.9318 394.052 71.9044 395.368C71.8494 398.246 69.6804 399.699 69.653 400.493C69.6804 400.493 69.7353 400.493 69.7902 400.493L67.6212 405.044C70.0923 406.743 74.6774 405.236 75.9678 404.77C75.9953 404.77 75.9953 404.742 76.0227 404.742C76.0777 404.715 76.1051 404.715 76.16 404.687C76.1875 404.687 76.2149 404.66 76.2149 404.66C76.2424 404.66 76.2698 404.633 76.2698 404.633C76.2973 404.633 76.3248 404.605 76.3248 404.605C76.2424 403.783 76.1051 402.878 75.9953 402.083C76.16 402.138 76.3522 402.193 76.4895 402.22C77.0386 400.411 73.991 399.753 75.6658 398.794C77.4504 399.315 77.9446 399.452 77.8074 398.821C77.8074 398.794 77.7799 398.767 77.7799 398.767C77.7525 398.712 77.7524 398.657 77.725 398.575C77.725 398.547 77.6975 398.52 77.6975 398.52C77.4504 397.917 76.9288 396.875 76.2973 395.285C76.1874 395.011 76.0777 394.71 75.9404 394.381C75.9404 394.353 75.9129 394.271 75.9129 394.161C75.9129 394.134 75.9129 394.134 75.9129 394.107C75.8305 393.586 75.6384 392.352 75.4187 390.625C75.4187 390.543 75.3913 390.461 75.3913 390.379C75.3638 390.132 75.3089 389.858 75.2814 389.584C74.6774 385.17 73.8537 378.372 73.6341 372.177C73.4419 366.75 72.7555 364.201 72.6182 362.912C72.3985 359.459 74.0459 351.345 74.595 343.587C77.725 344.327 80.8824 345.013 84.0673 345.369C89.2565 345.917 94.5006 345.78 99.7172 345.479C99.7172 345.506 99.7172 345.534 99.7172 345.561C99.7172 345.78 99.7446 345.972 99.7446 346.191C99.7446 346.274 99.7446 346.328 99.7446 346.383C99.7446 346.411 99.7446 346.438 99.7446 346.465C99.7721 346.904 99.7995 347.315 99.827 347.754C99.8544 348.083 99.8819 348.384 99.9094 348.713C99.9094 348.795 99.9093 348.878 99.9368 348.96C100.706 356.306 103.094 364.146 107.679 371.903C108.228 372.835 99.4975 389.145 98.1796 391.475C97.6854 392.352 96.5323 395.258 95.3242 397.369C95.1869 398.054 95.0771 398.712 95.0222 399.424C94.9948 399.753 94.9948 400.082 94.9948 400.439C94.9948 400.493 94.9948 400.521 94.9948 400.576C95.0497 400.603 95.1046 400.631 95.1595 400.658C95.1046 400.74 95.0222 400.822 94.9673 400.905C94.9124 400.959 94.8849 401.014 94.83 401.069C94.226 401.891 93.5945 402.933 93.1552 404.057C93.1552 404.057 95.3517 404.77 97.6305 404.194C97.658 404.194 97.658 404.194 97.6854 404.167C98.0149 404.084 98.3443 403.975 98.6464 403.838C98.6738 403.838 98.6738 403.81 98.7013 403.81C99.0308 403.646 99.3602 403.481 99.6623 403.262L99.6897 400.466C99.7995 400.411 99.9093 400.384 100.019 400.329L100.266 396.025L100.294 395.779C100.019 394.874 102.216 393.449 102.38 392.544C102.408 392.38 102.435 392.243 102.463 392.106C102.463 392.051 102.49 392.023 102.49 391.996C102.518 391.914 102.545 391.831 102.545 391.777C102.573 391.722 102.573 391.694 102.6 391.667C102.627 391.612 102.655 391.557 102.655 391.503C102.682 391.475 102.682 391.42 102.71 391.393C102.737 391.338 102.765 391.283 102.792 391.256C102.957 390.982 103.177 390.708 103.451 390.296C104.192 389.255 103.698 389.967 104.494 388.953C109.848 382.1 111.194 380.977 115.779 373.603C117.536 370.752 113.473 365.215 111.908 363.214C111.221 362.337 111.194 360.802 111.578 359.02C111.606 358.828 111.66 358.636 111.715 358.417C111.77 358.225 111.825 358.006 111.88 357.814C111.935 357.649 111.962 357.485 112.017 357.32C112.072 357.129 112.127 356.937 112.182 356.772C112.237 356.608 112.292 356.443 112.347 356.279C112.429 356.005 112.539 355.731 112.649 355.456C112.731 355.237 112.814 355.018 112.896 354.826C112.978 354.634 113.033 354.47 113.116 354.278C113.198 354.086 113.253 353.921 113.335 353.73C113.418 353.538 113.473 353.373 113.555 353.209C113.637 353.044 113.692 352.88 113.775 352.688C113.912 352.386 114.049 352.085 114.186 351.811C114.269 351.646 114.351 351.454 114.433 351.29C114.461 351.235 114.488 351.18 114.516 351.125C115.34 352.195 116.218 353.209 117.152 354.196C122.56 359.979 130.55 361.432 136.343 367.408C138.952 370.094 135.602 395.093 136.014 397.752C136.096 398.273 135.931 399.89 136.206 401.151C136.206 401.206 136.233 401.261 136.233 401.316C135.684 402.193 135.163 403.262 134.943 404.358C134.943 404.358 139.913 406.113 142.191 403.618L141.78 401.782L141.697 401.371C142.603 401.288 143.125 401.069 142.631 400.576C141.834 399.726 141.258 397.725 140.928 396.08C140.901 395.998 140.901 395.916 140.874 395.806C140.846 395.724 140.846 395.614 140.819 395.532C140.791 395.45 140.791 395.368 140.791 395.285C140.764 395.203 140.764 395.121 140.764 395.039C140.764 394.956 140.736 394.902 140.736 394.819C140.736 394.737 140.709 394.655 140.709 394.573C140.709 394.518 140.681 394.436 140.681 394.381C140.681 394.298 140.654 394.244 140.654 394.161C140.654 394.107 140.654 394.052 140.654 394.024C140.654 393.97 140.654 393.915 140.654 393.86C140.654 393.832 140.654 393.778 140.654 393.75C140.654 393.695 140.654 393.668 140.654 393.613C140.654 393.586 140.654 393.558 140.654 393.558C140.654 393.504 140.654 393.476 140.681 393.476C141.258 392.846 141.532 390.68 141.34 390.406C141.285 390.242 141.23 390.077 141.176 389.885C141.148 389.776 141.121 389.666 141.093 389.556C139.748 382.84 145.019 361.35 142.658 360.774Z" fill="#005344" fill-opacity="0.2"/>
<path d="M38.2462 59.1799C38.3286 58.988 38.3561 58.8235 38.3561 58.8235C38.3561 58.8235 38.3835 58.7139 38.3835 58.6042C38.3286 58.4946 38.2462 58.4123 38.2462 58.4123C38.2462 58.4123 38.1639 58.2753 37.9992 58.1656C37.8893 58.0834 37.7246 58.0012 37.5324 57.9463C37.6697 57.8093 37.7246 57.6448 37.7795 57.5078C37.8344 57.2885 37.8344 57.1514 37.8344 57.1514C37.8344 57.1514 37.8619 57.0418 37.8344 56.9047C37.7521 56.7951 37.6697 56.7402 37.6697 56.7402C37.6697 56.7402 37.5598 56.6306 37.3676 56.5209C37.1205 56.3839 36.7636 56.3016 36.2694 56.4661C36.2694 56.4661 36.2694 56.4661 36.242 56.4661C36.1596 56.4935 35.885 56.6032 35.5006 56.7951C35.4732 56.8225 35.4457 56.8225 35.4457 56.8499L35.1712 57.0966C35.0065 57.261 34.8142 57.4529 34.622 57.6174C34.5946 57.6448 34.8142 57.2062 34.979 57.0143C34.7868 57.0966 34.5671 57.2062 34.32 57.3159C34.1827 57.4529 34.0455 57.6174 33.8808 57.7545C33.8533 57.7819 33.9082 57.5626 33.9356 57.5078C33.6885 57.6174 33.414 57.7545 33.1394 57.8641C33.5513 57.6722 33.9631 57.4803 34.2926 57.3159C34.1828 57.3159 34.0729 57.3159 33.9356 57.3159C33.9082 57.3159 34.3749 57.1788 34.622 57.1514C34.7593 57.0692 34.8966 57.0143 35.0064 56.9595C34.8417 56.9595 34.6495 56.9595 34.4573 56.9595C34.4573 56.9595 34.4573 56.9595 34.4848 56.9595C34.5122 56.9595 34.5946 56.9321 34.7044 56.9321C34.8691 56.9047 35.1163 56.8773 35.2536 56.8499C35.5007 56.7128 35.6928 56.6306 35.7477 56.6032C36.187 56.3565 36.3793 56.0824 36.4616 55.8905C36.5165 55.726 36.5165 55.6164 36.5165 55.6164C36.5165 55.6164 36.544 55.5341 36.5165 55.4519C36.4616 55.3971 36.3792 55.3697 36.3792 55.3697C36.3792 55.3697 36.2969 55.3148 36.1321 55.26C35.9125 55.2052 35.583 55.2052 35.1437 55.4245C35.1437 55.4245 35.1437 55.4245 35.1163 55.4245C35.0339 55.4793 34.7868 55.589 34.4299 55.7808C34.3475 55.8631 34.2651 55.9453 34.1828 56.0001L34.1278 56.0549C33.9631 56.2194 33.7984 56.3565 33.6336 56.5209C33.6062 56.5484 33.8258 56.192 33.9631 56.0275C33.7709 56.1372 33.5787 56.2468 33.3591 56.3565C33.2218 56.4935 33.0845 56.6306 32.9472 56.7402C32.9198 56.7676 32.9747 56.6032 33.0021 56.5483C32.6452 56.7402 32.2608 56.9595 31.849 57.2062C31.849 57.2062 31.7941 57.1514 31.6843 57.124C31.6294 57.124 31.5744 57.0966 31.4921 57.0966C31.3548 57.1514 31.2175 57.2336 31.0802 57.3159C30.9704 57.3981 30.8331 57.4529 30.7233 57.5352C30.6958 57.5352 30.6684 57.5078 30.6135 57.5352C30.4488 57.6448 30.284 57.727 30.1193 57.8367C29.5152 58.2205 28.9387 58.6316 28.3621 59.0154C28.0326 59.2347 27.7031 59.454 27.3462 59.6458C27.2089 59.5636 27.0717 59.5088 26.9344 59.454C26.4951 59.3443 26.0283 59.2621 25.589 59.1799C25.6989 59.0154 25.7812 58.8235 25.7538 58.6316C25.7263 58.1656 25.5067 57.6996 25.1772 57.3707C25.3694 57.261 25.5067 57.0966 25.5616 56.8225C25.6165 56.4935 25.2321 56.0824 25.0399 55.8357C24.985 55.7808 24.9301 55.726 24.8477 55.6712C24.9575 55.6438 25.0674 55.589 25.1497 55.5067C25.1772 55.4793 25.1772 55.4519 25.2047 55.4245C25.3419 55.1504 25.0399 54.9037 24.9026 54.6844C24.8203 54.5747 24.7105 54.4651 24.5732 54.3829C24.6006 54.3829 24.6281 54.3554 24.6555 54.3554C24.985 54.191 24.8477 53.9717 24.6281 53.8072C24.6555 53.7524 24.683 53.6976 24.6555 53.6427C24.6281 53.4509 24.4633 53.3412 24.326 53.259C24.4908 53.1219 24.5732 52.93 24.4633 52.6833C24.4084 52.5463 24.2712 52.464 24.1339 52.3544C24.2986 52.2448 24.3535 52.0803 24.2712 51.8336C24.1613 51.5595 23.7495 51.395 23.5024 51.2579C23.3926 51.2031 23.2827 51.1757 23.1729 51.1483C23.3925 50.929 23.5298 50.6823 23.3925 50.463C23.2827 50.2711 23.118 50.1615 22.9532 50.0792C23.0082 49.9696 23.0082 49.86 22.9258 49.7503C22.7336 49.4762 22.1296 49.4762 21.7727 49.5036C21.9374 49.2021 22.1021 48.8183 21.9648 48.5442C21.8825 48.3797 21.6903 48.4071 21.4157 48.5168C21.4157 48.4894 21.4157 48.462 21.4157 48.462C21.4432 48.1056 21.4157 47.7493 21.4432 47.3929C21.4432 47.201 21.4706 46.8447 21.2784 46.7351C21.0588 46.598 20.6744 47.2833 20.3175 48.0508C20.3449 47.7219 20.3998 47.4203 20.4273 47.0914C20.4548 46.6802 20.3999 46.2965 20.3724 45.8853C20.345 45.4741 19.988 45.2822 19.7409 45.666C19.7134 45.6934 19.7135 45.7208 19.686 45.7756V45.7482C19.7135 45.3645 19.8782 44.4873 19.5487 44.1858C19.384 44.0487 19.2192 44.4051 19.1369 44.7066C19.1918 44.3228 19.1918 43.9391 19.1643 43.5827C19.1643 43.3086 19.1643 42.8152 18.8898 42.6507C18.8623 42.6233 18.8074 42.6507 18.78 42.6782C18.7525 42.7056 18.7525 42.7056 18.725 42.733C18.7525 42.2122 18.6976 41.6913 18.3956 41.2528C17.8465 40.4304 17.4072 41.801 17.1875 42.1848C17.0777 42.404 16.9679 42.5959 16.8855 42.8426C16.9679 42.3766 17.0502 41.9106 17.0777 41.4446C17.0777 40.9238 16.9129 40.4304 16.8306 39.9096C16.8031 39.8 16.7208 39.2791 16.5011 39.4436C16.254 39.6081 16.2266 40.0192 16.1167 40.2659C15.8971 40.8964 15.7049 41.5543 15.5401 42.2122C15.5676 41.8558 15.595 41.5269 15.6225 41.1705C15.65 40.5126 15.6774 39.8548 15.5676 39.2243C15.5402 39.005 15.4578 38.3746 15.2381 38.2101C14.7714 37.8537 14.1948 39.937 14.1124 40.1563C13.9751 40.5949 13.8653 41.0609 13.7555 41.5269C13.783 41.2253 13.783 40.9512 13.783 40.6497C13.783 40.0192 13.6182 39.4162 13.4535 38.8131C13.3986 38.6761 13.2887 38.073 13.0416 38.402C12.7122 38.8131 12.5475 39.3614 12.3827 39.8548C12.1905 40.4578 11.9983 41.0609 11.8336 41.6913C11.6689 42.3218 11.5041 42.9523 11.3668 43.5827C11.3668 43.6101 11.3394 43.665 11.3394 43.6924C11.3119 43.7746 11.257 43.8843 11.2296 43.9665C11.2296 43.6924 11.2296 43.3909 11.2296 43.1167C11.2296 42.404 11.2021 41.7188 11.1472 41.0335C11.1197 40.6771 11.0374 40.3482 11.0374 40.0192C11.0374 39.8548 11.0099 39.6355 10.9276 39.4984C10.8726 39.4162 10.7903 39.4984 10.7628 39.5258C10.5706 39.7451 10.5157 40.0192 10.4059 40.2934C10.2686 40.7045 10.1588 41.1157 10.0764 41.5543C9.99405 41.9929 9.91168 42.4315 9.85677 42.8974C9.85677 42.9249 9.85674 42.9797 9.82929 43.0071V43.0345C9.77437 43.5005 9.69201 43.9391 9.66456 44.4051C9.60965 45.0355 9.52727 45.6934 9.4449 46.3239C9.41745 46.4335 9.36255 46.5432 9.3351 46.6802C9.17036 47.3107 9.17034 47.9412 9.22525 48.599C9.28016 49.2021 9.91166 51.2031 10.653 53.3412C10.7628 53.6427 10.8452 53.9443 10.9824 54.2458C11.9708 57.0418 13.0417 59.8377 13.124 60.0296C13.1515 60.1667 13.1515 60.3037 13.1789 60.4134C12.8769 60.4408 12.5749 60.4408 12.2454 60.4682C12.1081 60.4682 11.9983 60.4956 11.861 60.4956C10.2411 60.6053 8.64868 60.7149 8.45649 60.7423C8.23684 60.7697 7.96231 60.8519 7.63284 60.9616C7.60539 60.9616 7.60537 60.989 7.57792 60.989C7.52301 61.0164 7.46807 61.0438 7.38571 61.0712C7.35825 61.0987 7.30336 61.0987 7.2759 61.1261C7.22099 61.1535 7.1386 61.1809 7.08369 61.2357C7.05623 61.2631 7.00134 61.2631 6.97388 61.2905C6.91897 61.3454 6.83658 61.3728 6.78167 61.4276C6.75421 61.455 6.72676 61.455 6.69931 61.4824C6.61694 61.5646 6.50714 61.6469 6.42477 61.7291C6.31495 61.8388 6.20511 62.0032 6.15019 62.1403C6.15019 62.1403 6.15021 62.1403 6.12275 62.1403C6.12275 62.1403 6.09529 62.1403 6.06783 62.1403C6.06783 62.1403 6.06785 62.1403 6.04039 62.1403C6.04039 62.1403 6.04036 62.1403 6.01291 62.1403C5.98545 62.1403 5.958 62.1403 5.93054 62.1677H5.9031C5.87565 62.1677 5.82072 62.1951 5.76581 62.1951C5.76581 62.1951 5.76583 62.1951 5.73837 62.1951C5.73837 62.1951 5.7109 62.1951 5.68345 62.1951C5.65599 62.1951 5.6011 62.2225 5.57364 62.2225C5.54619 62.2225 5.54617 62.2225 5.51872 62.2225H5.49124C5.46378 62.2225 5.40889 62.2499 5.38143 62.2499C5.35397 62.2499 5.32651 62.2773 5.32651 62.2773C5.32651 62.2773 5.32652 62.2773 5.29907 62.2773C5.27161 62.2773 5.2716 62.3048 5.24414 62.3048C5.18923 62.3322 5.16177 62.3322 5.10685 62.3596C5.0794 62.387 5.05195 62.387 5.02449 62.4144C4.96958 62.4418 4.9147 62.4692 4.88724 62.4966C4.85979 62.5241 4.83229 62.5241 4.80484 62.5515C4.74992 62.5789 4.69505 62.6063 4.66759 62.6337C4.64013 62.6611 4.61268 62.6885 4.58523 62.6885C4.53031 62.7159 4.50285 62.7433 4.44794 62.7982C4.42048 62.8256 4.39303 62.853 4.36557 62.8804C4.31066 62.9078 4.2832 62.9626 4.22828 62.99C4.20083 63.0175 4.17338 63.0449 4.14592 63.0723C4.11846 63.1271 4.06353 63.1545 4.03607 63.2093C4.00862 63.2367 3.98116 63.2916 3.95371 63.319C3.92625 63.3738 3.8988 63.4286 3.87134 63.4835C3.84389 63.5109 3.84388 63.5657 3.81642 63.6205C3.78896 63.6753 3.76151 63.7301 3.73405 63.785C3.7066 63.8398 3.70661 63.8946 3.70661 63.922C3.67916 63.9769 3.67915 64.0591 3.65169 64.1139C3.65169 64.1413 3.65169 64.1687 3.65169 64.1687C3.65169 64.1962 3.65169 64.251 3.65169 64.3058C3.65169 64.3606 3.65169 64.388 3.65169 64.4429V64.4154C3.65169 64.4703 3.65169 64.4977 3.65169 64.5525C3.65169 64.5525 3.67914 64.7718 3.73405 64.717C3.76151 64.6895 3.78899 64.6347 3.8439 64.5525C3.87136 64.5251 3.89881 64.4977 3.92627 64.4703C4.22828 64.6073 5.38145 65.0459 7.02881 64.7718C7.02881 64.7718 7.02879 64.7718 7.05625 64.7718C7.0837 64.7992 7.11116 64.7992 7.13861 64.8266C7.22098 64.8814 7.2759 64.9088 7.35826 64.9637C7.35826 64.9637 7.38571 64.9637 7.38571 64.9911C7.46807 65.0459 7.57791 65.0733 7.66028 65.1281C7.68774 65.1281 7.71519 65.1555 7.74265 65.1555C7.82501 65.183 7.87993 65.2104 7.9623 65.2378C7.98976 65.2378 8.01719 65.2652 8.07211 65.2652C8.12702 65.2926 8.20941 65.32 8.26432 65.32C8.29177 65.32 8.31921 65.3474 8.37412 65.3474C8.56631 65.4023 8.75852 65.4571 8.95072 65.5119C9.52729 65.6764 10.9001 66.0601 12.1631 66.4165C12.1356 66.4987 12.1082 66.5809 12.0807 66.6632C11.3668 68.4997 10.4059 70.1444 9.19781 71.6795C6.91896 74.6125 4.06354 77.0795 0.741363 78.7516C0.686451 78.779 0.631527 78.8887 0.686439 78.9161C1.01591 79.1354 1.48267 78.9435 1.81214 78.8887C2.41618 78.779 2.96532 78.5323 3.51444 78.2856C3.95374 78.0664 4.36557 77.8471 4.74995 77.5729C4.7225 77.6278 4.69502 77.6552 4.64011 77.71C4.22827 78.2856 3.8988 78.8887 3.56933 79.4917C3.40459 79.8207 2.44366 81.7669 3.29479 81.7943C3.56935 81.7943 3.84388 81.575 4.03607 81.4379C4.28318 81.2461 4.53029 81.0268 4.7774 80.8075C4.83231 80.7527 4.88721 80.6979 4.94212 80.643C4.88721 80.8349 4.83229 80.9994 4.80484 81.1913C4.80484 81.2187 4.80485 81.2461 4.7774 81.2735C4.72248 81.5202 4.66758 81.7943 4.61267 82.041C4.5303 82.5344 4.44791 83.0552 4.50282 83.5486C4.53028 83.8228 4.61268 84.3162 4.96961 84.2339C5.27162 84.1791 5.4638 83.8227 5.60108 83.6035C6.17766 82.7263 6.5346 81.7395 6.94644 80.7801C6.83662 81.4379 6.83659 82.1232 6.83659 82.8085C6.83659 83.1649 6.89149 83.4938 7.16605 83.7405C7.35824 83.905 7.60538 83.6857 7.71521 83.5486C7.9074 83.3019 8.01722 82.8908 8.09959 82.5892C8.12704 82.507 8.15447 82.4248 8.15447 82.3151C8.15447 82.3973 8.18195 82.4522 8.18195 82.5344C8.26432 83.0826 8.42906 83.6035 8.78599 84.042C9.088 84.3984 9.60966 84.4532 9.93913 84.1517C10.6804 83.5212 10.7079 82.2603 10.7903 81.3557C10.8177 80.9994 10.8177 80.6156 10.8177 80.2593C10.9275 80.7801 11.0648 81.3009 11.2021 81.8217C11.3394 82.4248 11.3943 83.0826 11.7787 83.6035C11.9709 83.8776 12.2729 83.8502 12.4376 83.5486C12.5749 83.2471 12.52 82.8359 12.4925 82.5344C12.4102 81.8491 12.3003 81.1638 12.1631 80.4785C12.1356 80.3141 12.0807 80.1496 12.0532 79.9577C12.1081 80.0948 12.1631 80.2044 12.218 80.3415C12.4925 80.972 12.7946 81.6024 13.1515 82.1781C13.3986 82.5892 13.7006 83.0552 14.1948 83.1649C15.046 83.3842 14.6341 81.2735 14.5792 81.0268C14.4694 80.5334 14.3046 80.0674 14.1124 79.574C14.3321 79.9577 14.5517 80.3689 14.7988 80.7527C15.0459 81.1364 15.4029 81.6847 15.8422 81.8491C16.0618 81.9314 16.3913 81.9862 16.556 81.7395C16.8855 81.2735 16.4462 80.4511 16.254 79.9851C16.1442 79.7384 16.0069 79.4917 15.8696 79.245C16.0069 79.3547 16.1442 79.4643 16.3089 79.574C16.5011 79.711 16.7208 79.7658 16.9404 79.8755C17.1326 79.9851 17.3248 80.0948 17.5444 80.2044C17.8739 80.3415 18.2308 80.3415 18.4779 80.0674C18.6976 79.7933 18.6976 79.4643 18.5603 79.1354C18.9447 79.4643 19.6311 80.0674 19.9606 79.4917C20.2077 79.0806 19.7684 78.3953 19.5762 78.0389C19.4389 77.8196 19.3016 77.6004 19.1643 77.3811C19.4664 77.71 19.7409 78.0938 20.0704 78.4227C20.2626 78.6146 20.7842 79.2176 21.0863 78.9161C21.5256 78.4775 21.0314 77.7648 20.7568 77.4085C20.7019 77.3537 20.6744 77.2988 20.6195 77.244C20.647 77.2714 20.7019 77.2988 20.7293 77.3262C20.9764 77.5181 21.2235 77.7922 21.4981 77.9019C22.0472 78.0938 22.6238 77.7922 22.4865 77.1892C22.4316 76.9425 22.3218 76.7232 22.157 76.5039C22.4865 76.7506 23.2553 77.2988 23.3651 76.6958C23.42 76.4217 23.2553 76.1201 23.1455 75.8734C22.9533 75.4348 22.6513 75.0511 22.3767 74.6673C22.3767 74.6399 22.3492 74.6399 22.3492 74.6125C22.6238 74.777 22.9258 74.9689 23.2004 75.1333C23.6671 75.4074 24.3261 75.9831 24.9026 75.6541C25.6989 75.1607 24.8477 73.8724 24.5732 73.3242C24.4908 73.1597 24.381 72.9952 24.2712 72.8034C24.2986 72.8308 24.3261 72.8308 24.3535 72.8582C24.6555 73.05 25.6714 73.9272 26.0283 73.4612C26.4127 72.9678 26.1656 72.3648 25.8636 71.8988C25.644 71.5972 25.4518 71.3231 25.2047 71.0764C25.3145 71.1312 25.3969 71.1587 25.4792 71.2135C25.6714 71.3505 25.9734 71.4054 26.1656 71.515C26.3578 71.6247 26.55 71.7617 26.7696 71.8165C26.8245 71.8165 26.8795 71.7617 26.9069 71.7343C27.0442 71.515 26.9618 71.3231 26.7971 71.1313C26.6049 70.8845 26.4676 70.6104 26.248 70.3637C26.55 70.5008 26.9069 70.583 27.2089 70.5556C27.3737 70.5282 27.511 70.4186 27.5659 70.2541C27.7032 69.8977 27.4011 69.5414 27.1815 69.2673C27.154 69.2399 27.154 69.2124 27.1266 69.2124C27.4835 69.3769 27.8953 69.4866 28.115 69.185C28.3346 68.9109 28.2797 68.5546 28.1424 68.2256C27.9502 67.6774 27.6482 67.1566 27.2639 66.718C27.1266 66.5809 26.9893 66.4439 26.852 66.3068C26.8795 66.3068 26.9069 66.2794 26.9069 66.2794C26.9344 66.2794 26.9618 66.252 27.0168 66.2246C27.154 66.252 27.3187 66.2794 27.456 66.2794C27.7031 66.2794 27.8404 66.0601 27.813 65.8682C28.0052 65.786 28.1699 65.6764 28.3346 65.5667C28.5268 65.4297 28.6915 65.2926 28.8288 65.1007C28.8837 65.1556 28.9387 65.183 28.9936 65.2378C28.9936 65.2378 28.9936 65.2378 29.021 65.2652C29.1309 65.3748 29.2407 65.4571 29.3505 65.5667C29.3779 65.5941 29.4054 65.6215 29.4329 65.649C29.5427 65.7586 29.6525 65.8408 29.7624 65.9505L29.7898 65.9779C29.8173 65.9779 29.8172 66.0053 29.8172 66.0053C29.8447 66.0327 29.8722 66.0601 29.9271 66.0875C29.982 66.1424 30.0644 66.1972 30.1467 66.252C30.2017 66.2794 30.2291 66.3342 30.284 66.3617C30.3664 66.4165 30.4488 66.4713 30.5311 66.5261C30.586 66.5535 30.6135 66.5809 30.6684 66.6084C30.8057 66.6906 30.9155 66.7728 31.0528 66.8277C31.0802 66.8277 31.0802 66.8002 31.1077 66.8002C31.7117 67.2662 32.2609 67.7048 32.7276 68.0886C32.7002 67.9515 32.6727 67.8419 32.6178 67.7048C32.6178 67.6774 32.8923 68.0886 33.0021 68.2805C33.112 68.3627 33.2218 68.4723 33.3316 68.5546C33.2767 68.3627 33.2218 68.1708 33.1944 67.9789C33.1944 67.9789 33.1943 68.0063 33.2218 68.0063C33.2218 68.0063 33.2218 68.0063 33.2218 68.0337C33.2218 68.0612 33.2492 68.0612 33.2492 68.0886C33.2492 68.0886 33.2492 68.0886 33.2492 68.116C33.2492 68.116 33.2767 68.1434 33.2767 68.1708C33.3591 68.3353 33.4689 68.582 33.5513 68.7464C33.7709 68.9109 33.9357 69.0206 33.9631 69.0754C34.375 69.3495 34.7319 69.3221 34.979 69.2399C35.1712 69.185 35.3084 69.0754 35.3084 69.0754C35.3084 69.0754 35.4183 69.048 35.5006 68.9383C35.5556 68.8287 35.5556 68.719 35.5556 68.719C35.5556 68.719 35.6105 68.582 35.583 68.3627C35.583 68.1708 35.5281 67.9515 35.3634 67.7322C35.4732 67.787 35.5556 67.8419 35.583 67.8419C36.0498 68.0337 36.4067 67.9515 36.6264 67.8419C36.8185 67.7596 36.9284 67.6226 36.9284 67.6226C36.9284 67.6226 37.0107 67.5678 37.0931 67.4581C37.1206 67.321 37.1205 67.2388 37.1205 67.2388C37.1205 67.2388 37.148 67.0743 37.0931 66.8825C37.0382 66.6358 36.8734 66.3068 36.4341 66.0601C36.4341 66.0601 36.4342 66.0601 36.4067 66.0601C36.3243 66.0053 36.0772 65.8957 35.7203 65.7586C35.6928 65.7586 35.6654 65.7586 35.6379 65.7586C35.5281 65.7586 35.4183 65.7586 35.281 65.7312C35.0339 65.7312 34.8143 65.7038 34.5672 65.7038C34.5397 65.7038 35.0064 65.5667 35.2261 65.5393C35.1986 65.5119 35.1712 65.5119 35.1163 65.4845C35.1712 65.5119 35.2261 65.5119 35.281 65.5393C35.1986 65.4297 35.1163 65.32 35.0613 65.2378C35.0339 65.2104 35.4732 65.4845 35.6379 65.649C35.7752 65.7038 35.9125 65.7312 36.0498 65.786C35.9399 65.6215 35.8026 65.4571 35.6928 65.2926C35.6928 65.2926 35.7203 65.2926 35.7203 65.32C35.7203 65.32 35.7203 65.32 35.7477 65.3474L35.7752 65.3748C35.9125 65.4845 36.1871 65.7312 36.3243 65.8682C36.5989 65.9505 36.7911 66.0053 36.846 66.0053C37.3402 66.1149 37.6697 65.9505 37.8619 65.8134C38.0266 65.6764 38.109 65.5393 38.109 65.5393C38.109 65.5393 38.1913 65.4571 38.2462 65.3474C38.2462 65.2104 38.2188 65.1281 38.2188 65.1281C38.2188 65.1281 38.2188 64.9637 38.1364 64.7718C38.0266 64.5251 37.8069 64.251 37.3402 64.0865C37.3402 64.0865 37.3402 64.0865 37.3128 64.0865C37.2578 64.0591 37.148 64.0591 36.9833 64.0043C37.3676 63.9769 37.6148 63.8124 37.7795 63.6753C37.9168 63.5383 37.9992 63.3738 37.9992 63.3738C37.9992 63.3738 38.054 63.2916 38.109 63.1545C38.109 63.0175 38.054 62.9352 38.054 62.9352C38.054 62.9352 38.0266 62.7708 37.9168 62.6063C37.8344 62.4692 37.6971 62.3048 37.4775 62.1951C37.8344 62.1129 38.054 61.921 38.1913 61.7565C38.3286 61.5921 38.3561 61.4276 38.3561 61.4276C38.3561 61.4276 38.411 61.3454 38.4384 61.2083C38.411 61.0712 38.3561 60.989 38.3561 60.989C38.3561 60.989 38.3012 60.852 38.1639 60.6875C38.1639 60.6601 38.1364 60.6601 38.109 60.6327C38.1364 60.6052 38.1639 60.5778 38.1913 60.5778C38.3286 60.4682 38.3561 60.3585 38.3561 60.3585C38.3561 60.3585 38.411 60.3037 38.4384 60.2215C38.411 60.1393 38.3561 60.0844 38.3561 60.0844C38.3561 60.0844 38.3012 59.9748 38.1639 59.8926C38.0541 59.8103 37.9168 59.7555 37.7246 59.7007C37.9717 59.6184 38.1639 59.3991 38.2462 59.1799ZM34.622 67.1566C34.622 67.1566 34.622 67.184 34.622 67.1566C34.6495 67.184 34.6495 67.184 34.6495 67.184C34.7044 67.2662 34.7868 67.3759 34.8417 67.4581C34.7868 67.4307 34.7319 67.3759 34.6495 67.3211C34.5946 67.2114 34.5671 67.1292 34.5122 67.0195C34.5671 67.0744 34.5946 67.1018 34.622 67.1566ZM36.0772 59.8377C36.0772 59.8377 36.1047 59.8377 36.0772 59.8377C36.1047 59.8377 36.1047 59.8377 36.1321 59.8377H36.0772C36.0772 59.8377 36.0498 59.8377 36.0223 59.8377C36.0223 59.8377 36.0223 59.8377 36.0498 59.8377C36.0498 59.8103 36.0772 59.8103 36.0772 59.8377ZM36.1596 62.1129C36.1596 62.1129 36.1322 62.1129 36.1596 62.1129C36.1322 62.1129 36.1047 62.1403 36.0772 62.1403C35.9948 62.0855 35.94 62.0306 35.8576 61.9758C35.8301 61.9484 35.9674 62.0306 36.1596 62.1129ZM34.018 67.0743C33.9905 67.0195 33.9631 66.9373 33.9082 66.8825C33.9082 66.8551 34.018 66.9921 34.1553 67.1018C34.1004 67.1018 34.0729 67.1018 34.018 67.0743ZM33.6611 66.9921C33.5238 66.9647 33.414 66.9373 33.2767 66.9099C33.2767 66.9099 33.3316 66.8825 33.4414 66.8825C33.5238 66.9373 33.5787 66.9647 33.6611 66.9921ZM35.583 58.4397C35.6379 58.4397 35.6929 58.4397 35.7752 58.4397C35.7478 58.4397 35.7478 58.4672 35.7203 58.4672C35.6654 58.4946 35.6379 58.4672 35.583 58.4397ZM35.3634 58.7687C35.3084 58.7961 35.281 58.8235 35.2261 58.8509H35.1986C35.1986 58.8235 35.2261 58.7961 35.2536 58.7687C35.3085 58.7687 35.3359 58.7687 35.3634 58.7687ZM35.2261 62.3322C35.281 62.3322 35.3359 62.3322 35.3908 62.3322C35.3084 62.3596 35.1986 62.387 35.1163 62.4144C35.1163 62.4144 35.1712 62.387 35.2261 62.3322ZM35.5006 62.3048C35.4732 62.2773 35.4183 62.2499 35.3908 62.2225C35.4183 62.1951 35.4458 62.1951 35.4732 62.1677C35.5556 62.1951 35.6105 62.2225 35.6928 62.2499C35.6379 62.2773 35.5556 62.2773 35.5006 62.3048ZM34.7868 63.8124C34.8417 63.8124 34.8966 63.8398 34.979 63.8398C34.8966 63.8398 34.8142 63.8672 34.7593 63.8672C34.7319 63.8672 34.7594 63.8398 34.7868 63.8124ZM35.1163 63.8124C35.0614 63.7302 34.979 63.6753 34.9241 63.5931C34.9241 63.5931 35.1163 63.6753 35.281 63.785C35.2261 63.785 35.1712 63.8124 35.1163 63.8124ZM36.0772 64.1139C35.8301 64.1413 35.6105 64.1961 35.3634 64.2236C35.3359 64.2236 35.583 64.0865 35.8027 64.0043C35.8576 64.0043 35.885 64.0317 35.94 64.0317C35.9125 64.0043 35.9125 64.0043 35.885 63.9769C35.9125 63.9769 35.9399 63.9494 35.9674 63.9494C35.9125 63.9494 35.885 63.922 35.8301 63.922C35.7203 63.8124 35.6379 63.7027 35.5281 63.5931C35.5281 63.5931 35.5281 63.5931 35.5556 63.5931C35.5556 63.5931 35.5556 63.5931 35.583 63.5931C35.583 63.5931 35.6105 63.5931 35.6105 63.6205L35.6379 63.6479L35.6654 63.6753C35.6928 63.7027 35.7203 63.7027 35.7477 63.7302C35.9125 63.8398 36.1047 63.9769 36.2145 64.0591C36.2419 64.0591 36.2694 64.0591 36.2969 64.0865C36.2419 64.0865 36.1596 64.0865 36.0772 64.1139ZM33.9356 65.3748C33.9082 65.3748 33.9631 65.3474 34.018 65.32C34.1278 65.3474 34.2102 65.3748 34.2926 65.4022C34.1828 65.3748 34.0729 65.3748 33.9356 65.3748Z" fill="#005344" fill-opacity="0.2"/>
</svg>
