<svg version="1.1"
     baseProfile="full"
     xmlns="http://www.w3.org/2000/svg"
>

    <symbol id="search" viewBox="0 0 24 24">
        <path fill-rule="evenodd" clip-rule="evenodd" d="M11.739 2C17.109 2 21.477 6.368 21.477 11.738C21.477 14.2715 20.5047 16.5823 18.9136 18.3165L22.0444 21.4407C22.3374 21.7337 22.3384 22.2077 22.0454 22.5007C21.8994 22.6487 21.7064 22.7217 21.5144 22.7217C21.3234 22.7217 21.1314 22.6487 20.9844 22.5027L17.8159 19.343C16.1491 20.6778 14.0357 21.477 11.739 21.477C6.369 21.477 2 17.108 2 11.738C2 6.368 6.369 2 11.739 2ZM11.739 3.5C7.196 3.5 3.5 7.195 3.5 11.738C3.5 16.281 7.196 19.977 11.739 19.977C16.281 19.977 19.977 16.281 19.977 11.738C19.977 7.195 16.281 3.5 11.739 3.5Z" fill="#005344"/>
    </symbol>

    <symbol id="burger" viewBox="0 0 30 30">
        <g clip-path="url(#clip0_118:239)">
            <path d="M30 25H0V26.875H30V25Z" fill="#005344"/>
            <path d="M30 14.375H0V16.25H30V14.375Z" fill="#005344"/>
            <path d="M30 3.75H0V5.625H30V3.75Z" fill="#005344"/>
        </g>
        <defs>
            <clipPath id="clip0_118:239">
                <rect width="30" height="30" fill="white"/>
            </clipPath>
        </defs>
    </symbol>

    <symbol id="tg" viewBox="0 0 35 35" fill="none">
        <circle cx="17.5" cy="17.5" r="17" stroke="#BF927A" stroke-opacity="0.6"/>
        <path d="M9.27037 17.4559L12.8152 18.7777L14.1971 23.2238C14.2572 23.5242 14.6177 23.5842 14.858 23.404L16.8407 21.7818C17.0209 21.6015 17.3214 21.6015 17.5617 21.7818L21.1065 24.3653C21.3468 24.5456 21.7073 24.4254 21.7674 24.125L24.411 11.5078C24.4711 11.2074 24.1707 10.907 23.8703 11.0271L9.27037 16.6748C8.90988 16.795 8.90988 17.3357 9.27037 17.4559ZM14.0169 18.1168L20.9863 13.851C21.1065 13.7909 21.2267 13.9711 21.1065 14.0312L15.3987 19.3785C15.2185 19.5588 15.0382 19.7991 15.0382 20.0995L14.858 21.5415C14.858 21.7217 14.5576 21.7818 14.4975 21.5415L13.7765 18.8979C13.5963 18.5974 13.7164 18.237 14.0169 18.1168Z" fill="#BF927A"/>
    </symbol>

    <symbol id="fb" viewBox="0 0 35 35" fill="none">
        <circle cx="17.5" cy="17.5" r="17" stroke="#BF927A" stroke-opacity="0.6"/>
        <path d="M25 13.3212C25 12.0881 23.9119 11 22.6788 11H13.3212C12.0881 11 11 12.0881 11 13.3212V22.6787C11 23.9119 12.0881 25 13.3212 25H18.0363V19.7047H16.2953V17.3834H18.0363V16.4404C18.0363 14.8446 19.1969 13.4663 20.6477 13.4663H22.5337V15.7876H20.6477C20.4301 15.7876 20.2124 16.0052 20.2124 16.4404V17.3834H22.5337V19.7047H20.2124V25H22.6788C23.9119 25 25 23.9119 25 22.6787V13.3212Z" fill="#BF927A"/>
    </symbol>

    <symbol id="inst" viewBox="0 0 35 35" fill="none">
        <circle cx="17.5" cy="17.5" r="17" stroke="#BF927A" stroke-opacity="0.6"/>
        <path d="M23.0077 11H12.9923C11.8615 11 11 11.8615 11 12.9923V23.0077C11 24.1385 11.8615 25 12.9923 25H23.0077C24.1385 25 25 24.1385 25 23.0077V12.9923C25 11.8615 24.1385 11 23.0077 11ZM18 22.2C20.3154 22.2 22.2 20.3692 22.2 18.1615C22.2 17.7846 22.1462 17.3538 22.0385 17.0308H23.2231V22.7385C23.2231 23.0077 23.0077 23.2769 22.6846 23.2769H13.3154C13.0462 23.2769 12.7769 23.0615 12.7769 22.7385V16.9769H14.0154C13.9077 17.3538 13.8538 17.7308 13.8538 18.1077C13.8 20.3692 15.6846 22.2 18 22.2ZM18 20.5846C16.4923 20.5846 15.3077 19.4 15.3077 17.9462C15.3077 16.4923 16.4923 15.3077 18 15.3077C19.5077 15.3077 20.6923 16.4923 20.6923 17.9462C20.6923 19.4538 19.5077 20.5846 18 20.5846ZM23.1692 14.8231C23.1692 15.1462 22.9 15.4154 22.5769 15.4154H21.0692C20.7462 15.4154 20.4769 15.1462 20.4769 14.8231V13.3692C20.4769 13.0462 20.7462 12.7769 21.0692 12.7769H22.5769C22.9 12.7769 23.1692 13.0462 23.1692 13.3692V14.8231Z" fill="#BF927A"/>
    </symbol>

    <symbol id="youtube" viewBox="0 0 35 35" fill="none">
        <circle cx="17.5" cy="17.5" r="17" stroke="#BF927A" stroke-opacity="0.6"/>
        <path d="M25.3293 16.5293C25.3293 16.1717 25.2697 15.7545 25.2697 15.2778C25.2101 14.801 25.1505 14.3242 25.0909 13.9071C24.9717 13.4303 24.7929 13.0727 24.4353 12.7747C24.1374 12.4768 23.7202 12.298 23.303 12.2384C21.9323 12.0596 19.9061 12 17.1647 12C14.4232 12 12.3374 12.0596 11.0263 12.2384C10.6091 12.298 10.1919 12.4768 9.89394 12.7747C9.59596 13.0727 9.35757 13.4303 9.23838 13.9071C9.11919 14.3242 9.0596 14.7414 9.0596 15.2778C9 15.7545 9 16.1717 9 16.5293C9 16.8869 9 17.304 9 17.9C9 18.496 9 18.9727 9 19.2707C9 19.6283 9.0596 20.0455 9.0596 20.5222C9.1192 20.999 9.17878 21.4757 9.23838 21.8929C9.35757 22.3697 9.53636 22.7273 9.89394 23.0253C10.1919 23.3232 10.6091 23.502 11.0263 23.5616C12.397 23.7404 14.4232 23.8 17.1647 23.8C19.9061 23.8 21.9919 23.7404 23.303 23.5616C23.7202 23.502 24.1374 23.3232 24.4353 23.0253C24.7333 22.7273 24.9717 22.3697 25.0909 21.8929C25.2101 21.4757 25.2697 21.0586 25.2697 20.5222C25.3293 20.0455 25.3293 19.6283 25.3293 19.2707C25.3293 18.9131 25.3293 18.496 25.3293 17.9C25.3293 17.304 25.3293 16.8273 25.3293 16.5293ZM20.3232 18.3768L15.6152 21.297C15.5556 21.3566 15.4364 21.4162 15.3172 21.4162C15.198 21.4162 15.1384 21.4162 15.0192 21.3566C14.8404 21.2374 14.7212 21.0586 14.7212 20.8202V14.9202C14.7212 14.6818 14.8404 14.503 15.0192 14.3838C15.198 14.2646 15.4364 14.2646 15.6152 14.3838L20.3232 17.304C20.502 17.4232 20.6212 17.602 20.6212 17.7808C20.6212 17.9596 20.502 18.2576 20.3232 18.3768Z" fill="#BF927A"/>
    </symbol>

    <symbol id="arrow-right" viewBox="0 0 20 20">
        <path d="M6.64107 16.2753C6.41918 16.0534 6.39901 15.7062 6.58055 15.4615L6.64107 15.3914L12.0322 10L6.64107 4.60862C6.41918 4.38673 6.39901 4.03951 6.58055 3.79483L6.64107 3.72473C6.86295 3.50284 7.21017 3.48267 7.45485 3.66422L7.52495 3.72473L13.3583 9.55807C13.5802 9.77996 13.6003 10.1272 13.4188 10.3719L13.3583 10.442L7.52495 16.2753C7.28087 16.5194 6.88514 16.5194 6.64107 16.2753Z" fill="#A1A1A1"/>
    </symbol>

    <symbol id="eye" viewBox="0 0 20 20">
        <path fill-rule="evenodd" clip-rule="evenodd" d="M10.0026 3.33374C13.4493 3.33624 16.5443 5.75207 18.2826 9.79707C18.351 9.95457 18.351 10.1329 18.2826 10.2904C16.5451 14.3362 13.4493 16.7521 10.0026 16.7546H9.99762C6.55095 16.7521 3.45595 14.3362 1.71762 10.2904C1.65012 10.1329 1.65012 9.95457 1.71762 9.79707C3.45595 5.75207 6.55178 3.33624 9.99762 3.33374H10.0026ZM10.0001 4.58374C7.13678 4.58457 4.52512 6.62041 2.97512 10.0437C4.52512 13.4679 7.13595 15.5037 10.0001 15.5046C12.8643 15.5037 15.4751 13.4679 17.0251 10.0437C15.4751 6.62041 12.8643 4.58457 10.0001 4.58374ZM9.99987 6.78441C11.7974 6.78441 13.2599 8.24691 13.2599 10.0444C13.2599 11.8411 11.7974 13.3027 9.99987 13.3027C8.20237 13.3027 6.7407 11.8411 6.7407 10.0444C6.7407 8.24691 8.20237 6.78441 9.99987 6.78441ZM9.99987 8.03441C8.89153 8.03441 7.9907 8.93607 7.9907 10.0444C7.9907 11.1519 8.89153 12.0527 9.99987 12.0527C11.1082 12.0527 12.0099 11.1519 12.0099 10.0444C12.0099 8.93607 11.1082 8.03441 9.99987 8.03441Z"/>
    </symbol>

    <symbol id="mail" viewBox="0 0 24 24">
        <path fill-rule="evenodd" clip-rule="evenodd" d="M16.659 2C19.989 2 22.5 4.717 22.5 8.32V15.188C22.5 17.032 21.848 18.698 20.663 19.88C19.6 20.939 18.221 21.5 16.675 21.5H6.822C5.279 21.5 3.901 20.94 2.837 19.88C1.652 18.698 1 17.032 1 15.188V8.32C1 4.717 3.511 2 6.841 2H16.659ZM16.659 3.5H6.841C4.326 3.5 2.5 5.527 2.5 8.32V15.188C2.5 16.631 2.996 17.92 3.896 18.817C4.672 19.592 5.685 20 6.825 20H16.659C16.661 19.998 16.669 20 16.675 20C17.816 20 18.828 19.592 19.604 18.817C20.505 17.92 21 16.631 21 15.188V8.32C21 5.527 19.174 3.5 16.659 3.5ZM18.235 8.1288C18.496 8.4498 18.447 8.9218 18.126 9.1838L13.682 12.7958C13.12 13.2418 12.448 13.4648 11.777 13.4648C11.108 13.4648 10.441 13.2438 9.883 12.8018L5.398 9.1858C5.075 8.9258 5.025 8.4528 5.284 8.1308C5.545 7.8098 6.017 7.7588 6.339 8.0178L10.82 11.6298C11.383 12.0758 12.176 12.0758 12.743 11.6258L17.179 8.0198C17.501 7.7568 17.973 7.8068 18.235 8.1288Z" fill="#646D70"/>
    </symbol>

    <symbol id="arrow-big" viewBox="0 0 30 30">
        <path d="M20.0379 24.4129C20.3707 24.0801 20.401 23.5592 20.1287 23.1922L20.0379 23.0871L11.9513 15L20.0379 6.91291C20.3707 6.58008 20.401 6.05925 20.1287 5.69224L20.0379 5.58709C19.7051 5.25426 19.1842 5.224 18.8172 5.49632L18.7121 5.58709L9.96209 14.3371C9.62925 14.6699 9.599 15.1908 9.87132 15.5578L9.96209 15.6629L18.7121 24.4129C19.0782 24.779 19.6718 24.779 20.0379 24.4129Z"/>
    </symbol>

    <symbol id="twitter-brown" viewBox="0 0 24 24">
        <circle cx="12" cy="12" r="12" fill="#BF927A"/>
        <path d="M18.3596 8.93998C17.9396 9.11998 17.4596 9.23999 16.9796 9.29999C17.4596 8.99999 17.8796 8.51999 18.0596 7.97999C17.5796 8.27999 17.0996 8.45999 16.4996 8.57999C16.0796 8.09999 15.4196 7.79999 14.7596 7.79999C13.4396 7.79999 12.3596 8.87999 12.3596 10.2C12.3596 10.38 12.3596 10.56 12.4196 10.74C10.4396 10.62 8.63961 9.65999 7.43961 8.21999C7.25961 8.57999 7.13961 8.99999 7.13961 9.41999C7.13961 10.26 7.55961 10.98 8.21961 11.4C7.79961 11.4 7.43961 11.28 7.13961 11.1C7.13961 12.24 7.9796 13.26 9.0596 13.44C8.8796 13.5 8.63961 13.5 8.39961 13.5C8.21961 13.5 8.09961 13.5 7.91961 13.44C8.21961 14.4 9.11961 15.12 10.1996 15.12C9.35961 15.78 8.33961 16.14 7.19961 16.14C7.01961 16.14 6.83961 16.14 6.59961 16.08C7.67961 16.74 8.93961 17.16 10.3196 17.16C14.7596 17.16 17.1596 13.5 17.1596 10.32V10.02C17.6396 9.83999 18.0596 9.41998 18.3596 8.93998Z" fill="white"/>
    </symbol>

    <symbol id="fb-brown" viewBox="0 0 24 24">
        <circle cx="12" cy="12" r="12" fill="#BF927A"/>
        <path d="M17.4002 8.2912C17.4002 7.39275 16.6075 6.60001 15.709 6.60001H8.89139C7.99294 6.60001 7.2002 7.39275 7.2002 8.2912V15.1088C7.2002 16.0073 7.99294 16.8 8.89139 16.8H12.3266V12.942H11.0582V11.2508H12.3266V10.5637C12.3266 9.40104 13.1722 8.39689 14.2292 8.39689H15.6033V10.0881H14.2292C14.0707 10.0881 13.9121 10.2466 13.9121 10.5637V11.2508H15.6033V12.942H13.9121V16.8H15.709C16.6075 16.8 17.4002 16.0073 17.4002 15.1088V8.2912Z" fill="white"/>
    </symbol>

    <symbol id="vk-brown" viewBox="0 0 24 24">
        <circle cx="12" cy="12" r="12" fill="#BF927A"/>
        <path d="M17.8841 15.0691C17.8841 15.0193 17.8343 15.0193 17.8343 14.9695C17.635 14.571 17.1867 14.0729 16.5889 13.5249C16.2901 13.2759 16.1406 13.0766 16.041 12.977C15.8915 12.7777 15.8916 12.6283 15.9414 12.429C15.9912 12.2796 16.1904 12.0305 16.5391 11.5822C16.7384 11.3331 16.838 11.1837 16.9874 11.0342C17.7346 10.038 18.0833 9.39038 17.9837 9.0915L17.9339 9.04169C17.8841 8.99187 17.8343 8.94206 17.7346 8.94206C17.635 8.89225 17.4856 8.89225 17.3361 8.94206H15.4432C15.3934 8.94206 15.3934 8.94206 15.2938 8.94206C15.244 8.94206 15.1942 8.94206 15.1942 8.94206H15.1443H15.0945L15.0447 8.99187C14.9949 9.04168 14.9949 9.04168 14.9949 9.0915C14.7956 9.63945 14.5466 10.0878 14.2975 10.5859C14.1481 10.835 13.9986 11.0841 13.8492 11.2833C13.6997 11.4826 13.6001 11.632 13.5005 11.7316C13.4009 11.8313 13.3012 11.8811 13.2514 11.9807C13.2016 12.0305 13.102 12.0803 13.102 12.0305C13.0522 12.0305 13.0023 12.0305 13.0023 11.9807C12.9525 11.9309 12.9027 11.8811 12.8529 11.8313C12.8031 11.7814 12.8031 11.6818 12.7533 11.5822C12.7533 11.4826 12.7533 11.3829 12.7533 11.3331C12.7533 11.2833 12.7533 11.1339 12.7533 11.0342C12.7533 10.8848 12.7533 10.7852 12.7533 10.7354C12.7533 10.5859 12.7533 10.3867 12.7533 10.1874C12.7533 9.98815 12.7533 9.8387 12.7533 9.73908C12.7533 9.63945 12.7533 9.49001 12.7533 9.39038C12.7533 9.24094 12.7533 9.14131 12.7533 9.0915C12.7533 9.04168 12.7035 8.94206 12.7035 8.89224C12.6537 8.84243 12.6038 8.79261 12.554 8.7428C12.5042 8.69299 12.4046 8.69299 12.3548 8.64317C12.1057 8.59336 11.8068 8.54355 11.4581 8.54355C10.6611 8.54355 10.1132 8.59336 9.9139 8.69299C9.81427 8.74281 9.71464 8.79262 9.66483 8.89224C9.5652 8.99187 9.5652 9.04169 9.61501 9.04169C9.86408 9.0915 10.0633 9.19112 10.163 9.34056L10.2128 9.4402C10.2626 9.49001 10.2626 9.58963 10.3124 9.73908C10.3622 9.88852 10.3622 10.038 10.3622 10.2372C10.3622 10.5361 10.3622 10.835 10.3622 11.0342C10.3622 11.2833 10.3124 11.4327 10.3124 11.5822C10.3124 11.7316 10.2626 11.8313 10.2128 11.8811C10.163 11.9807 10.163 12.0305 10.1131 12.0305C10.1131 12.0305 10.1131 12.0803 10.0633 12.0803C10.0135 12.0803 9.96371 12.1301 9.86408 12.1301C9.81427 12.1301 9.71464 12.0803 9.66483 12.0305C9.5652 11.9807 9.46557 11.8811 9.41576 11.7814C9.31613 11.6818 9.2165 11.5324 9.11687 11.3331C9.01725 11.1339 8.8678 10.9346 8.76817 10.6357L8.66855 10.4365C8.61874 10.3368 8.51911 10.1376 8.41948 9.88852C8.31986 9.63945 8.22023 9.4402 8.1206 9.19113C8.07079 9.0915 8.02098 9.04168 7.97116 8.99187H7.92135C7.92135 8.99187 7.87153 8.94206 7.82171 8.94206C7.7719 8.94206 7.72209 8.89224 7.67228 8.89224H5.87898C5.67973 8.89224 5.5801 8.94206 5.53029 8.99187L5.48047 9.04169C5.48047 9.04169 5.48047 9.0915 5.48047 9.14131C5.48047 9.19113 5.48047 9.24094 5.53029 9.34056C5.77935 9.93833 6.07824 10.5361 6.37712 11.1339C6.676 11.6818 6.97489 12.18 7.17414 12.5286C7.42321 12.8773 7.62246 13.226 7.87153 13.5249C8.1206 13.8238 8.27004 14.0231 8.31985 14.1227C8.41948 14.2223 8.46929 14.2721 8.5191 14.3219L8.66855 14.4714C8.76818 14.571 8.91762 14.7205 9.11687 14.8699C9.31613 15.0193 9.5652 15.1688 9.81426 15.3182C10.0633 15.4677 10.3622 15.5673 10.6611 15.6669C11.0098 15.7665 11.3087 15.8164 11.6076 15.7665H12.3548C12.5042 15.7665 12.6038 15.7167 12.7035 15.6171L12.7533 15.5673C12.7533 15.5175 12.8031 15.5175 12.8031 15.4677C12.8031 15.4178 12.8031 15.368 12.8031 15.2684C12.8031 15.0692 12.8031 14.9197 12.8529 14.7703C12.9027 14.6208 12.9027 14.5212 12.9525 14.4216C13.0024 14.3219 13.0522 14.2721 13.102 14.2223C13.1518 14.1725 13.2016 14.1227 13.2016 14.1227H13.2514C13.351 14.0729 13.5005 14.1227 13.6001 14.2223C13.7496 14.3219 13.899 14.4714 13.9986 14.6208C14.0982 14.7703 14.2477 14.9197 14.447 15.119C14.6462 15.3182 14.7956 15.4677 14.8953 15.5175L15.0447 15.6171C15.1443 15.6669 15.244 15.7167 15.3934 15.7665C15.5429 15.8164 15.6425 15.8164 15.7421 15.8164L17.4358 15.7665C17.5852 15.7665 17.7347 15.7167 17.8343 15.6669C17.9339 15.6171 17.9837 15.5673 17.9837 15.4677C17.9837 15.4178 17.9837 15.3182 17.9837 15.2684C17.8841 15.1688 17.8841 15.119 17.8841 15.0691Z" fill="white"/>
    </symbol>

    <symbol id="inst-brown" viewBox="0 0 24 24">
        <circle cx="12" cy="12" r="12" fill="#BF927A"/>
        <path d="M15.9487 7.20001H8.65173C7.82789 7.20001 7.2002 7.8277 7.2002 8.65155V15.9485C7.2002 16.7723 7.82789 17.4 8.65173 17.4H15.9487C16.7725 17.4 17.4002 16.7723 17.4002 15.9485V8.65155C17.4002 7.8277 16.7725 7.20001 15.9487 7.20001ZM12.3002 15.36C13.9871 15.36 15.3602 14.0262 15.3602 12.4177C15.3602 12.1431 15.321 11.8292 15.2425 11.5939H16.1056V15.7523C16.1056 15.9485 15.9487 16.1446 15.7133 16.1446H8.88712C8.69097 16.1446 8.49481 15.9877 8.49481 15.7523V11.5546H9.39712C9.31866 11.8292 9.27943 12.1039 9.27943 12.3785C9.2402 14.0262 10.6133 15.36 12.3002 15.36ZM12.3002 14.1831C11.2017 14.1831 10.3387 13.32 10.3387 12.2608C10.3387 11.2016 11.2017 10.3385 12.3002 10.3385C13.3987 10.3385 14.2617 11.2016 14.2617 12.2608C14.2617 13.3592 13.3987 14.1831 12.3002 14.1831ZM16.0664 9.9854C16.0664 10.2208 15.8702 10.4169 15.6348 10.4169H14.5363C14.301 10.4169 14.1048 10.2208 14.1048 9.9854V8.92617C14.1048 8.69078 14.301 8.49463 14.5363 8.49463H15.6348C15.8702 8.49463 16.0664 8.69078 16.0664 8.92617V9.9854Z" fill="white"/>
    </symbol>

    <symbol id="twitter-green" viewBox="0 0 30 30">
        <circle cx="15" cy="15" r="15" fill="#005344"/>
        <path d="M22.95 11.175C22.425 11.4 21.825 11.55 21.225 11.625C21.825 11.25 22.35 10.65 22.575 9.975C21.975 10.35 21.375 10.575 20.625 10.725C20.1 10.125 19.275 9.75 18.45 9.75C16.8 9.75 15.45 11.1 15.45 12.75C15.45 12.975 15.45 13.2 15.525 13.425C13.05 13.275 10.8 12.075 9.3 10.275C9.075 10.725 8.925 11.25 8.925 11.775C8.925 12.825 9.45 13.725 10.275 14.25C9.75 14.25 9.3 14.1 8.925 13.875C8.925 15.3 9.97499 16.575 11.325 16.8C11.1 16.875 10.8 16.875 10.5 16.875C10.275 16.875 10.125 16.875 9.9 16.8C10.275 18 11.4 18.9 12.75 18.9C11.7 19.725 10.425 20.175 9 20.175C8.775 20.175 8.55 20.175 8.25 20.1C9.6 20.925 11.175 21.45 12.9 21.45C18.45 21.45 21.45 16.875 21.45 12.9V12.525C22.05 12.3 22.575 11.775 22.95 11.175Z" fill="white"/>
    </symbol>

    <symbol id="fb-green" viewBox="0 0 30 30">
        <circle cx="15" cy="15" r="15" fill="#005344"/>
        <path d="M21.75 10.364C21.75 9.24093 20.7591 8.25 19.636 8.25H11.114C9.99093 8.25 9 9.24093 9 10.364V18.886C9 20.0091 9.99093 21 11.114 21H15.408V16.1775H13.8225V14.0635H15.408V13.2047C15.408 11.7513 16.465 10.4961 17.7863 10.4961H19.5039V12.6101H17.7863C17.5881 12.6101 17.3899 12.8083 17.3899 13.2047V14.0635H19.5039V16.1775H17.3899V21H19.636C20.7591 21 21.75 20.0091 21.75 18.886V10.364Z" fill="white"/>
    </symbol>

    <symbol id="vk-green" viewBox="0 0 30 30">
        <circle cx="15" cy="15" r="15" fill="#005344"/>
        <path d="M22.3551 18.8364C22.3551 18.7742 22.2929 18.7742 22.2929 18.7119C22.0438 18.2138 21.4834 17.5911 20.7362 16.9062C20.3626 16.5948 20.1758 16.3458 20.0512 16.2212C19.8644 15.9722 19.8644 15.7854 19.9267 15.5363C19.989 15.3495 20.238 15.0381 20.6739 14.4777C20.923 14.1664 21.0475 13.9796 21.2343 13.7928C22.1683 12.5475 22.6042 11.738 22.4796 11.3644L22.4174 11.3021C22.3551 11.2398 22.2928 11.1776 22.1683 11.1776C22.0438 11.1153 21.857 11.1153 21.6702 11.1776H19.304C19.2418 11.1776 19.2418 11.1776 19.1172 11.1776C19.055 11.1776 18.9927 11.1776 18.9927 11.1776H18.9304H18.8682L18.8059 11.2398C18.7436 11.3021 18.7436 11.3021 18.7436 11.3644C18.4945 12.0493 18.1832 12.6097 17.8719 13.2324C17.6851 13.5437 17.4983 13.8551 17.3115 14.1041C17.1247 14.3532 17.0001 14.54 16.8756 14.6645C16.7511 14.7891 16.6265 14.8513 16.5643 14.9759C16.502 15.0381 16.3775 15.1004 16.3775 15.0381C16.3152 15.0381 16.2529 15.0381 16.2529 14.9759C16.1907 14.9136 16.1284 14.8513 16.0661 14.7891C16.0039 14.7268 16.0039 14.6023 15.9416 14.4777C15.9416 14.3532 15.9416 14.2287 15.9416 14.1664C15.9416 14.1041 15.9416 13.9173 15.9416 13.7928C15.9416 13.606 15.9416 13.4815 15.9416 13.4192C15.9416 13.2324 15.9416 12.9833 15.9416 12.7343C15.9416 12.4852 15.9416 12.2984 15.9416 12.1739C15.9416 12.0493 15.9416 11.8625 15.9416 11.738C15.9416 11.5512 15.9416 11.4266 15.9416 11.3644C15.9416 11.3021 15.8793 11.1776 15.8793 11.1153C15.8171 11.053 15.7548 10.9908 15.6925 10.9285C15.6303 10.8662 15.5057 10.8662 15.4435 10.804C15.1321 10.7417 14.7585 10.6794 14.3227 10.6794C13.3264 10.6794 12.6414 10.7417 12.3924 10.8662C12.2678 10.9285 12.1433 10.9908 12.081 11.1153C11.9565 11.2398 11.9565 11.3021 12.0188 11.3021C12.3301 11.3644 12.5792 11.4889 12.7037 11.6757L12.766 11.8003C12.8282 11.8625 12.8282 11.9871 12.8905 12.1739C12.9528 12.3607 12.9528 12.5475 12.9528 12.7965C12.9528 13.1701 12.9528 13.5437 12.9528 13.7928C12.9528 14.1041 12.8905 14.2909 12.8905 14.4777C12.8905 14.6645 12.8282 14.7891 12.766 14.8513C12.7037 14.9759 12.7037 15.0381 12.6414 15.0381C12.6414 15.0381 12.6414 15.1004 12.5792 15.1004C12.5169 15.1004 12.4546 15.1627 12.3301 15.1627C12.2678 15.1627 12.1433 15.1004 12.081 15.0381C11.9565 14.9759 11.832 14.8513 11.7697 14.7268C11.6452 14.6023 11.5206 14.4155 11.3961 14.1664C11.2716 13.9173 11.0847 13.6683 10.9602 13.2947L10.8357 13.0456C10.7734 12.9211 10.6489 12.672 10.5244 12.3607C10.3998 12.0493 10.2753 11.8003 10.1507 11.4889C10.0885 11.3644 10.0262 11.3021 9.96396 11.2398H9.90168C9.90168 11.2398 9.83941 11.1776 9.77714 11.1776C9.71487 11.1776 9.65262 11.1153 9.59035 11.1153H7.34873C7.09966 11.1153 6.97512 11.1776 6.91286 11.2398L6.85059 11.3021C6.85059 11.3021 6.85059 11.3644 6.85059 11.4266C6.85059 11.4889 6.85059 11.5512 6.91286 11.6757C7.22419 12.4229 7.59779 13.1701 7.9714 13.9173C8.345 14.6023 8.71861 15.2249 8.96768 15.6608C9.27901 16.0967 9.52808 16.5326 9.83941 16.9062C10.1507 17.2798 10.3375 17.5288 10.3998 17.6534C10.5243 17.7779 10.5866 17.8402 10.6489 17.9024L10.8357 18.0892C10.9602 18.2138 11.147 18.4006 11.3961 18.5874C11.6452 18.7742 11.9565 18.961 12.2678 19.1478C12.5792 19.3346 12.9528 19.4591 13.3264 19.5837C13.7623 19.7082 14.1358 19.7705 14.5095 19.7082H15.4435C15.6303 19.7082 15.7548 19.6459 15.8793 19.5214L15.9416 19.4591C15.9416 19.3968 16.0039 19.3968 16.0039 19.3346C16.0039 19.2723 16.0039 19.21 16.0039 19.0855C16.0039 18.8364 16.0039 18.6496 16.0661 18.4628C16.1284 18.276 16.1284 18.1515 16.1907 18.027C16.2529 17.9024 16.3152 17.8402 16.3775 17.7779C16.4397 17.7156 16.502 17.6534 16.502 17.6534H16.5643C16.6888 17.5911 16.8756 17.6534 17.0001 17.7779C17.1869 17.9024 17.3737 18.0892 17.4983 18.276C17.6228 18.4628 17.8096 18.6496 18.0587 18.8987C18.3078 19.1478 18.4946 19.3346 18.6191 19.3969L18.8059 19.5214C18.9304 19.5837 19.055 19.6459 19.2418 19.7082C19.4286 19.7705 19.5531 19.7704 19.6776 19.7704L21.7947 19.7082C21.9815 19.7082 22.1683 19.6459 22.2929 19.5837C22.4174 19.5214 22.4796 19.4591 22.4796 19.3346C22.4796 19.2723 22.4796 19.1478 22.4796 19.0855C22.3551 18.961 22.3551 18.8987 22.3551 18.8364Z" fill="white"/>
    </symbol>

    <symbol id="inst-green" viewBox="0 0 30 30">
        <circle cx="15" cy="15" r="15" fill="#005344"/>
        <path d="M19.9356 9H10.8144C9.78461 9 9 9.78462 9 10.8144V19.9356C9 20.9654 9.78461 21.75 10.8144 21.75H19.9356C20.9654 21.75 21.75 20.9654 21.75 19.9356V10.8144C21.75 9.78462 20.9654 9 19.9356 9ZM15.375 19.2C17.4837 19.2 19.2 17.5327 19.2 15.5221C19.2 15.1788 19.151 14.7865 19.0529 14.4923H20.1317V19.6904C20.1317 19.9356 19.9356 20.1808 19.6413 20.1808H11.1087C10.8635 20.1808 10.6183 19.9846 10.6183 19.6904V14.4433H11.7462C11.6481 14.7865 11.599 15.1298 11.599 15.4731C11.55 17.5327 13.2663 19.2 15.375 19.2ZM15.375 17.7288C14.0019 17.7288 12.9231 16.65 12.9231 15.326C12.9231 14.0019 14.0019 12.9231 15.375 12.9231C16.7481 12.9231 17.8269 14.0019 17.8269 15.326C17.8269 16.699 16.7481 17.7288 15.375 17.7288ZM20.0827 12.4817C20.0827 12.776 19.8375 13.0212 19.5433 13.0212H18.1702C17.876 13.0212 17.6308 12.776 17.6308 12.4817V11.1577C17.6308 10.8635 17.876 10.6183 18.1702 10.6183H19.5433C19.8375 10.6183 20.0827 10.8635 20.0827 11.1577V12.4817Z" fill="white"/>
    </symbol>
</svg>
