<svg version="1.1"
     baseProfile="full"
     xmlns="http://www.w3.org/2000/svg"
>

    <symbol id="search" viewBox="0 0 24 24">
        <path fill-rule="evenodd" clip-rule="evenodd" d="M11.739 2C17.109 2 21.477 6.368 21.477 11.738C21.477 14.2715 20.5047 16.5823 18.9136 18.3165L22.0444 21.4407C22.3374 21.7337 22.3384 22.2077 22.0454 22.5007C21.8994 22.6487 21.7064 22.7217 21.5144 22.7217C21.3234 22.7217 21.1314 22.6487 20.9844 22.5027L17.8159 19.343C16.1491 20.6778 14.0357 21.477 11.739 21.477C6.369 21.477 2 17.108 2 11.738C2 6.368 6.369 2 11.739 2ZM11.739 3.5C7.196 3.5 3.5 7.195 3.5 11.738C3.5 16.281 7.196 19.977 11.739 19.977C16.281 19.977 19.977 16.281 19.977 11.738C19.977 7.195 16.281 3.5 11.739 3.5Z" fill="#005344"/>
    </symbol>

    <symbol id="burger" viewBox="0 0 30 30">
        <g clip-path="url(#clip0_118:239)">
            <path d="M30 25H0V26.875H30V25Z" fill="#005344"/>
            <path d="M30 14.375H0V16.25H30V14.375Z" fill="#005344"/>
            <path d="M30 3.75H0V5.625H30V3.75Z" fill="#005344"/>
        </g>
        <defs>
            <clipPath id="clip0_118:239">
                <rect width="30" height="30" fill="white"/>
            </clipPath>
        </defs>
    </symbol>

    <symbol id="tg" viewBox="0 0 35 35" fill="none">
        <circle cx="17.5" cy="17.5" r="17" stroke="#BF927A" stroke-opacity="0.6"/>
        <path d="M9.27037 17.4559L12.8152 18.7777L14.1971 23.2238C14.2572 23.5242 14.6177 23.5842 14.858 23.404L16.8407 21.7818C17.0209 21.6015 17.3214 21.6015 17.5617 21.7818L21.1065 24.3653C21.3468 24.5456 21.7073 24.4254 21.7674 24.125L24.411 11.5078C24.4711 11.2074 24.1707 10.907 23.8703 11.0271L9.27037 16.6748C8.90988 16.795 8.90988 17.3357 9.27037 17.4559ZM14.0169 18.1168L20.9863 13.851C21.1065 13.7909 21.2267 13.9711 21.1065 14.0312L15.3987 19.3785C15.2185 19.5588 15.0382 19.7991 15.0382 20.0995L14.858 21.5415C14.858 21.7217 14.5576 21.7818 14.4975 21.5415L13.7765 18.8979C13.5963 18.5974 13.7164 18.237 14.0169 18.1168Z" fill="#BF927A"/>
    </symbol>

    <symbol id="fb" viewBox="0 0 35 35" fill="none">
        <circle cx="17.5" cy="17.5" r="17" stroke="#BF927A" stroke-opacity="0.6"/>
        <path d="M25 13.3212C25 12.0881 23.9119 11 22.6788 11H13.3212C12.0881 11 11 12.0881 11 13.3212V22.6787C11 23.9119 12.0881 25 13.3212 25H18.0363V19.7047H16.2953V17.3834H18.0363V16.4404C18.0363 14.8446 19.1969 13.4663 20.6477 13.4663H22.5337V15.7876H20.6477C20.4301 15.7876 20.2124 16.0052 20.2124 16.4404V17.3834H22.5337V19.7047H20.2124V25H22.6788C23.9119 25 25 23.9119 25 22.6787V13.3212Z" fill="#BF927A"/>
    </symbol>

    <symbol id="inst" viewBox="0 0 35 35" fill="none">
        <circle cx="17.5" cy="17.5" r="17" stroke="#BF927A" stroke-opacity="0.6"/>
        <path d="M23.0077 11H12.9923C11.8615 11 11 11.8615 11 12.9923V23.0077C11 24.1385 11.8615 25 12.9923 25H23.0077C24.1385 25 25 24.1385 25 23.0077V12.9923C25 11.8615 24.1385 11 23.0077 11ZM18 22.2C20.3154 22.2 22.2 20.3692 22.2 18.1615C22.2 17.7846 22.1462 17.3538 22.0385 17.0308H23.2231V22.7385C23.2231 23.0077 23.0077 23.2769 22.6846 23.2769H13.3154C13.0462 23.2769 12.7769 23.0615 12.7769 22.7385V16.9769H14.0154C13.9077 17.3538 13.8538 17.7308 13.8538 18.1077C13.8 20.3692 15.6846 22.2 18 22.2ZM18 20.5846C16.4923 20.5846 15.3077 19.4 15.3077 17.9462C15.3077 16.4923 16.4923 15.3077 18 15.3077C19.5077 15.3077 20.6923 16.4923 20.6923 17.9462C20.6923 19.4538 19.5077 20.5846 18 20.5846ZM23.1692 14.8231C23.1692 15.1462 22.9 15.4154 22.5769 15.4154H21.0692C20.7462 15.4154 20.4769 15.1462 20.4769 14.8231V13.3692C20.4769 13.0462 20.7462 12.7769 21.0692 12.7769H22.5769C22.9 12.7769 23.1692 13.0462 23.1692 13.3692V14.8231Z" fill="#BF927A"/>
    </symbol>

    <symbol id="youtube" viewBox="0 0 35 35" fill="none">
        <circle cx="17.5" cy="17.5" r="17" stroke="#BF927A" stroke-opacity="0.6"/>
        <path d="M25.3293 16.5293C25.3293 16.1717 25.2697 15.7545 25.2697 15.2778C25.2101 14.801 25.1505 14.3242 25.0909 13.9071C24.9717 13.4303 24.7929 13.0727 24.4353 12.7747C24.1374 12.4768 23.7202 12.298 23.303 12.2384C21.9323 12.0596 19.9061 12 17.1647 12C14.4232 12 12.3374 12.0596 11.0263 12.2384C10.6091 12.298 10.1919 12.4768 9.89394 12.7747C9.59596 13.0727 9.35757 13.4303 9.23838 13.9071C9.11919 14.3242 9.0596 14.7414 9.0596 15.2778C9 15.7545 9 16.1717 9 16.5293C9 16.8869 9 17.304 9 17.9C9 18.496 9 18.9727 9 19.2707C9 19.6283 9.0596 20.0455 9.0596 20.5222C9.1192 20.999 9.17878 21.4757 9.23838 21.8929C9.35757 22.3697 9.53636 22.7273 9.89394 23.0253C10.1919 23.3232 10.6091 23.502 11.0263 23.5616C12.397 23.7404 14.4232 23.8 17.1647 23.8C19.9061 23.8 21.9919 23.7404 23.303 23.5616C23.7202 23.502 24.1374 23.3232 24.4353 23.0253C24.7333 22.7273 24.9717 22.3697 25.0909 21.8929C25.2101 21.4757 25.2697 21.0586 25.2697 20.5222C25.3293 20.0455 25.3293 19.6283 25.3293 19.2707C25.3293 18.9131 25.3293 18.496 25.3293 17.9C25.3293 17.304 25.3293 16.8273 25.3293 16.5293ZM20.3232 18.3768L15.6152 21.297C15.5556 21.3566 15.4364 21.4162 15.3172 21.4162C15.198 21.4162 15.1384 21.4162 15.0192 21.3566C14.8404 21.2374 14.7212 21.0586 14.7212 20.8202V14.9202C14.7212 14.6818 14.8404 14.503 15.0192 14.3838C15.198 14.2646 15.4364 14.2646 15.6152 14.3838L20.3232 17.304C20.502 17.4232 20.6212 17.602 20.6212 17.7808C20.6212 17.9596 20.502 18.2576 20.3232 18.3768Z" fill="#BF927A"/>
    </symbol>

    <symbol id="arrow-right" viewBox="0 0 20 20">
        <path d="M6.64107 16.2753C6.41918 16.0534 6.39901 15.7062 6.58055 15.4615L6.64107 15.3914L12.0322 10L6.64107 4.60862C6.41918 4.38673 6.39901 4.03951 6.58055 3.79483L6.64107 3.72473C6.86295 3.50284 7.21017 3.48267 7.45485 3.66422L7.52495 3.72473L13.3583 9.55807C13.5802 9.77996 13.6003 10.1272 13.4188 10.3719L13.3583 10.442L7.52495 16.2753C7.28087 16.5194 6.88514 16.5194 6.64107 16.2753Z" fill="#A1A1A1"/>
    </symbol>

    <symbol id="eye" viewBox="0 0 20 20">
        <path fill-rule="evenodd" clip-rule="evenodd" d="M10.0026 3.33374C13.4493 3.33624 16.5443 5.75207 18.2826 9.79707C18.351 9.95457 18.351 10.1329 18.2826 10.2904C16.5451 14.3362 13.4493 16.7521 10.0026 16.7546H9.99762C6.55095 16.7521 3.45595 14.3362 1.71762 10.2904C1.65012 10.1329 1.65012 9.95457 1.71762 9.79707C3.45595 5.75207 6.55178 3.33624 9.99762 3.33374H10.0026ZM10.0001 4.58374C7.13678 4.58457 4.52512 6.62041 2.97512 10.0437C4.52512 13.4679 7.13595 15.5037 10.0001 15.5046C12.8643 15.5037 15.4751 13.4679 17.0251 10.0437C15.4751 6.62041 12.8643 4.58457 10.0001 4.58374ZM9.99987 6.78441C11.7974 6.78441 13.2599 8.24691 13.2599 10.0444C13.2599 11.8411 11.7974 13.3027 9.99987 13.3027C8.20237 13.3027 6.7407 11.8411 6.7407 10.0444C6.7407 8.24691 8.20237 6.78441 9.99987 6.78441ZM9.99987 8.03441C8.89153 8.03441 7.9907 8.93607 7.9907 10.0444C7.9907 11.1519 8.89153 12.0527 9.99987 12.0527C11.1082 12.0527 12.0099 11.1519 12.0099 10.0444C12.0099 8.93607 11.1082 8.03441 9.99987 8.03441Z"/>
    </symbol>

    <symbol id="mail" viewBox="0 0 24 24">
        <path fill-rule="evenodd" clip-rule="evenodd" d="M16.659 2C19.989 2 22.5 4.717 22.5 8.32V15.188C22.5 17.032 21.848 18.698 20.663 19.88C19.6 20.939 18.221 21.5 16.675 21.5H6.822C5.279 21.5 3.901 20.94 2.837 19.88C1.652 18.698 1 17.032 1 15.188V8.32C1 4.717 3.511 2 6.841 2H16.659ZM16.659 3.5H6.841C4.326 3.5 2.5 5.527 2.5 8.32V15.188C2.5 16.631 2.996 17.92 3.896 18.817C4.672 19.592 5.685 20 6.825 20H16.659C16.661 19.998 16.669 20 16.675 20C17.816 20 18.828 19.592 19.604 18.817C20.505 17.92 21 16.631 21 15.188V8.32C21 5.527 19.174 3.5 16.659 3.5ZM18.235 8.1288C18.496 8.4498 18.447 8.9218 18.126 9.1838L13.682 12.7958C13.12 13.2418 12.448 13.4648 11.777 13.4648C11.108 13.4648 10.441 13.2438 9.883 12.8018L5.398 9.1858C5.075 8.9258 5.025 8.4528 5.284 8.1308C5.545 7.8098 6.017 7.7588 6.339 8.0178L10.82 11.6298C11.383 12.0758 12.176 12.0758 12.743 11.6258L17.179 8.0198C17.501 7.7568 17.973 7.8068 18.235 8.1288Z" fill="#646D70"/>
    </symbol>
</svg>
